SplineFontDB: 3.2
FontName: BertiogaSans-Medium
FullName: Bertioga Sans Medium
FamilyName: Bertioga Sans Medium
Weight: Medium
Copyright: Copyright 2020 The Arimo Project Authors (https://github.com/googlefonts/arimo)\nCopyright 2020 The Libra Sans Project Authors (https://github.com/stefanpeev/libra-sans)\nCopyright 2024 The Bertioga Sans Project Authors (https://github.com/cssobral2013/bertioga-sans)
UComments: "2024-2-22: Created with FontForge (http://fontforge.org)"
Version: 3.004
ItalicAngle: 0
UnderlinePosition: -100
UnderlineWidth: 50
Ascent: 1638
Descent: 410
InvalidEm: 0
LayerCount: 2
Layer: 0 1 "Back" 1
Layer: 1 1 "Fore" 0
XUID: [1021 531 -1996577725 15367426]
StyleMap: 0x0040
FSType: 0
OS2Version: 4
OS2_WeightWidthSlopeOnly: 0
OS2_UseTypoMetrics: 1
CreationTime: 1708625948
ModificationTime: 1708632829
PfmFamily: 17
TTFWeight: 500
TTFWidth: 5
LineGap: 67
VLineGap: 0
Panose: 2 11 6 4 2 2 2 2 2 4
OS2TypoAscent: 1854
OS2TypoAOffset: 0
OS2TypoDescent: -434
OS2TypoDOffset: 0
OS2TypoLinegap: 67
OS2WinAscent: 2136
OS2WinAOffset: 0
OS2WinDescent: 797
OS2WinDOffset: 0
HheadAscent: 1854
HheadAOffset: 0
HheadDescent: -434
HheadDOffset: 0
OS2SubXSize: 1331
OS2SubYSize: 1433
OS2SubXOff: 0
OS2SubYOff: 286
OS2SupXSize: 1331
OS2SupYSize: 1433
OS2SupXOff: 0
OS2SupYOff: 983
OS2StrikeYSize: 102
OS2StrikeYPos: 530
OS2CapHeight: 1409
OS2XHeight: 1082
OS2Vendor: 'GOOG'
OS2UnicodeRanges: e0000aff.500078ff.00000029.00000000
Lookup: 4 1 0 "dligDiscretionaryLigaturesinHebrewlookup1" { "dligDiscretionaryLigaturesinHebrewlookup1 subtable"  } ['dlig' ('hebr' <'dflt' > ) ]
Lookup: 4 0 0 "ccmpGlyphCompositionDecompositionlookup2" { "ccmpGlyphCompositionDecompositionlookup2 subtable"  } ['ccmp' ('latn' <'dflt' 'MAH ' > 'grek' <'dflt' > 'cyrl' <'dflt' > ) ]
Lookup: 6 0 0 "ccmpGlyphCompositionDecompositionlookup3" { "ccmpGlyphCompositionDecompositionlookup3 subtable"  } ['ccmp' ('latn' <'dflt' 'MAH ' > 'grek' <'dflt' > 'cyrl' <'dflt' > ) ]

StartChar: .notdef
Encoding: 65536 -1 0
Width: 1536
GlyphClass: 2
Flags: W
LayerCount: 2
Fore
SplineSet
1330 1409 m 1,0,0
 1330 0 l 1,0,0
 205 0 l 1,0,0
 205 1409 l 1,0,0
 1330 1409 l 1,0,0
281 76 m 1,0,0
 1254 76 l 1,0,0
 1254 1333 l 1,0,0
 281 1333 l 1,0,0
 281 76 l 1,0,0
EndSplineSet
EndChar

StartChar: exclam
Encoding: 33 33 4
Width: 606
GlyphClass: 2
Flags: W
LayerCount: 2
Fore
SplineSet
417.32 1409 m 1,0,0
 390.68 406.57 l 1,0,0
 215.62 406.57 l 1,0,0
 188.98 1409 l 1,0,0
 417.32 1409 l 1,0,0
412.66 223.77 m 1,0,0
 412.66 0 l 1,0,0
 187.64 0 l 1,0,0
 187.64 223.77 l 1,0,0
 412.66 223.77 l 1,0,0
EndSplineSet
EndChar

StartChar: quotedbl
Encoding: 34 34 5
Width: 807
GlyphClass: 2
Flags: W
LayerCount: 2
Fore
SplineSet
704.68 1409 m 1,0,0
 680.37 943.56 l 1,0,0
 512.96 943.56 l 1,0,0
 490.65 1409 l 1,0,0
 704.68 1409 l 1,0,0
316.21 1409 m 1,0,0
 292.56 943.56 l 1,0,0
 125.82 943.56 l 1,0,0
 102.84 1409 l 1,0,0
 316.21 1409 l 1,0,0
EndSplineSet
EndChar

StartChar: numbersign
Encoding: 35 35 6
Width: 1139
GlyphClass: 2
Flags: W
LayerCount: 2
Fore
SplineSet
327.92 399.09 m 1,0,0
 245.24 0 l 1,0,0
 121.05 0 l 1,0,0
 203.4 399.09 l 1,0,0
 17.58 399.09 l 1,0,0
 17.58 520.62 l 1,0,0
 230.37 520.62 l 1,0,0
 305.73 877.41 l 1,0,0
 68.58 877.41 l 1,0,0
 68.58 998.61 l 1,0,0
 330.7 998.61 l 1,0,0
 418.05 1399.02 l 1,0,0
 542.24 1399.02 l 1,0,0
 456.22 998.61 l 1,0,0
 800.74 998.61 l 1,0,0
 887.42 1399.02 l 1,0,0
 1012.6 1399.02 l 1,0,0
 925.92 998.61 l 1,0,0
 1121.41 998.61 l 1,0,0
 1121.41 877.41 l 1,0,0
 900.29 877.41 l 1,0,0
 825.26 520.62 l 1,0,0
 1070.41 520.62 l 1,0,0
 1070.41 399.09 l 1,0,0
 799.62 399.09 l 1,0,0
 713.6 0 l 1,0,0
 588.42 0 l 1,0,0
 672.44 399.09 l 1,0,0
 327.92 399.09 l 1,0,0
355.56 520.62 m 1,0,0
 700.07 520.62 l 1,0,0
 775.43 877.41 l 1,0,0
 432.92 877.41 l 1,0,0
 355.56 520.62 l 1,0,0
EndSplineSet
EndChar

StartChar: dollar
Encoding: 36 36 7
Width: 1139
GlyphClass: 2
Flags: W
LayerCount: 2
Fore
SplineSet
518.66 20 m 1,0,0
 305 28.67 305 28.67 182.32 119.825 c 0,0,0
 59.64 210.98 59.64 210.98 23.65 388.57 c 1,0,0
 222.03 428.87 l 1,0,0
 245.05 311.85 245.05 311.85 316.96 254.325 c 0,0,0
 388.87 196.8 388.87 196.8 518.66 187.47 c 1,0,0
 518.66 648.82 l 1,0,0
 466.59 661.84 466.59 661.84 418.275 675.67 c 0,0,0
 369.96 689.5 369.96 689.5 330.345 704.315 c 0,0,0
 290.73 719.13 290.73 719.13 264.43 733.1 c 0,0,0
 169.7 785.11 169.7 785.11 125.54 857.92 c 0,0,0
 81.38 930.73 81.38 930.73 81.38 1040.72 c 0,0,0
 81.38 1199.35 81.38 1199.35 194.54 1288.005 c 0,0,0
 307.7 1376.66 307.7 1376.66 518.66 1385.33 c 1,0,0
 518.66 1517.32 l 1,0,0
 637.71 1517.32 l 1,0,0
 637.71 1385.33 l 1,0,0
 762.05 1379.33 762.05 1379.33 848.545 1345.32 c 0,0,0
 935.04 1311.31 935.04 1311.31 990.195 1240.995 c 0,0,0
 1045.35 1170.68 1045.35 1170.68 1075 1055.43 c 1,0,0
 871.3 1020.45 l 1,0,0
 852.95 1112.14 852.95 1112.14 797.725 1162.99 c 0,0,0
 742.5 1213.84 742.5 1213.84 637.71 1224.84 c 1,0,0
 637.71 810.53 l 1,0,0
 704.93 795.14 704.93 795.14 762.825 778.445 c 0,0,0
 820.72 761.75 820.72 761.75 870.6 742.44 c 0,0,0
 995.49 691.09 995.49 691.09 1051.405 609.985 c 0,0,0
 1107.32 528.88 1107.32 528.88 1107.32 401.28 c 0,0,0
 1107.32 231 1107.32 231 986.155 131.165 c 0,0,0
 864.99 31.33 864.99 31.33 637.71 20.99 c 1,0,0
 637.71 -145.3 l 1,0,0
 518.66 -145.3 l 1,0,0
 518.66 20 l 1,0,0
283.08 1043.38 m 0,0,0
 283.08 988.33 283.08 988.33 305.11 952.29 c 0,0,0
 328.13 912.94 328.13 912.94 374.165 887.91 c 0,0,0
 420.2 862.88 420.2 862.88 518.66 835.87 c 1,0,0
 518.66 1227.5 l 1,0,0
 283.08 1213.83 283.08 1213.83 283.08 1043.38 c 0,0,0
906.28 398.62 m 0,0,0
 906.28 458.67 906.28 458.67 883.085 497.205 c 0,0,0
 859.89 535.74 859.89 535.74 815.51 561.1 c 0,0,0
 771.13 585.79 771.13 585.79 637.71 621.47 c 1,0,0
 637.71 186.8 l 1,0,0
 768.48 195.47 768.48 195.47 837.38 249.18 c 0,0,0
 906.28 302.89 906.28 302.89 906.28 398.62 c 0,0,0
EndSplineSet
EndChar

StartChar: percent
Encoding: 37 37 8
Width: 1821
GlyphClass: 2
Flags: W
LayerCount: 2
Fore
SplineSet
398.62 1422.32 m 0,0,0
 724.49 1422.32 724.49 1422.32 724.49 975.66 c 0,0,0
 724.49 758.33 724.49 758.33 641.36 641.825 c 0,0,0
 558.23 525.32 558.23 525.32 394.29 525.32 c 0,0,0
 231.01 525.32 231.01 525.32 148.375 640.825 c 0,0,0
 65.74 756.33 65.74 756.33 65.74 975.66 c 0,0,0
 65.74 1199.98 65.74 1199.98 145.71 1311.15 c 0,0,0
 225.68 1422.32 225.68 1422.32 398.62 1422.32 c 0,0,0
1458.92 1409 m 1,0,0
 535.25 0 l 1,0,0
 363.42 0 l 1,0,0
 1284.76 1409 l 1,0,0
 1458.92 1409 l 1,0,0
554.39 975.66 m 0,0,0
 554.39 1145.72 554.39 1145.72 518.865 1222.265 c 0,0,0
 483.34 1298.81 483.34 1298.81 398.62 1298.81 c 0,0,0
 309.24 1298.81 309.24 1298.81 272.21 1223.27 c 0,0,0
 235.18 1147.73 235.18 1147.73 235.18 975.66 c 0,0,0
 235.18 807.94 235.18 807.94 272.705 730.225 c 0,0,0
 310.23 652.51 310.23 652.51 396.62 652.51 c 0,0,0
 479.33 652.51 479.33 652.51 516.86 731.23 c 0,0,0
 554.39 809.95 554.39 809.95 554.39 975.66 c 0,0,0
1754.27 433.34 m 0,0,0
 1754.27 217.35 1754.27 217.35 1670.3 102.015 c 0,0,0
 1586.33 -13.32 1586.33 -13.32 1423.05 -13.32 c 0,0,0
 1260.45 -13.32 1260.45 -13.32 1177.815 99.675 c 0,0,0
 1095.18 212.67 1095.18 212.67 1095.18 433.34 c 0,0,0
 1095.18 660.02 1095.18 660.02 1174.815 771.85 c 0,0,0
 1254.45 883.68 1254.45 883.68 1427.05 883.68 c 0,0,0
 1596.33 883.68 1596.33 883.68 1675.3 769.51 c 0,0,0
 1754.27 655.34 1754.27 655.34 1754.27 433.34 c 0,0,0
1584.16 433.34 m 0,0,0
 1584.16 606.07 1584.16 606.07 1548.3 682.28 c 0,0,0
 1512.44 758.49 1512.44 758.49 1427.05 758.49 c 0,0,0
 1339.68 758.49 1339.68 758.49 1302.48 682.625 c 0,0,0
 1265.28 606.76 1265.28 606.76 1265.28 433.34 c 0,0,0
 1265.28 265.64 1265.28 265.64 1302.47 188.915 c 0,0,0
 1339.66 112.19 1339.66 112.19 1425.05 112.19 c 0,0,0
 1508.1 112.19 1508.1 112.19 1546.13 190.575 c 0,0,0
 1584.16 268.96 1584.16 268.96 1584.16 433.34 c 0,0,0
EndSplineSet
EndChar

StartChar: ampersand
Encoding: 38 38 9
Width: 1403
GlyphClass: 2
Flags: W
LayerCount: 2
Fore
SplineSet
77.94 375.62 m 0,0,0
 77.94 513.3 77.94 513.3 161.955 619.805 c 0,0,0
 245.97 726.31 245.97 726.31 419.29 804.29 c 1,0,0
 384.97 870.58 384.97 870.58 362.785 950.63 c 0,0,0
 340.6 1030.68 340.6 1030.68 340.6 1098.7 c 0,0,0
 340.6 1250.68 340.6 1250.68 434.245 1333.84 c 0,0,0
 527.89 1417 527.89 1417 700.18 1417 c 0,0,0
 856.79 1417 856.79 1417 950.94 1339.68 c 0,0,0
 1045.09 1262.36 1045.09 1262.36 1045.09 1128.71 c 0,0,0
 1045.09 1056.4 1045.09 1056.4 1011.115 995.405 c 0,0,0
 977.14 934.41 977.14 934.41 906.14 879.4 c 0,0,0
 861.43 846.03 861.43 846.03 796.24 810.855 c 0,0,0
 731.05 775.68 731.05 775.68 641.7 738.36 c 1,0,0
 747.73 543.94 747.73 543.94 918.53 351.44 c 1,0,0
 1028.56 515.8 1028.56 515.8 1085.24 745.93 c 1,0,0
 1251.36 694.02 l 1,0,0
 1187.71 452.63 1187.71 452.63 1045.63 241.19 c 1,0,0
 1138 151.44 1138 151.44 1243.73 151.44 c 0,0,0
 1313.75 151.44 1313.75 151.44 1360.73 167.44 c 1,0,0
 1360.73 10 l 1,0,0
 1306.73 -12 1306.73 -12 1223.03 -12 c 0,0,0
 1135.69 -12 1135.69 -12 1057.23 19.335 c 0,0,0
 978.77 50.67 978.77 50.67 914.47 113.02 c 1,0,0
 754.85 -20 754.85 -20 540.16 -20 c 0,0,0
 319.88 -20 319.88 -20 198.91 84.49 c 0,0,0
 77.94 188.98 77.94 188.98 77.94 375.62 c 0,0,0
869.33 1128.05 m 0,0,0
 869.33 1195.1 869.33 1195.1 823.29 1237.465 c 0,0,0
 777.25 1279.83 777.25 1279.83 698.18 1279.83 c 0,0,0
 608.45 1279.83 608.45 1279.83 561.585 1231.135 c 0,0,0
 514.72 1182.44 514.72 1182.44 514.72 1098.04 c 0,0,0
 514.72 994.62 514.72 994.62 576.09 870.87 c 1,0,0
 698.84 921.23 698.84 921.23 755.23 957.59 c 0,0,0
 811.62 993.95 811.62 993.95 840.475 1035.65 c 0,0,0
 869.33 1077.35 869.33 1077.35 869.33 1128.05 c 0,0,0
792.69 226.57 m 1,0,0
 698.97 335.32 698.97 335.32 623.265 442.885 c 0,0,0
 547.56 550.45 547.56 550.45 489.2 657.17 c 1,0,0
 274.32 562.77 274.32 562.77 274.32 378.28 c 0,0,0
 274.32 264.54 274.32 264.54 347.695 197.505 c 0,0,0
 421.07 130.47 421.07 130.47 547.81 130.47 c 0,0,0
 616.83 130.47 616.83 130.47 681.725 156.815 c 0,0,0
 746.62 183.16 746.62 183.16 792.69 226.57 c 1,0,0
EndSplineSet
EndChar

StartChar: quotesingle
Encoding: 39 39 10
Width: 422
GlyphClass: 2
Flags: W
LayerCount: 2
Fore
SplineSet
318.69 1409 m 1,0,0
 295.04 943.56 l 1,0,0
 128.3 943.56 l 1,0,0
 105.65 1409 l 1,0,0
 318.69 1409 l 1,0,0
EndSplineSet
EndChar

StartChar: parenleft
Encoding: 40 40 11
Width: 682
GlyphClass: 2
Flags: W
LayerCount: 2
Fore
SplineSet
463.99 -424.33 m 1,0,0
 345.25 -283.38 345.25 -283.38 268.53 -135.885 c 0,0,0
 191.81 11.61 191.81 11.61 155.28 175.625 c 0,0,0
 118.75 339.64 118.75 339.64 118.75 528.99 c 0,0,0
 118.75 721.02 118.75 721.02 155.615 885.205 c 0,0,0
 192.48 1049.39 192.48 1049.39 269.2 1196.72 c 0,0,0
 345.92 1344.05 345.92 1344.05 463.99 1484 c 1,0,0
 673.3 1484 l 1,0,0
 495.87 1269.4 495.87 1269.4 413.65 1038.04 c 0,0,0
 331.43 806.68 331.43 806.68 331.43 530 c 0,0,0
 331.43 346.66 331.43 346.66 367.12 183.64 c 0,0,0
 402.81 20.62 402.81 20.62 478.355 -128.88 c 0,0,0
 553.9 -278.38 553.9 -278.38 673.3 -424.33 c 1,0,0
 463.99 -424.33 l 1,0,0
EndSplineSet
EndChar

StartChar: parenright
Encoding: 41 41 12
Width: 682
GlyphClass: 2
Flags: W
LayerCount: 2
Fore
SplineSet
8.7 -424.33 m 1,0,0
 128.43 -279.05 128.43 -279.05 203.81 -129.55 c 0,0,0
 279.19 19.95 279.19 19.95 314.88 182.635 c 0,0,0
 350.57 345.32 350.57 345.32 350.57 530 c 0,0,0
 350.57 807.68 350.57 807.68 268.185 1038.535 c 0,0,0
 185.8 1269.39 185.8 1269.39 8.7 1484 c 1,0,0
 218.01 1484 l 1,0,0
 337.41 1343.05 337.41 1343.05 413.465 1195.39 c 0,0,0
 489.52 1047.73 489.52 1047.73 526.385 884.38 c 0,0,0
 563.25 721.03 563.25 721.03 563.25 531.67 c 0,0,0
 563.25 340.64 563.25 340.64 526.385 176.12 c 0,0,0
 489.52 11.6 489.52 11.6 413.465 -135.725 c 0,0,0
 337.41 -283.05 337.41 -283.05 218.01 -424.33 c 1,0,0
 8.7 -424.33 l 1,0,0
EndSplineSet
EndChar

StartChar: asterisk
Encoding: 42 42 13
Width: 797
GlyphClass: 2
Flags: W
LayerCount: 2
Fore
SplineSet
688.79 763.98 m 1,0,0
 548.34 675.81 l 1,0,0
 399.66 931.83 l 1,0,0
 245.97 677.15 l 1,0,0
 104.86 765.98 l 1,0,0
 294.19 1001.77 l 1,0,0
 24.09 1070.81 l 1,0,0
 76.68 1225.6 l 1,0,0
 334.44 1119.59 l 1,0,0
 320.46 1409 l 1,0,0
 482.53 1409 l 1,0,0
 467.88 1120.93 l 1,0,0
 722.31 1224.26 l 1,0,0
 774.9 1070.81 l 1,0,0
 503.46 1001.77 l 1,0,0
 688.79 763.98 l 1,0,0
EndSplineSet
EndChar

StartChar: plus
Encoding: 43 43 14
Width: 1196
GlyphClass: 2
Flags: W
LayerCount: 2
Fore
SplineSet
684.2 595.13 m 1,0,0
 684.2 173.73 l 1,0,0
 511.13 173.73 l 1,0,0
 511.13 595.13 l 1,0,0
 95.38 595.13 l 1,0,0
 95.38 766.87 l 1,0,0
 511.13 766.87 l 1,0,0
 511.13 1188.27 l 1,0,0
 684.2 1188.27 l 1,0,0
 684.2 766.87 l 1,0,0
 1100.94 766.87 l 1,0,0
 1100.94 595.13 l 1,0,0
 684.2 595.13 l 1,0,0
EndSplineSet
EndChar

StartChar: comma
Encoding: 44 44 15
Width: 569
GlyphClass: 2
Flags: W
LayerCount: 2
Fore
SplineSet
400.51 55.95 m 2,0,0
 400.51 -54.67 400.51 -54.67 379.365 -132.6 c 0,0,0
 358.22 -210.53 358.22 -210.53 312.61 -280.15 c 1,0,0
 169.15 -280.15 l 1,0,0
 220.11 -211.16 220.11 -211.16 248.065 -139.225 c 0,0,0
 276.02 -67.29 276.02 -67.29 276.02 0 c 1,0,0
 174.49 0 l 1,0,0
 174.49 247.38 l 1,0,0
 400.51 247.38 l 1,0,0
 400.51 55.95 l 2,0,0
EndSplineSet
EndChar

StartChar: hyphen
Encoding: 45 45 16
Width: 682
GlyphClass: 2
Flags: W
LayerCount: 2
Fore
SplineSet
593.97 633.57 m 1,0,0
 593.97 445.85 l 1,0,0
 87.37 445.85 l 1,0,0
 87.37 633.57 l 1,0,0
 593.97 633.57 l 1,0,0
EndSplineSet
EndChar

StartChar: period
Encoding: 46 46 17
Width: 569
GlyphClass: 2
Flags: W
LayerCount: 2
Fore
SplineSet
397.18 247.38 m 1,0,0
 397.18 0 l 1,0,0
 171.16 0 l 1,0,0
 171.16 247.38 l 1,0,0
 397.18 247.38 l 1,0,0
EndSplineSet
EndChar

StartChar: slash
Encoding: 47 47 18
Width: 569
GlyphClass: 2
Flags: W
LayerCount: 2
Fore
SplineSet
562.4 1484 m 1,0,0
 195.33 -26.93 l 1,0,0
 6.6 -26.93 l 1,0,0
 378 1484 l 1,0,0
 562.4 1484 l 1,0,0
EndSplineSet
EndChar

StartChar: zero
Encoding: 48 48 19
Width: 1139
GlyphClass: 2
Flags: W
LayerCount: 2
Fore
SplineSet
1057.68 705 m 0,0,0
 1057.68 350.68 1057.68 350.68 933.84 165.34 c 0,0,0
 810 -20 810 -20 566.34 -20 c 0,0,0
 323.67 -20 323.67 -20 202 163.845 c 0,0,0
 80.33 347.69 80.33 347.69 80.33 705 c 0,0,0
 80.33 1070.64 80.33 1070.64 197.84 1250.32 c 0,0,0
 315.35 1430 315.35 1430 573 1430 c 0,0,0
 822.33 1430 822.33 1430 940.005 1247.66 c 0,0,0
 1057.68 1065.32 1057.68 1065.32 1057.68 705 c 0,0,0
842.01 705 m 0,0,0
 842.01 904.38 842.01 904.38 815.965 1026.27 c 0,0,0
 789.92 1148.16 789.92 1148.16 730.51 1203.87 c 0,0,0
 671.1 1259.58 671.1 1259.58 572.34 1259.58 c 0,0,0
 470.59 1259.58 470.59 1259.58 409.345 1204.375 c 0,0,0
 348.1 1149.17 348.1 1149.17 321.55 1027.28 c 0,0,0
 295 905.39 295 905.39 295 705 c 0,0,0
 295 508.63 295 508.63 322.55 386.405 c 0,0,0
 350.1 264.18 350.1 264.18 410.345 207.8 c 0,0,0
 470.59 151.42 470.59 151.42 568.34 151.42 c 0,0,0
 714.47 151.42 714.47 151.42 778.24 284.84 c 0,0,0
 842.01 418.26 842.01 418.26 842.01 705 c 0,0,0
EndSplineSet
EndChar

StartChar: one
Encoding: 49 49 20
Width: 1139
GlyphClass: 2
Flags: W
LayerCount: 2
Fore
SplineSet
1053.19 171.48 m 1,0,0
 1053.19 0 l 1,0,0
 147.09 0 l 1,0,0
 147.09 171.48 l 1,0,0
 502.79 171.48 l 1,0,0
 502.79 1214.89 l 1,0,0
 178.19 993.17 l 1,0,0
 178.19 1180 l 1,0,0
 517.79 1409 l 1,0,0
 716.79 1409 l 1,0,0
 716.79 171.48 l 1,0,0
 1053.19 171.48 l 1,0,0
EndSplineSet
EndChar

StartChar: two
Encoding: 50 50 21
Width: 1139
GlyphClass: 2
Flags: W
LayerCount: 2
Fore
SplineSet
1042.93 178.74 m 1,0,0
 1042.93 0 l 1,0,0
 92.44 0 l 1,0,0
 92.44 149.44 l 1,0,0
 138.82 254.56 138.82 254.56 206.205 340.435 c 0,0,0
 273.59 426.31 273.59 426.31 354.765 500.455 c 0,0,0
 435.94 574.6 435.94 574.6 505.18 629.35 c 0,0,0
 574.42 684.1 574.42 684.1 615.365 721.205 c 0,0,0
 656.31 758.31 656.31 758.31 698.205 802.335 c 0,0,0
 740.1 846.36 740.1 846.36 771.515 904.625 c 0,0,0
 802.93 962.89 802.93 962.89 802.93 1032.72 c 0,0,0
 802.93 1140.8 802.93 1140.8 742.025 1198.86 c 0,0,0
 681.12 1256.92 681.12 1256.92 569.69 1256.92 c 0,0,0
 462.94 1256.92 462.94 1256.92 397.35 1199.04 c 0,0,0
 331.76 1141.16 331.76 1141.16 318.43 1033.44 c 1,0,0
 101.76 1050.11 l 1,0,0
 123.08 1228.02 123.08 1228.02 246.25 1329.01 c 0,0,0
 369.42 1430 369.42 1430 569.03 1430 c 0,0,0
 786.98 1430 786.98 1430 903.955 1328.345 c 0,0,0
 1020.93 1226.69 1020.93 1226.69 1020.93 1040.7 c 0,0,0
 1020.93 950.78 1020.93 950.78 981.285 868.79 c 0,0,0
 941.64 786.8 941.64 786.8 883.995 724.485 c 0,0,0
 826.35 662.17 826.35 662.17 755.515 601.81 c 0,0,0
 684.68 541.45 684.68 541.45 588.875 463.665 c 0,0,0
 493.07 385.88 493.07 385.88 428.535 316.485 c 0,0,0
 364 247.09 364 247.09 334.66 178.74 c 1,0,0
 1042.93 178.74 l 1,0,0
EndSplineSet
EndChar

StartChar: three
Encoding: 51 51 22
Width: 1139
GlyphClass: 2
Flags: W
LayerCount: 2
Fore
SplineSet
1054.28 389.66 m 0,0,0
 1054.28 193.67 1054.28 193.67 928.3 86.34 c 0,0,0
 802.32 -20.99 802.32 -20.99 569.02 -20.99 c 0,0,0
 350.73 -20.99 350.73 -20.99 221.085 78.15 c 0,0,0
 91.44 177.29 91.44 177.29 67.77 368.93 c 1,0,0
 286.77 388.57 l 1,0,0
 319.8 154.08 319.8 154.08 568.69 154.08 c 0,0,0
 693.14 154.08 693.14 154.08 763.545 215.47 c 0,0,0
 833.95 276.86 833.95 276.86 833.95 399.29 c 0,0,0
 833.95 507.36 833.95 507.36 752.215 567.075 c 0,0,0
 670.48 626.79 670.48 626.79 514.37 626.79 c 2,0,0
 413.69 626.79 l 1,0,0
 413.69 806.22 l 1,0,0
 509.71 806.22 l 2,0,0
 648.8 806.22 648.8 806.22 723.535 865.77 c 0,0,0
 798.27 925.32 798.27 925.32 798.27 1032.06 c 0,0,0
 798.27 1136.48 798.27 1136.48 737.71 1196.7 c 0,0,0
 677.15 1256.92 677.15 1256.92 558.69 1256.92 c 0,0,0
 450.25 1256.92 450.25 1256.92 383.35 1200.21 c 0,0,0
 316.45 1143.5 316.45 1143.5 305.77 1040.09 c 1,0,0
 91.77 1056.07 l 1,0,0
 112.43 1232.04 112.43 1232.04 237.745 1331.02 c 0,0,0
 363.06 1430 363.06 1430 561.68 1430 c 0,0,0
 776.65 1430 776.65 1430 896.46 1331.17 c 0,0,0
 1016.27 1232.34 1016.27 1232.34 1016.27 1056.34 c 0,0,0
 1016.27 922.33 1016.27 922.33 940.11 837.665 c 0,0,0
 863.95 753 863.95 753 719.29 723.66 c 1,0,0
 719.29 719.66 l 1,0,0
 878.61 702 878.61 702 966.445 613.495 c 0,0,0
 1054.28 524.99 1054.28 524.99 1054.28 389.66 c 0,0,0
EndSplineSet
EndChar

StartChar: four
Encoding: 52 52 23
Width: 1139
GlyphClass: 2
Flags: W
LayerCount: 2
Fore
SplineSet
900.47 308.44 m 1,0,0
 900.47 0 l 1,0,0
 698.13 0 l 1,0,0
 698.13 308.44 l 1,0,0
 41.72 308.44 l 1,0,0
 41.72 471.87 l 1,0,0
 670.22 1409 l 1,0,0
 900.47 1409 l 1,0,0
 900.47 472.55 l 1,0,0
 1095.17 472.55 l 1,0,0
 1095.17 308.44 l 1,0,0
 900.47 308.44 l 1,0,0
228.51 472.55 m 1,0,0
 698.13 472.55 l 1,0,0
 698.13 1001.22 l 2,0,0
 698.13 1049.86 698.13 1049.86 699.62 1101.135 c 0,0,0
 701.11 1152.41 701.11 1152.41 703.78 1189.17 c 1,0,0
 684.08 1150.45 684.08 1150.45 664.935 1118.66 c 0,0,0
 645.79 1086.87 645.79 1086.87 625.19 1055.98 c 2,0,0
 228.51 472.55 l 1,0,0
EndSplineSet
EndChar

StartChar: five
Encoding: 53 53 24
Width: 1139
GlyphClass: 2
Flags: W
LayerCount: 2
Fore
SplineSet
1062.57 462.3 m 0,0,0
 1062.57 238.97 1062.57 238.97 927.76 109.485 c 0,0,0
 792.95 -20 792.95 -20 555.31 -20 c 0,0,0
 353.36 -20 353.36 -20 230.215 69.135 c 0,0,0
 107.07 158.27 107.07 158.27 75.73 327.21 c 1,0,0
 290.4 348.87 l 1,0,0
 317.09 249.49 317.09 249.49 384.48 200.785 c 0,0,0
 451.87 152.08 451.87 152.08 558.98 152.08 c 0,0,0
 690.78 152.08 690.78 152.08 766.345 232.815 c 0,0,0
 841.91 313.55 841.91 313.55 841.91 457.64 c 0,0,0
 841.91 583.38 841.91 583.38 767.165 660.265 c 0,0,0
 692.42 737.15 692.42 737.15 563.64 737.15 c 0,0,0
 495.59 737.15 495.59 737.15 437.54 714.315 c 0,0,0
 379.49 691.48 379.49 691.48 325.07 639.45 c 1,0,0
 116.73 639.45 l 1,0,0
 164.39 1409 l 1,0,0
 980.57 1409 l 1,0,0
 980.57 1237.52 l 1,0,0
 358.42 1237.52 l 1,0,0
 332.74 820.55 l 1,0,0
 444.79 910.55 444.79 910.55 611.86 910.55 c 0,0,0
 749.21 910.55 749.21 910.55 850.385 854.72 c 0,0,0
 951.56 798.89 951.56 798.89 1007.065 698.24 c 0,0,0
 1062.57 597.59 1062.57 597.59 1062.57 462.3 c 0,0,0
EndSplineSet
EndChar

StartChar: six
Encoding: 54 54 25
Width: 1139
GlyphClass: 2
Flags: W
LayerCount: 2
Fore
SplineSet
1054.28 461 m 0,0,0
 1054.28 237.34 1054.28 237.34 931.63 108.67 c 0,0,0
 808.98 -20 808.98 -20 593.01 -20 c 0,0,0
 351.38 -20 351.38 -20 222.905 156.175 c 0,0,0
 94.43 332.35 94.43 332.35 94.43 672 c 0,0,0
 94.43 1041.63 94.43 1041.63 226.915 1235.815 c 0,0,0
 359.4 1430 359.4 1430 604.7 1430 c 0,0,0
 770.97 1430 770.97 1430 872.46 1355.69 c 0,0,0
 973.95 1281.38 973.95 1281.38 1015.61 1130.79 c 1,0,0
 812.92 1097.81 l 1,0,0
 765.87 1258.92 765.87 1258.92 601.38 1258.92 c 0,0,0
 460.91 1258.92 460.91 1258.92 383.01 1125.485 c 0,0,0
 305.11 992.05 305.11 992.05 305.11 733.91 c 1,0,0
 352.79 819.63 352.79 819.63 438.82 864.655 c 0,0,0
 524.85 909.68 524.85 909.68 635.23 909.68 c 0,0,0
 828.25 909.68 828.25 909.68 941.265 788.34 c 0,0,0
 1054.28 667 1054.28 667 1054.28 461 c 0,0,0
838.61 453 m 0,0,0
 838.61 595.11 838.61 595.11 770.045 671.675 c 0,0,0
 701.48 748.24 701.48 748.24 579.69 748.24 c 0,0,0
 464.58 748.24 464.58 748.24 394.175 679.36 c 0,0,0
 323.77 610.48 323.77 610.48 323.77 491.71 c 0,0,0
 323.77 392.29 323.77 392.29 357.305 314.89 c 0,0,0
 390.84 237.49 390.84 237.49 449.895 193.455 c 0,0,0
 508.95 149.42 508.95 149.42 586.02 149.42 c 0,0,0
 704.47 149.42 704.47 149.42 771.54 230.32 c 0,0,0
 838.61 311.22 838.61 311.22 838.61 453 c 0,0,0
EndSplineSet
EndChar

StartChar: seven
Encoding: 55 55 26
Width: 1139
GlyphClass: 2
Flags: W
LayerCount: 2
Fore
SplineSet
1040.29 1237.59 m 1,0,0
 936.58 1077.54 936.58 1077.54 857.44 944.745 c 0,0,0
 778.3 811.95 778.3 811.95 728.03 701.78 c 0,0,0
 647.61 529.63 647.61 529.63 605.75 357.86 c 0,0,0
 563.89 186.09 563.89 186.09 563.89 0 c 1,0,0
 341.24 0 l 1,0,0
 341.24 146.93 341.24 146.93 372.22 291.43 c 0,0,0
 403.2 435.93 403.2 435.93 471.16 595.26 c 0,0,0
 527.86 729.41 527.86 729.41 616.895 884.515 c 0,0,0
 705.93 1039.62 705.93 1039.62 837.58 1230.26 c 1,0,0
 99.39 1230.26 l 1,0,0
 99.39 1409 l 1,0,0
 1040.29 1409 l 1,0,0
 1040.29 1237.59 l 1,0,0
EndSplineSet
EndChar

StartChar: eight
Encoding: 56 56 27
Width: 1139
GlyphClass: 2
Flags: W
LayerCount: 2
Fore
SplineSet
1058.58 394.32 m 0,0,0
 1058.58 198.33 1058.58 198.33 932.27 89.165 c 0,0,0
 805.96 -20 805.96 -20 570.33 -20 c 0,0,0
 339.38 -20 339.38 -20 210.23 87.66 c 0,0,0
 81.08 195.32 81.08 195.32 81.08 392.32 c 0,0,0
 81.08 529.33 81.08 529.33 159.75 622.835 c 0,0,0
 238.42 716.34 238.42 716.34 364.06 737 c 1,0,0
 364.06 741 l 1,0,0
 249.39 767.34 249.39 767.34 181.735 856.68 c 0,0,0
 114.08 946.02 114.08 946.02 114.08 1065.04 c 0,0,0
 114.08 1230 114.08 1230 235.24 1330 c 0,0,0
 356.4 1430 356.4 1430 566.33 1430 c 0,0,0
 781.26 1430 781.26 1430 902.42 1332.165 c 0,0,0
 1023.58 1234.33 1023.58 1234.33 1023.58 1063.04 c 0,0,0
 1023.58 944.02 1023.58 944.02 955.755 855.01 c 0,0,0
 887.93 766 887.93 766 771.6 743 c 1,0,0
 771.6 739 l 1,0,0
 906.93 717 906.93 717 982.755 625.49 c 0,0,0
 1058.58 533.98 1058.58 533.98 1058.58 394.32 c 0,0,0
802.92 1051.39 m 0,0,0
 802.92 1275.21 802.92 1275.21 566.33 1275.21 c 0,0,0
 332.07 1275.21 332.07 1275.21 332.07 1051.39 c 0,0,0
 332.07 936.99 332.07 936.99 393.145 877.78 c 0,0,0
 454.22 818.57 454.22 818.57 568.33 818.57 c 0,0,0
 683.78 818.57 683.78 818.57 743.35 873.275 c 0,0,0
 802.92 927.98 802.92 927.98 802.92 1051.39 c 0,0,0
837.26 413.3 m 0,0,0
 837.26 537.37 837.26 537.37 766.85 600.24 c 0,0,0
 696.44 663.11 696.44 663.11 565.67 663.11 c 0,0,0
 440.22 663.11 440.22 663.11 370.645 596.065 c 0,0,0
 301.07 529.02 301.07 529.02 301.07 409.3 c 0,0,0
 301.07 271.23 301.07 271.23 368.805 203.51 c 0,0,0
 436.54 135.79 436.54 135.79 572.33 135.79 c 0,0,0
 706.79 135.79 706.79 135.79 772.025 201.835 c 0,0,0
 837.26 267.88 837.26 267.88 837.26 413.3 c 0,0,0
EndSplineSet
EndChar

StartChar: nine
Encoding: 57 57 28
Width: 1139
GlyphClass: 2
Flags: W
LayerCount: 2
Fore
SplineSet
1048.93 731.02 m 0,0,0
 1048.93 364.06 1048.93 364.06 914.945 172.03 c 0,0,0
 780.96 -20 780.96 -20 533.65 -20 c 0,0,0
 361.72 -20 361.72 -20 260.24 52.8 c 0,0,0
 158.76 125.6 158.76 125.6 115.43 286.21 c 1,0,0
 317.79 316.51 l 1,0,0
 366.84 150.08 366.84 150.08 536.65 150.08 c 0,0,0
 679.44 150.08 679.44 150.08 757.345 283.85 c 0,0,0
 835.25 417.62 835.25 417.62 838.59 669.77 c 1,0,0
 799.25 584.72 799.25 584.72 705.715 534.18 c 0,0,0
 612.18 483.64 612.18 483.64 501.46 483.64 c 0,0,0
 376.12 483.64 376.12 483.64 283.11 542.145 c 0,0,0
 190.1 600.65 190.1 600.65 138.925 706.99 c 0,0,0
 87.75 813.33 87.75 813.33 87.75 956.66 c 0,0,0
 87.75 1177.99 87.75 1177.99 213.235 1303.995 c 0,0,0
 338.72 1430 338.72 1430 564.34 1430 c 0,0,0
 805.28 1430 805.28 1430 927.105 1255.505 c 0,0,0
 1048.93 1081.01 1048.93 1081.01 1048.93 731.02 c 0,0,0
819.6 912.61 m 0,0,0
 819.6 1069.74 819.6 1069.74 748.365 1164.66 c 0,0,0
 677.13 1259.58 677.13 1259.58 558.01 1259.58 c 0,0,0
 440.22 1259.58 440.22 1259.58 372.315 1178.01 c 0,0,0
 304.41 1096.44 304.41 1096.44 304.41 956 c 0,0,0
 304.41 814.21 304.41 814.21 372.15 730.98 c 0,0,0
 439.89 647.75 439.89 647.75 557 647.75 c 0,0,0
 629.06 647.75 629.06 647.75 688.455 681.11 c 0,0,0
 747.85 714.47 747.85 714.47 783.725 774.515 c 0,0,0
 819.6 834.56 819.6 834.56 819.6 912.61 c 0,0,0
EndSplineSet
EndChar

StartChar: colon
Encoding: 58 58 29
Width: 606
GlyphClass: 2
Flags: W
LayerCount: 2
Fore
SplineSet
415.99 1066.16 m 1,0,0
 415.99 834.41 l 1,0,0
 190.3 834.41 l 1,0,0
 190.3 1066.16 l 1,0,0
 415.99 1066.16 l 1,0,0
415.99 231.42 m 1,0,0
 415.99 0 l 1,0,0
 190.3 0 l 1,0,0
 190.3 231.42 l 1,0,0
 415.99 231.42 l 1,0,0
EndSplineSet
EndChar

StartChar: semicolon
Encoding: 59 59 30
Width: 606
GlyphClass: 2
Flags: W
LayerCount: 2
Fore
SplineSet
418.66 1066.16 m 1,0,0
 418.66 834.41 l 1,0,0
 192.97 834.41 l 1,0,0
 192.97 1066.16 l 1,0,0
 418.66 1066.16 l 1,0,0
418.66 55.95 m 2,0,0
 418.66 -54.67 418.66 -54.67 397.515 -132.6 c 0,0,0
 376.37 -210.53 376.37 -210.53 330.76 -280.15 c 1,0,0
 187.63 -280.15 l 1,0,0
 240.24 -207.86 240.24 -207.86 267.37 -136.75 c 0,0,0
 294.5 -65.64 294.5 -65.64 294.5 0 c 1,0,0
 192.97 0 l 1,0,0
 192.97 231.42 l 1,0,0
 418.66 231.42 l 1,0,0
 418.66 55.95 l 2,0,0
EndSplineSet
EndChar

StartChar: less
Encoding: 60 60 31
Width: 1196
GlyphClass: 2
Flags: W
LayerCount: 2
Fore
SplineSet
1101.61 321.85 m 1,0,0
 1101.61 144.43 l 1,0,0
 96.05 552.85 l 1,0,0
 96.05 796.46 l 1,0,0
 1101.61 1205.55 l 1,0,0
 1101.61 1027.13 l 1,0,0
 251.86 674.66 l 1,0,0
 1101.61 321.85 l 1,0,0
EndSplineSet
EndChar

StartChar: equal
Encoding: 61 61 32
Width: 1196
GlyphClass: 2
Flags: W
LayerCount: 2
Fore
SplineSet
1100.61 1024.13 m 1,0,0
 1100.61 851.38 l 1,0,0
 95.05 851.38 l 1,0,0
 95.05 1024.13 l 1,0,0
 1100.61 1024.13 l 1,0,0
1100.61 498.6 m 1,0,0
 1100.61 326.51 l 1,0,0
 95.05 326.51 l 1,0,0
 95.05 498.6 l 1,0,0
 1100.61 498.6 l 1,0,0
EndSplineSet
EndChar

StartChar: greater
Encoding: 62 62 33
Width: 1196
GlyphClass: 2
Flags: W
LayerCount: 2
Fore
SplineSet
1101.61 552.85 m 1,0,0
 96.05 144.43 l 1,0,0
 96.05 321.85 l 1,0,0
 945.47 674.66 l 1,0,0
 96.05 1027.13 l 1,0,0
 96.05 1205.55 l 1,0,0
 1101.61 796.46 l 1,0,0
 1101.61 552.85 l 1,0,0
EndSplineSet
EndChar

StartChar: question
Encoding: 63 63 34
Width: 1175
GlyphClass: 2
Flags: W
LayerCount: 2
Fore
SplineSet
1086.1 1030.02 m 0,0,0
 1086.1 922.3 1086.1 922.3 1039.25 843.96 c 0,0,0
 992.4 765.62 992.4 765.62 871.39 677.27 c 2,0,0
 792.71 619.59 l 2,0,0
 654.01 520.23 654.01 520.23 651.36 393.17 c 1,0,0
 446 393.17 l 1,0,0
 449.33 477.25 449.33 477.25 479.025 538.6 c 0,0,0
 508.72 599.95 508.72 599.95 557.235 646.595 c 0,0,0
 605.75 693.24 605.75 693.24 663.04 733.88 c 0,0,0
 724.99 777.85 724.99 777.85 771.845 818.015 c 0,0,0
 818.7 858.18 818.7 858.18 844.735 906.055 c 0,0,0
 870.77 953.93 870.77 953.93 870.77 1020.7 c 0,0,0
 870.77 1126.12 870.77 1126.12 799.87 1187.17 c 0,0,0
 728.97 1248.22 728.97 1248.22 600.19 1248.22 c 0,0,0
 473.06 1248.22 473.06 1248.22 395.515 1181.85 c 0,0,0
 317.97 1115.48 317.97 1115.48 304.63 1001.73 c 1,0,0
 87.3 1013.73 l 1,0,0
 113.63 1213.38 113.63 1213.38 246.93 1321.69 c 0,0,0
 380.23 1430 380.23 1430 597.53 1430 c 0,0,0
 825.15 1430 825.15 1430 955.625 1323.84 c 0,0,0
 1086.1 1217.68 1086.1 1217.68 1086.1 1030.02 c 0,0,0
664.02 223.77 m 1,0,0
 664.02 0 l 1,0,0
 438 0 l 1,0,0
 438 223.77 l 1,0,0
 664.02 223.77 l 1,0,0
EndSplineSet
EndChar

StartChar: at
Encoding: 64 64 35
Width: 2051
GlyphClass: 2
Flags: W
LayerCount: 2
Fore
SplineSet
1894.08 745.1 m 0,0,0
 1894.08 560.42 1894.08 560.42 1835.1 410.42 c 0,0,0
 1775.12 259.75 1775.12 259.75 1669.485 176.925 c 0,0,0
 1563.85 94.1 1563.85 94.1 1435.86 94.1 c 0,0,0
 1339.17 94.1 1339.17 94.1 1286.655 138.595 c 0,0,0
 1234.14 183.09 1234.14 183.09 1234.14 268.78 c 0,0,0
 1234.81 286.44 1234.81 286.44 1235.64 303.945 c 0,0,0
 1236.47 321.45 1236.47 321.45 1238.13 337.79 c 1,0,0
 1232.13 337.79 l 1,0,0
 1171.41 220.73 1171.41 220.73 1073.58 157.415 c 0,0,0
 975.75 94.1 975.75 94.1 866.05 94.1 c 0,0,0
 709.05 94.1 709.05 94.1 622.55 195.935 c 0,0,0
 536.05 297.77 536.05 297.77 536.05 479.1 c 0,0,0
 536.05 641.77 536.05 641.77 601.05 784.43 c 0,0,0
 666.05 926.09 666.05 926.09 781.055 1008.595 c 0,0,0
 896.06 1091.1 896.06 1091.1 1037.39 1091.1 c 0,0,0
 1247.8 1091.1 1247.8 1091.1 1326.18 911.74 c 1,0,0
 1332.18 911.74 l 1,0,0
 1371.18 1069.1 l 1,0,0
 1527.18 1069.1 l 1,0,0
 1410.85 563.1 l 2,0,0
 1373.85 399.13 1373.85 399.13 1373.85 314.39 c 0,0,0
 1373.85 266.4 1373.85 266.4 1395.34 243.725 c 0,0,0
 1416.83 221.05 1416.83 221.05 1453.86 221.05 c 0,0,0
 1534.53 221.05 1534.53 221.05 1603.51 290.38 c 0,0,0
 1673.16 359.38 1673.16 359.38 1712.98 478.895 c 0,0,0
 1752.8 598.41 1752.8 598.41 1752.8 743.1 c 0,0,0
 1752.8 920.44 1752.8 920.44 1676.13 1058.46 c 0,0,0
 1599.46 1195.14 1599.46 1195.14 1454.625 1269.145 c 0,0,0
 1309.79 1343.15 1309.79 1343.15 1116.78 1343.15 c 0,0,0
 876.11 1343.15 876.11 1343.15 690.43 1236.81 c 0,0,0
 505.42 1130.47 505.42 1130.47 399.915 930.125 c 0,0,0
 294.41 729.78 294.41 729.78 294.41 481.1 c 0,0,0
 294.41 287.1 294.41 287.1 373.74 140.44 c 0,0,0
 452.4 -7.56 452.4 -7.56 599.25 -85.405 c 0,0,0
 746.1 -163.25 746.1 -163.25 942.78 -163.25 c 0,0,0
 1088.44 -163.25 1088.44 -163.25 1236.78 -125.255 c 0,0,0
 1385.12 -87.26 1385.12 -87.26 1541.16 -3.56 c 1,0,0
 1598.47 -118.86 l 1,0,0
 1445.88 -208.5 1445.88 -208.5 1279.35 -252.515 c 0,0,0
 1112.82 -296.53 1112.82 -296.53 940.47 -296.53 c 0,0,0
 701.12 -296.53 701.12 -296.53 521.45 -200.53 c 0,0,0
 340.78 -105.53 340.78 -105.53 243.63 72.29 c 0,0,0
 146.48 250.11 146.48 250.11 146.48 481.1 c 0,0,0
 146.48 761.42 146.48 761.42 272.14 991.09 c 0,0,0
 397.47 1220.09 397.47 1220.09 618.795 1347.095 c 0,0,0
 840.12 1474.1 840.12 1474.1 1114.78 1474.1 c 0,0,0
 1356.44 1474.1 1356.44 1474.1 1532.43 1384.1 c 0,0,0
 1708.42 1293.1 1708.42 1293.1 1801.25 1128.1 c 0,0,0
 1894.08 963.1 1894.08 963.1 1894.08 745.1 c 0,0,0
1274.55 738.42 m 0,0,0
 1274.55 838.11 1274.55 838.11 1210.695 899.785 c 0,0,0
 1146.84 961.46 1146.84 961.46 1042.12 961.46 c 0,0,0
 943.43 961.46 943.43 961.46 866.08 898.12 c 0,0,0
 789.07 835.12 789.07 835.12 745.225 721.96 c 0,0,0
 701.38 608.8 701.38 608.8 701.38 481.1 c 0,0,0
 701.38 363.08 701.38 363.08 749.21 295.74 c 0,0,0
 797.04 228.4 797.04 228.4 896.37 228.4 c 0,0,0
 970.41 228.4 970.41 228.4 1038.94 271.235 c 0,0,0
 1107.47 314.07 1107.47 314.07 1160.49 389.05 c 0,0,0
 1197.51 441.38 1197.51 441.38 1222.69 507.555 c 0,0,0
 1247.87 573.73 1247.87 573.73 1261.21 636.075 c 0,0,0
 1274.55 698.42 1274.55 698.42 1274.55 738.42 c 0,0,0
EndSplineSet
EndChar

StartChar: A
Encoding: 65 65 36
Width: 1403
GlyphClass: 2
Flags: W
LayerCount: 2
Fore
SplineSet
399.31 394.84 m 1,0,0
 249.52 0 l 1,0,0
 19.51 0 l 1,0,0
 574.38 1409 l 1,0,0
 834.61 1409 l 1,0,0
 1382.79 0 l 1,0,0
 1155.78 0 l 1,0,0
 1006.66 394.84 l 1,0,0
 399.31 394.84 l 1,0,0
702.82 1240.91 m 1,0,0
 688.13 1190.19 688.13 1190.19 666.445 1125.815 c 0,0,0
 644.76 1061.44 644.76 1061.44 628.72 1019.01 c 2,0,0
 459.95 567.93 l 1,0,0
 946.69 567.93 l 1,0,0
 775.26 1026 l 2,0,0
 761.26 1062.98 761.26 1062.98 741.89 1119.72 c 0,0,0
 722.52 1176.46 722.52 1176.46 702.82 1240.91 c 1,0,0
EndSplineSet
EndChar

StartChar: B
Encoding: 66 66 37
Width: 1403
GlyphClass: 2
Flags: W
LayerCount: 2
Fore
SplineSet
1300.24 398.65 m 0,0,0
 1300.24 209.33 1300.24 209.33 1160.93 104.665 c 0,0,0
 1021.62 0 1021.62 0 773.66 0 c 2,0,0
 157.77 0 l 1,0,0
 157.77 1409 l 1,0,0
 713.66 1409 l 2,0,0
 964.96 1409 964.96 1409 1091.765 1322.18 c 0,0,0
 1218.57 1235.36 1218.57 1235.36 1218.57 1063.04 c 0,0,0
 1218.57 939.69 1218.57 939.69 1149.725 855.515 c 0,0,0
 1080.88 771.34 1080.88 771.34 950.24 742.34 c 1,0,0
 1119.23 722.34 1119.23 722.34 1209.735 631.49 c 0,0,0
 1300.24 540.64 1300.24 540.64 1300.24 398.65 c 0,0,0
991.92 1034.43 m 0,0,0
 991.92 1142.16 991.92 1142.16 919.695 1188.19 c 0,0,0
 847.47 1234.22 847.47 1234.22 709.04 1234.22 c 2,0,0
 383.09 1234.22 l 1,0,0
 383.09 820.23 l 1,0,0
 709.7 820.23 l 2,0,0
 853.46 820.23 853.46 820.23 922.69 873.11 c 0,0,0
 991.92 925.99 991.92 925.99 991.92 1034.43 c 0,0,0
1073.25 416.29 m 0,0,0
 1073.25 648.46 1073.25 648.46 745.03 648.46 c 2,0,0
 383.09 648.46 l 1,0,0
 383.09 174.78 l 1,0,0
 758.71 174.78 l 2,0,0
 922.82 174.78 922.82 174.78 998.035 235.325 c 0,0,0
 1073.25 295.87 1073.25 295.87 1073.25 416.29 c 0,0,0
EndSplineSet
EndChar

StartChar: C
Encoding: 67 67 38
Width: 1479
GlyphClass: 2
Flags: W
LayerCount: 2
Fore
SplineSet
798.35 161.75 m 0,0,0
 1085.11 161.75 1085.11 161.75 1218.93 446.5 c 1,0,0
 1408.26 362.23 l 1,0,0
 1322.58 172.97 1322.58 172.97 1164.09 76.485 c 0,0,0
 1005.6 -20 1005.6 -20 792.32 -20 c 0,0,0
 574.36 -20 574.36 -20 418.71 68.175 c 0,0,0
 263.06 156.35 263.06 156.35 180.23 320.685 c 0,0,0
 97.4 485.02 97.4 485.02 97.4 711 c 0,0,0
 97.4 938.31 97.4 938.31 178.74 1098.98 c 0,0,0
 260.08 1259.65 260.08 1259.65 414.74 1344.825 c 0,0,0
 569.4 1430 569.4 1430 787.36 1430 c 0,0,0
 1019.95 1430 1019.95 1430 1172.6 1338.205 c 0,0,0
 1325.25 1246.41 1325.25 1246.41 1393.61 1066.81 c 1,0,0
 1186.54 1003.18 l 1,0,0
 1142.82 1120.57 1142.82 1120.57 1038.28 1184.745 c 0,0,0
 933.74 1248.92 933.74 1248.92 790.68 1248.92 c 0,0,0
 567.9 1248.92 567.9 1248.92 446.645 1107.165 c 0,0,0
 325.39 965.41 325.39 965.41 325.39 711 c 0,0,0
 325.39 542.3 325.39 542.3 382.27 418.905 c 0,0,0
 439.15 295.51 439.15 295.51 545.05 228.63 c 0,0,0
 650.95 161.75 650.95 161.75 798.35 161.75 c 0,0,0
EndSplineSet
EndChar

StartChar: D
Encoding: 68 68 39
Width: 1479
GlyphClass: 2
Flags: W
LayerCount: 2
Fore
SplineSet
1384.96 717.68 m 0,0,0
 1384.96 493.69 1384.96 493.69 1298.13 333.02 c 0,0,0
 1211.3 172.35 1211.3 172.35 1056.8 86.175 c 0,0,0
 902.3 0 902.3 0 698.96 0 c 2,0,0
 157.77 0 l 1,0,0
 157.77 1409 l 1,0,0
 638.29 1409 l 2,0,0
 995.63 1409 995.63 1409 1190.295 1229.5 c 0,0,0
 1384.96 1050 1384.96 1050 1384.96 717.68 c 0,0,0
1158.31 717.68 m 0,0,0
 1158.31 968.13 1158.31 968.13 1023.225 1099.69 c 0,0,0
 888.14 1231.25 888.14 1231.25 633.63 1231.25 c 2,0,0
 383.09 1231.25 l 1,0,0
 383.09 177.75 l 1,0,0
 675.97 177.75 l 2,0,0
 823.07 177.75 823.07 177.75 930.98 243.615 c 0,0,0
 1038.89 309.48 1038.89 309.48 1098.6 430.54 c 0,0,0
 1158.31 551.6 1158.31 551.6 1158.31 717.68 c 0,0,0
EndSplineSet
EndChar

StartChar: E
Encoding: 69 69 40
Width: 1366
GlyphClass: 2
Flags: W
LayerCount: 2
Fore
SplineSet
1280.64 179.76 m 1,0,0
 1280.64 0 l 1,0,0
 157.77 0 l 1,0,0
 157.77 1409 l 1,0,0
 1239.64 1409 l 1,0,0
 1239.64 1229.24 l 1,0,0
 383.09 1229.24 l 1,0,0
 383.09 809.58 l 1,0,0
 1179.31 809.58 l 1,0,0
 1179.31 631.16 l 1,0,0
 383.09 631.16 l 1,0,0
 383.09 179.76 l 1,0,0
 1280.64 179.76 l 1,0,0
EndSplineSet
EndChar

StartChar: F
Encoding: 70 70 41
Width: 1251
GlyphClass: 2
Flags: W
LayerCount: 2
Fore
SplineSet
383.09 553.18 m 1,0,0
 383.09 0 l 1,0,0
 157.77 0 l 1,0,0
 157.77 1409 l 1,0,0
 1171.31 1409 l 1,0,0
 1171.31 1229.24 l 1,0,0
 383.09 1229.24 l 1,0,0
 383.09 734.28 l 1,0,0
 1147.64 734.28 l 1,0,0
 1147.64 553.18 l 1,0,0
 383.09 553.18 l 1,0,0
EndSplineSet
EndChar

StartChar: G
Encoding: 71 71 42
Width: 1593
GlyphClass: 2
Flags: W
LayerCount: 2
Fore
SplineSet
810.69 160.08 m 0,0,0
 941.1 160.08 941.1 160.08 1056.805 199.275 c 0,0,0
 1172.51 238.47 1172.51 238.47 1241.56 303.87 c 1,0,0
 1241.56 538.4 l 1,0,0
 845.97 538.4 l 1,0,0
 845.97 717.54 l 1,0,0
 1448.58 717.54 l 1,0,0
 1448.58 220.98 l 1,0,0
 1336.58 106.65 1336.58 106.65 1168.47 43.325 c 0,0,0
 1000.36 -20 1000.36 -20 808.05 -20 c 0,0,0
 585.08 -20 585.08 -20 425.915 67.845 c 0,0,0
 266.75 155.69 266.75 155.69 181.74 319.86 c 0,0,0
 96.73 484.03 96.73 484.03 96.73 711 c 0,0,0
 96.73 1055.65 96.73 1055.65 281.39 1242.825 c 0,0,0
 466.05 1430 466.05 1430 804.33 1430 c 0,0,0
 1042.95 1430 1042.95 1430 1192.91 1346.875 c 0,0,0
 1342.87 1263.75 1342.87 1263.75 1417.91 1086.45 c 1,0,0
 1206.21 1023.21 l 1,0,0
 1151.49 1138.92 1151.49 1138.92 1049.785 1193.92 c 0,0,0
 948.08 1248.92 948.08 1248.92 800.98 1248.92 c 0,0,0
 568.86 1248.92 568.86 1248.92 446.79 1108.515 c 0,0,0
 324.72 968.11 324.72 968.11 324.72 711 c 0,0,0
 324.72 453.24 324.72 453.24 453.305 306.66 c 0,0,0
 581.89 160.08 581.89 160.08 810.69 160.08 c 0,0,0
EndSplineSet
EndChar

StartChar: H
Encoding: 72 72 43
Width: 1479
GlyphClass: 2
Flags: W
LayerCount: 2
Fore
SplineSet
383.09 636.83 m 1,0,0
 383.09 0 l 1,0,0
 157.77 0 l 1,0,0
 157.77 1409 l 1,0,0
 383.09 1409 l 1,0,0
 383.09 824.55 l 1,0,0
 1096.25 824.55 l 1,0,0
 1096.25 1409 l 1,0,0
 1321.57 1409 l 1,0,0
 1321.57 0 l 1,0,0
 1096.25 0 l 1,0,0
 1096.25 636.83 l 1,0,0
 383.09 636.83 l 1,0,0
EndSplineSet
EndChar

StartChar: I
Encoding: 73 73 44
Width: 569
GlyphClass: 2
Flags: W
LayerCount: 2
Fore
SplineSet
397.16 1409 m 1,0,0
 397.16 0 l 1,0,0
 171.84 0 l 1,0,0
 171.84 1409 l 1,0,0
 397.16 1409 l 1,0,0
EndSplineSet
EndChar

StartChar: J
Encoding: 74 74 45
Width: 1061
GlyphClass: 2
Flags: W
LayerCount: 2
Fore
SplineSet
479.11 -20 m 0,0,0
 286.91 -20 286.91 -20 177.115 73.325 c 0,0,0
 67.32 166.65 67.32 166.65 31.67 360.56 c 1,0,0
 253.65 395.52 l 1,0,0
 271.65 281.83 271.65 281.83 330.03 220.955 c 0,0,0
 388.41 160.08 388.41 160.08 480.44 160.08 c 0,0,0
 579.16 160.08 579.16 160.08 634.375 227.455 c 0,0,0
 689.59 294.83 689.59 294.83 689.59 423.59 c 2,0,0
 689.59 1409 l 1,0,0
 913.91 1409 l 1,0,0
 913.91 428.58 l 2,0,0
 913.91 218.63 913.91 218.63 798.29 99.315 c 0,0,0
 682.67 -20 682.67 -20 479.11 -20 c 0,0,0
EndSplineSet
EndChar

StartChar: K
Encoding: 75 75 46
Width: 1403
GlyphClass: 2
Flags: W
LayerCount: 2
Fore
SplineSet
383.09 531.42 m 1,0,0
 383.09 0 l 1,0,0
 157.77 0 l 1,0,0
 157.77 1409 l 1,0,0
 383.09 1409 l 1,0,0
 383.09 725.11 l 1,0,0
 1047.57 1409 l 1,0,0
 1311.84 1409 l 1,0,0
 711.18 802.28 l 1,0,0
 1381.61 0 l 1,0,0
 1107.98 0 l 1,0,0
 563.79 669.11 l 1,0,0
 383.09 531.42 l 1,0,0
EndSplineSet
EndChar

StartChar: L
Encoding: 76 76 47
Width: 1175
GlyphClass: 2
Flags: W
LayerCount: 2
Fore
SplineSet
1109.61 179.76 m 1,0,0
 1109.61 0 l 1,0,0
 157.77 0 l 1,0,0
 157.77 1409 l 1,0,0
 383.09 1409 l 1,0,0
 383.09 179.76 l 1,0,0
 1109.61 179.76 l 1,0,0
EndSplineSet
EndChar

StartChar: M
Encoding: 77 77 48
Width: 1706
GlyphClass: 2
Flags: W
LayerCount: 2
Fore
SplineSet
358.13 911.62 m 2,0,0
 358.13 0 l 1,0,0
 157.77 0 l 1,0,0
 157.77 1409 l 1,0,0
 456.29 1409 l 1,0,0
 790.7 494.37 l 2,0,0
 809.71 433.06 809.71 433.06 828.045 365.89 c 0,0,0
 846.38 298.72 846.38 298.72 856.01 256.84 c 1,0,0
 863.66 287.47 863.66 287.47 876.34 331.67 c 0,0,0
 889.02 375.87 889.02 375.87 901.865 417.89 c 0,0,0
 914.71 459.91 914.71 459.91 922.36 481.5 c 2,0,0
 1254.39 1409 l 1,0,0
 1548.23 1409 l 1,0,0
 1548.23 0 l 1,0,0
 1346.53 0 l 1,0,0
 1346.53 911.62 l 2,0,0
 1346.53 973.45 1346.53 973.45 1349.03 1052.575 c 0,0,0
 1351.53 1131.7 1351.53 1131.7 1355.86 1213.93 c 1,0,0
 1327.56 1110.08 1327.56 1110.08 1304.41 1031.825 c 0,0,0
 1281.26 953.57 1281.26 953.57 1262.25 902.58 c 2,0,0
 934.55 0 l 1,0,0
 775.47 0 l 1,0,0
 444.42 902.58 l 1,0,0
 349.48 1213.93 l 1,0,0
 352.8 1125.4 352.8 1125.4 355.465 1049.905 c 0,0,0
 358.13 974.41 358.13 974.41 358.13 911.62 c 2,0,0
EndSplineSet
EndChar

StartChar: N
Encoding: 78 78 49
Width: 1479
GlyphClass: 2
Flags: W
LayerCount: 2
Fore
SplineSet
358.13 901.35 m 2,0,0
 358.13 0 l 1,0,0
 157.77 0 l 1,0,0
 157.77 1409 l 1,0,0
 417.72 1409 l 1,0,0
 1133.85 238.62 l 1,0,0
 1119.87 420.77 1119.87 420.77 1119.87 519.65 c 2,0,0
 1119.87 1409 l 1,0,0
 1321.57 1409 l 1,0,0
 1321.57 0 l 1,0,0
 1053.29 0 l 1,0,0
 345.49 1162.05 l 1,0,0
 349.8 1091.76 349.8 1091.76 353.965 1026.585 c 0,0,0
 358.13 961.41 358.13 961.41 358.13 901.35 c 2,0,0
EndSplineSet
EndChar

StartChar: O
Encoding: 79 79 50
Width: 1593
GlyphClass: 2
Flags: W
LayerCount: 2
Fore
SplineSet
1498.96 711 m 0,0,0
 1498.96 486.98 1498.96 486.98 1412.47 322.815 c 0,0,0
 1325.98 158.65 1325.98 158.65 1167.825 69.325 c 0,0,0
 1009.67 -20 1009.67 -20 794.34 -20 c 0,0,0
 576.69 -20 576.69 -20 419.365 68.165 c 0,0,0
 262.04 156.33 262.04 156.33 177.375 320.33 c 0,0,0
 92.71 484.33 92.71 484.33 92.71 711 c 0,0,0
 92.71 937 92.71 937 176.54 1097.665 c 0,0,0
 260.37 1258.33 260.37 1258.33 417.86 1344.165 c 0,0,0
 575.35 1430 575.35 1430 796.34 1430 c 0,0,0
 1014.98 1430 1014.98 1430 1172.305 1344.505 c 0,0,0
 1329.63 1259.01 1329.63 1259.01 1414.295 1098.345 c 0,0,0
 1498.96 937.68 1498.96 937.68 1498.96 711 c 0,0,0
1268.98 711 m 0,0,0
 1268.98 962.45 1268.98 962.45 1145.235 1105.685 c 0,0,0
 1021.49 1248.92 1021.49 1248.92 796.34 1248.92 c 0,0,0
 568.86 1248.92 568.86 1248.92 444.78 1107.355 c 0,0,0
 320.7 965.79 320.7 965.79 320.7 711 c 0,0,0
 320.7 542.26 320.7 542.26 377.4 418.535 c 0,0,0
 434.1 294.81 434.1 294.81 540.335 227.61 c 0,0,0
 646.57 160.41 646.57 160.41 794.34 160.41 c 0,0,0
 1023.16 160.41 1023.16 160.41 1146.07 304.145 c 0,0,0
 1268.98 447.88 1268.98 447.88 1268.98 711 c 0,0,0
EndSplineSet
EndChar

StartChar: P
Encoding: 80 80 51
Width: 1366
GlyphClass: 2
Flags: W
LayerCount: 2
Fore
SplineSet
1270.54 977.74 m 0,0,0
 1270.54 843.42 1270.54 843.42 1210.385 742.945 c 0,0,0
 1150.23 642.47 1150.23 642.47 1039.585 586.99 c 0,0,0
 928.94 531.51 928.94 531.51 775.97 531.51 c 2,0,0
 383.09 531.51 l 1,0,0
 383.09 0 l 1,0,0
 157.77 0 l 1,0,0
 157.77 1409 l 1,0,0
 763.97 1409 l 2,0,0
 1006.25 1409 1006.25 1409 1138.395 1296.185 c 0,0,0
 1270.54 1183.37 1270.54 1183.37 1270.54 977.74 c 0,0,0
1043.89 974.75 m 0,0,0
 1043.89 1230.92 1043.89 1230.92 737.67 1230.92 c 2,0,0
 383.09 1230.92 l 1,0,0
 383.09 707.59 l 1,0,0
 745.67 707.59 l 2,0,0
 893.13 707.59 893.13 707.59 968.51 774.79 c 0,0,0
 1043.89 841.99 1043.89 841.99 1043.89 974.75 c 0,0,0
EndSplineSet
EndChar

StartChar: Q
Encoding: 81 81 52
Width: 1593
GlyphClass: 2
Flags: W
LayerCount: 2
Fore
SplineSet
1498.96 711 m 0,0,0
 1498.96 516.3 1498.96 516.3 1433.11 365.28 c 0,0,0
 1367.26 214.26 1367.26 214.26 1243.56 119.43 c 0,0,0
 1119.86 24.6 1119.86 24.6 946.15 -2.7 c 1,0,0
 984.84 -119.79 984.84 -119.79 1049.69 -171.83 c 0,0,0
 1114.54 -223.87 1114.54 -223.87 1219.51 -223.87 c 0,0,0
 1278.16 -223.87 1278.16 -223.87 1335.83 -211.86 c 1,0,0
 1335.17 -368.3 l 1,0,0
 1233.28 -392.28 1233.28 -392.28 1136.05 -392.28 c 0,0,0
 981.09 -392.28 981.09 -392.28 880.455 -304.965 c 0,0,0
 779.82 -217.65 779.82 -217.65 716.83 -14.02 c 1,0,0
 518.79 -1.38 518.79 -1.38 379.43 90.62 c 0,0,0
 240.07 182.62 240.07 182.62 166.39 341.135 c 0,0,0
 92.71 499.65 92.71 499.65 92.71 711 c 0,0,0
 92.71 937 92.71 937 176.54 1097.665 c 0,0,0
 260.37 1258.33 260.37 1258.33 417.86 1344.165 c 0,0,0
 575.35 1430 575.35 1430 796.34 1430 c 0,0,0
 1019 1430 1019 1430 1175.99 1342.83 c 0,0,0
 1332.98 1255.66 1332.98 1255.66 1415.97 1094.66 c 0,0,0
 1498.96 933.66 1498.96 933.66 1498.96 711 c 0,0,0
1268.98 711 m 0,0,0
 1268.98 962.45 1268.98 962.45 1145.235 1105.685 c 0,0,0
 1021.49 1248.92 1021.49 1248.92 796.34 1248.92 c 0,0,0
 568.86 1248.92 568.86 1248.92 444.78 1107.355 c 0,0,0
 320.7 965.79 320.7 965.79 320.7 711 c 0,0,0
 320.7 542.26 320.7 542.26 377.235 418.37 c 0,0,0
 433.77 294.48 433.77 294.48 540.005 227.28 c 0,0,0
 646.24 160.08 646.24 160.08 794.34 160.08 c 0,0,0
 1023.16 160.08 1023.16 160.08 1146.07 303.815 c 0,0,0
 1268.98 447.55 1268.98 447.55 1268.98 711 c 0,0,0
EndSplineSet
EndChar

StartChar: R
Encoding: 82 82 53
Width: 1479
GlyphClass: 2
Flags: W
LayerCount: 2
Fore
SplineSet
383.09 568.5 m 1,0,0
 383.09 0 l 1,0,0
 157.77 0 l 1,0,0
 157.77 1409 l 1,0,0
 834.3 1409 l 2,0,0
 1076.92 1409 1076.92 1409 1208.895 1301.84 c 0,0,0
 1340.87 1194.68 1340.87 1194.68 1340.87 1000.39 c 0,0,0
 1340.87 846.36 1340.87 846.36 1251.845 739.195 c 0,0,0
 1162.82 632.03 1162.82 632.03 1007.76 602.05 c 1,0,0
 1401.49 0 l 1,0,0
 1144.53 0 l 1,0,0
 791.4 568.5 l 1,0,0
 383.09 568.5 l 1,0,0
1114.22 995.09 m 0,0,0
 1114.22 1110.83 1114.22 1110.83 1036.825 1170.875 c 0,0,0
 959.43 1230.92 959.43 1230.92 811.34 1230.92 c 2,0,0
 383.09 1230.92 l 1,0,0
 383.09 745.24 l 1,0,0
 819.34 745.24 l 2,0,0
 961.43 745.24 961.43 745.24 1037.825 810.955 c 0,0,0
 1114.22 876.67 1114.22 876.67 1114.22 995.09 c 0,0,0
EndSplineSet
EndChar

StartChar: S
Encoding: 83 83 54
Width: 1366
GlyphClass: 2
Flags: W
LayerCount: 2
Fore
SplineSet
1276.62 394.61 m 0,0,0
 1276.62 195.65 1276.62 195.65 1123.79 87.825 c 0,0,0
 970.96 -20 970.96 -20 687.36 -20 c 0,0,0
 165.76 -20 165.76 -20 81.78 347.57 c 1,0,0
 299.78 387.87 l 1,0,0
 330.79 265.82 330.79 265.82 428.19 209.29 c 0,0,0
 525.59 152.76 525.59 152.76 694.69 152.76 c 0,0,0
 869.79 152.76 869.79 152.76 962.535 210.815 c 0,0,0
 1055.28 268.87 1055.28 268.87 1055.28 382.3 c 0,0,0
 1055.28 448.33 1055.28 448.33 1022.625 490.01 c 0,0,0
 989.97 531.69 989.97 531.69 930.33 559.03 c 0,0,0
 881.58 582.08 881.58 582.08 808.19 599.925 c 0,0,0
 734.8 617.77 734.8 617.77 640.12 638.78 c 0,0,0
 530.77 663.78 530.77 663.78 461.055 685.635 c 0,0,0
 391.34 707.49 391.34 707.49 347.3 730.69 c 0,0,0
 303.26 753.89 303.26 753.89 269.26 780.59 c 0,0,0
 211.01 826.26 211.01 826.26 179.395 891.88 c 0,0,0
 147.78 957.5 147.78 957.5 147.78 1047.39 c 0,0,0
 147.78 1231.69 147.78 1231.69 287.93 1330.845 c 0,0,0
 428.08 1430 428.08 1430 691.36 1430 c 0,0,0
 938.62 1430 938.62 1430 1067.105 1353.695 c 0,0,0
 1195.59 1277.39 1195.59 1277.39 1242.3 1096.43 c 1,0,0
 1021.96 1061.45 l 1,0,0
 993.93 1166.52 993.93 1166.52 913.365 1215.535 c 0,0,0
 832.8 1264.55 832.8 1264.55 688.04 1264.55 c 0,0,0
 530.59 1264.55 530.59 1264.55 448.85 1213.17 c 0,0,0
 367.11 1161.79 367.11 1161.79 367.11 1059.7 c 0,0,0
 367.11 998 367.11 998 399.63 957.975 c 0,0,0
 432.15 917.95 432.15 917.95 494.18 890.27 c 0,0,0
 552.54 862.92 552.54 862.92 742.62 821.23 c 0,0,0
 830.22 801.24 830.22 801.24 907.24 781.07 c 0,0,0
 984.26 760.9 984.26 760.9 1045.68 734.19 c 0,0,0
 1087.67 716.53 1087.67 716.53 1124.18 693.185 c 0,0,0
 1160.69 669.84 1160.69 669.84 1187.7 640.48 c 0,0,0
 1229.99 596.17 1229.99 596.17 1253.305 535.705 c 0,0,0
 1276.62 475.24 1276.62 475.24 1276.62 394.61 c 0,0,0
EndSplineSet
EndChar

StartChar: T
Encoding: 84 84 55
Width: 1251
GlyphClass: 2
Flags: W
LayerCount: 2
Fore
SplineSet
737.49 1229.24 m 1,0,0
 737.49 0 l 1,0,0
 512.84 0 l 1,0,0
 512.84 1229.24 l 1,0,0
 38.41 1229.24 l 1,0,0
 38.41 1409 l 1,0,0
 1212.25 1409 l 1,0,0
 1212.25 1229.24 l 1,0,0
 737.49 1229.24 l 1,0,0
EndSplineSet
EndChar

StartChar: U
Encoding: 85 85 56
Width: 1479
GlyphClass: 2
Flags: W
LayerCount: 2
Fore
SplineSet
728.36 -20 m 0,0,0
 548.43 -20 548.43 -20 417.78 43.835 c 0,0,0
 287.13 107.67 287.13 107.67 216.79 227.825 c 0,0,0
 146.45 347.98 146.45 347.98 146.45 517.28 c 2,0,0
 146.45 1409 l 1,0,0
 371.77 1409 l 1,0,0
 371.77 535.59 l 2,0,0
 371.77 351.17 371.77 351.17 463.665 255.625 c 0,0,0
 555.56 160.08 555.56 160.08 730.33 160.08 c 0,0,0
 909.77 160.08 909.77 160.08 1008.505 259.29 c 0,0,0
 1107.24 358.5 1107.24 358.5 1107.24 547.6 c 2,0,0
 1107.24 1409 l 1,0,0
 1331.89 1409 l 1,0,0
 1331.89 534.29 l 2,0,0
 1331.89 360.98 1331.89 360.98 1258.73 236.99 c 0,0,0
 1185.57 113 1185.57 113 1050.265 46.5 c 0,0,0
 914.96 -20 914.96 -20 728.36 -20 c 0,0,0
EndSplineSet
EndChar

StartChar: V
Encoding: 86 86 57
Width: 1366
GlyphClass: 2
Flags: W
LayerCount: 2
Fore
SplineSet
1355.35 1409 m 1,0,0
 799.16 0 l 1,0,0
 567.83 0 l 1,0,0
 10.65 1409 l 1,0,0
 246.96 1409 l 1,0,0
 603.96 445.71 l 2,0,0
 624.66 390.32 624.66 390.32 643.83 326.165 c 0,0,0
 663 262.01 663 262.01 684.66 191.1 c 1,0,0
 708.95 273.89 708.95 273.89 728.475 337.93 c 0,0,0
 748 401.97 748 401.97 764.7 445.71 c 2,0,0
 1120.03 1409 l 1,0,0
 1355.35 1409 l 1,0,0
EndSplineSet
EndChar

StartChar: W
Encoding: 87 87 58
Width: 1933
GlyphClass: 2
Flags: W
LayerCount: 2
Fore
SplineSet
900.96 871.52 m 2,0,0
 672.79 0 l 1,0,0
 404.53 0 l 1,0,0
 6.69 1409 l 1,0,0
 238.69 1409 l 1,0,0
 472.88 524.56 l 2,0,0
 492.58 450.13 492.58 450.13 511.43 368.415 c 0,0,0
 530.28 286.7 530.28 286.7 546.31 204.63 c 1,0,0
 554.97 244.93 554.97 244.93 566.82 300.15 c 0,0,0
 578.67 355.37 578.67 355.37 591.69 411.935 c 0,0,0
 604.71 468.5 604.71 468.5 616.05 511.5 c 2,0,0
 853.24 1409 l 1,0,0
 1084.75 1409 l 1,0,0
 1313.91 546.52 l 2,0,0
 1335.97 460.97 1335.97 460.97 1355.495 373.265 c 0,0,0
 1375.02 285.56 1375.02 285.56 1390.03 204.63 c 1,0,0
 1404.37 263.3 1404.37 263.3 1418.89 323.88 c 0,0,0
 1446.59 437 l 0,0,0
 1459.77 489.54 1459.77 489.54 1467.75 524.43 c 2,0,0
 1695.65 1409 l 1,0,0
 1927.65 1409 l 1,0,0
 1529.48 0 l 1,0,0
 1261.22 0 l 1,0,0
 1034.71 868.6 l 2,0,0
 1021.06 920.5 1021.06 920.5 1004.385 995.5 c 0,0,0
 987.71 1070.5 987.71 1070.5 968.34 1169.6 c 1,0,0
 959.67 1119.9 959.67 1119.9 945.995 1059.555 c 0,0,0
 932.32 999.21 932.32 999.21 919.81 947.87 c 0,0,0
 907.3 896.53 907.3 896.53 900.96 871.52 c 2,0,0
EndSplineSet
EndChar

StartChar: X
Encoding: 88 88 59
Width: 1366
GlyphClass: 2
Flags: W
LayerCount: 2
Fore
SplineSet
687.35 597.85 m 1,0,0
 281.09 0 l 1,0,0
 36.76 0 l 1,0,0
 556.92 734.97 l 1,0,0
 77.76 1409 l 1,0,0
 322.09 1409 l 1,0,0
 688.02 874.15 l 1,0,0
 1046.58 1409 l 1,0,0
 1290.25 1409 l 1,0,0
 826.07 739.66 l 1,0,0
 1331.25 0 l 1,0,0
 1087.58 0 l 1,0,0
 687.35 597.85 l 1,0,0
EndSplineSet
EndChar

StartChar: Y
Encoding: 89 89 60
Width: 1366
GlyphClass: 2
Flags: W
LayerCount: 2
Fore
SplineSet
794.82 582.02 m 1,0,0
 794.82 0 l 1,0,0
 570.5 0 l 1,0,0
 570.5 582.02 l 1,0,0
 41.7 1409 l 1,0,0
 284.37 1409 l 1,0,0
 683.34 762.75 l 1,0,0
 1082.29 1409 l 1,0,0
 1324.96 1409 l 1,0,0
 794.82 582.02 l 1,0,0
EndSplineSet
EndChar

StartChar: Z
Encoding: 90 90 61
Width: 1251
GlyphClass: 2
Flags: W
LayerCount: 2
Fore
SplineSet
1188.65 180.75 m 1,0,0
 1188.65 0 l 1,0,0
 63.68 0 l 1,0,0
 63.68 164.78 l 1,0,0
 890 1228.25 l 1,0,0
 137.67 1228.25 l 1,0,0
 137.67 1409 l 1,0,0
 1143.63 1409 l 1,0,0
 1143.63 1248.22 l 1,0,0
 317.31 180.75 l 1,0,0
 1188.65 180.75 l 1,0,0
EndSplineSet
EndChar

StartChar: bracketleft
Encoding: 91 91 62
Width: 606
GlyphClass: 2
Flags: W
LayerCount: 2
Fore
SplineSet
587.32 -275.54 m 1,0,0
 587.32 -425 l 1,0,0
 135.77 -425 l 1,0,0
 135.77 1484 l 1,0,0
 587.32 1484 l 1,0,0
 587.32 1334.87 l 1,0,0
 340.13 1334.87 l 1,0,0
 340.13 -275.54 l 1,0,0
 587.32 -275.54 l 1,0,0
EndSplineSet
EndChar

StartChar: backslash
Encoding: 92 92 63
Width: 569
GlyphClass: 2
Flags: W
LayerCount: 2
Fore
SplineSet
191.33 1484.33 m 1,0,0
 562.73 -26.93 l 1,0,0
 374 -26.93 l 1,0,0
 6.93 1484.33 l 1,0,0
 191.33 1484.33 l 1,0,0
EndSplineSet
EndChar

StartChar: bracketright
Encoding: 93 93 64
Width: 606
GlyphClass: 2
Flags: W
LayerCount: 2
Fore
SplineSet
470.52 1484 m 1,0,0
 470.52 -425 l 1,0,0
 18.97 -425 l 1,0,0
 18.97 -275.54 l 1,0,0
 266.82 -275.54 l 1,0,0
 266.82 1334.87 l 1,0,0
 18.97 1334.87 l 1,0,0
 18.97 1484 l 1,0,0
 470.52 1484 l 1,0,0
EndSplineSet
EndChar

StartChar: asciicircum
Encoding: 94 94 65
Width: 1038
GlyphClass: 2
Flags: W
LayerCount: 2
Fore
SplineSet
21.55 620.53 m 1,0,0
 397.14 1409 l 1,0,0
 639.41 1409 l 1,0,0
 1017 620.53 l 1,0,0
 831.55 620.53 l 1,0,0
 516.94 1292.8 l 1,0,0
 205 620.53 l 1,0,0
 21.55 620.53 l 1,0,0
EndSplineSet
EndChar

StartChar: underscore
Encoding: 95 95 66
Width: 1139
GlyphClass: 2
Flags: W
LayerCount: 2
Fore
SplineSet
1160.35 -242.35 m 1,0,0
 1160.35 -355.19 l 1,0,0
 -27.37 -355.19 l 1,0,0
 -27.37 -242.35 l 1,0,0
 1160.35 -242.35 l 1,0,0
EndSplineSet
EndChar

StartChar: grave
Encoding: 96 96 67
Width: 682
GlyphClass: 2
Flags: W
LayerCount: 2
Fore
SplineSet
544.85 1218.69 m 1,0,0
 544.85 1195.06 l 1,0,0
 426.1 1195.06 l 1,0,0
 92.8 1472.4 l 1,0,0
 92.8 1506.02 l 1,0,0
 316.63 1506.02 l 1,0,0
 544.85 1218.69 l 1,0,0
EndSplineSet
EndChar

StartChar: a
Encoding: 97 97 68
Width: 1139
GlyphClass: 2
Flags: W
LayerCount: 2
Fore
SplineSet
407.07 -20 m 0,0,0
 246.05 -20 246.05 -20 162.07 65.835 c 0,0,0
 78.09 151.67 78.09 151.67 78.09 303.32 c 0,0,0
 78.09 471.32 78.09 471.32 188.26 560.33 c 0,0,0
 298.43 649.34 298.43 649.34 531.89 654.68 c 2,0,0
 771.59 658.68 l 1,0,0
 771.59 716.36 l 2,0,0
 771.59 839.78 771.59 839.78 721.86 894.965 c 0,0,0
 672.13 950.15 672.13 950.15 564.01 950.15 c 0,0,0
 457.2 950.15 457.2 950.15 408.305 910.965 c 0,0,0
 359.41 871.78 359.41 871.78 349.07 784.42 c 1,0,0
 126.42 800.43 l 1,0,0
 175.39 1102 175.39 1102 570.65 1102 c 0,0,0
 774.98 1102 774.98 1102 880.62 1006.025 c 0,0,0
 986.26 910.05 986.26 910.05 986.26 730.08 c 2,0,0
 986.26 287.84 l 2,0,0
 986.26 204.21 986.26 204.21 1007.095 165.69 c 0,0,0
 1027.93 127.17 1027.93 127.17 1083.3 127.17 c 0,0,0
 1112.62 127.17 1112.62 127.17 1143.29 133.84 c 1,0,0
 1143.29 8.64 l 1,0,0
 1103.35 -1.01 1103.35 -1.01 1067.69 -5.835 c 0,0,0
 1032.03 -10.66 1032.03 -10.66 990.76 -10.66 c 0,0,0
 888.78 -10.66 888.78 -10.66 841.63 41.675 c 0,0,0
 794.48 94.01 794.48 94.01 787.16 202.38 c 1,0,0
 781.16 202.38 l 1,0,0
 715.46 84.32 715.46 84.32 624.785 32.16 c 0,0,0
 534.11 -20 534.11 -20 407.07 -20 c 0,0,0
771.59 523.11 m 1,0,0
 592.08 519.77 l 2,0,0
 474.99 517.45 474.99 517.45 417.57 495.42 c 0,0,0
 359.82 473.4 359.82 473.4 329.275 428.02 c 0,0,0
 298.73 382.64 298.73 382.64 298.73 308.57 c 0,0,0
 298.73 224.2 298.73 224.2 342.27 179.665 c 0,0,0
 385.81 135.13 385.81 135.13 464.24 135.13 c 0,0,0
 553.02 135.13 553.02 135.13 622.09 177.16 c 0,0,0
 691.5 219.19 691.5 219.19 731.545 292.74 c 0,0,0
 771.59 366.29 771.59 366.29 771.59 445.33 c 2,0,0
 771.59 523.11 l 1,0,0
EndSplineSet
EndChar

StartChar: b
Encoding: 98 98 69
Width: 1175
GlyphClass: 2
Flags: W
LayerCount: 2
Fore
SplineSet
1090.62 545.67 m 0,0,0
 1090.62 267.62 1090.62 267.62 988.48 123.81 c 0,0,0
 886.34 -20 886.34 -20 687.01 -20 c 0,0,0
 566.65 -20 566.65 -20 484.325 26.315 c 0,0,0
 402 72.63 402 72.63 352.98 169.98 c 1,0,0
 350.98 169.98 l 1,0,0
 350.98 148.99 350.98 148.99 348.98 111.32 c 0,0,0
 346.98 73.65 346.98 73.65 344.65 41.15 c 0,0,0
 342.32 8.65 342.32 8.65 339.66 0 c 1,0,0
 132.99 0 l 1,0,0
 136.32 33.6 136.32 33.6 137.985 91.08 c 0,0,0
 139.65 148.56 139.65 148.56 139.65 230.92 c 2,0,0
 139.65 1484 l 1,0,0
 352.98 1484 l 1,0,0
 352.98 1063.97 l 2,0,0
 352.98 1028.01 352.98 1028.01 351.815 987.695 c 0,0,0
 350.65 947.38 350.65 947.38 348.98 903.38 c 1,0,0
 352.98 903.38 l 1,0,0
 401.99 1007.38 401.99 1007.38 485.975 1054.69 c 0,0,0
 569.96 1102 569.96 1102 692.95 1102 c 0,0,0
 893.66 1102 893.66 1102 992.14 961.525 c 0,0,0
 1090.62 821.05 1090.62 821.05 1090.62 545.67 c 0,0,0
867.3 541.65 m 0,0,0
 867.3 754.46 867.3 754.46 809.28 849.49 c 0,0,0
 751.26 944.52 751.26 944.52 623.52 944.52 c 0,0,0
 484.06 944.52 484.06 944.52 417.86 843.325 c 0,0,0
 351.66 742.13 351.66 742.13 351.66 531.31 c 0,0,0
 351.66 331.84 351.66 331.84 416.525 232.155 c 0,0,0
 481.39 132.47 481.39 132.47 621.52 132.47 c 0,0,0
 749.6 132.47 749.6 132.47 808.45 230.495 c 0,0,0
 867.3 328.52 867.3 328.52 867.3 541.65 c 0,0,0
EndSplineSet
EndChar

StartChar: c
Encoding: 99 99 70
Width: 1061
GlyphClass: 2
Flags: W
LayerCount: 2
Fore
SplineSet
566.53 -20 m 0,0,0
 333.26 -20 333.26 -20 208.975 124.49 c 0,0,0
 84.69 268.98 84.69 268.98 84.69 539.69 c 0,0,0
 84.69 811.04 84.69 811.04 209.64 956.52 c 0,0,0
 334.59 1102 334.59 1102 566.51 1102 c 0,0,0
 740.76 1102 740.76 1102 855.375 1012.7 c 0,0,0
 969.99 923.4 969.99 923.4 999.31 766.46 c 1,0,0
 781.97 752.46 l 1,0,0
 768.63 840.15 768.63 840.15 714.6 891.995 c 0,0,0
 660.57 943.84 660.57 943.84 561.18 943.84 c 0,0,0
 429.4 943.84 429.4 943.84 368.7 850.325 c 0,0,0
 308 756.81 308 756.81 308 546 c 0,0,0
 308 339.57 308 339.57 371.875 239.035 c 0,0,0
 435.75 138.5 435.75 138.5 563.84 138.5 c 0,0,0
 654.56 138.5 654.56 138.5 715.595 190.005 c 0,0,0
 776.63 241.51 776.63 241.51 790.97 346.87 c 1,0,0
 1005.97 334.54 l 1,0,0
 991.64 227.24 991.64 227.24 932.84 147.435 c 0,0,0
 874.04 67.63 874.04 67.63 780.425 23.815 c 0,0,0
 686.81 -20 686.81 -20 566.53 -20 c 0,0,0
EndSplineSet
EndChar

StartChar: d
Encoding: 100 100 71
Width: 1175
GlyphClass: 2
Flags: W
LayerCount: 2
Fore
SplineSet
837.97 0 m 1,0,0
 835.97 10.67 835.97 10.67 832.975 41.665 c 0,0,0
 829.98 72.66 829.98 72.66 828.15 109.99 c 0,0,0
 826.32 147.32 826.32 147.32 826.32 174.66 c 1,0,0
 822.32 174.66 l 1,0,0
 773.64 72.64 773.64 72.64 689.985 26.32 c 0,0,0
 606.33 -20 606.33 -20 482.35 -20 c 0,0,0
 282.63 -20 282.63 -20 183.985 121.135 c 0,0,0
 85.34 262.27 85.34 262.27 85.34 537.32 c 0,0,0
 85.34 815.7 85.34 815.7 187.81 958.85 c 0,0,0
 290.28 1102 290.28 1102 489.28 1102 c 0,0,0
 609.64 1102 609.64 1102 692.135 1056.01 c 0,0,0
 774.63 1010.02 774.63 1010.02 822.98 913.01 c 1,0,0
 824.98 913.01 l 1,0,0
 822.98 1052.82 l 1,0,0
 822.98 1484 l 1,0,0
 1036.31 1484 l 1,0,0
 1036.31 227.29 l 2,0,0
 1036.31 153.84 1036.31 153.84 1037.975 97.185 c 0,0,0
 1039.64 40.53 1039.64 40.53 1042.97 0 c 1,0,0
 837.97 0 l 1,0,0
308.66 541.34 m 0,0,0
 308.66 328.53 308.66 328.53 367.175 232.51 c 0,0,0
 425.69 136.49 425.69 136.49 552.44 136.49 c 0,0,0
 691.58 136.49 691.58 136.49 757.94 239.685 c 0,0,0
 824.3 342.88 824.3 342.88 824.3 551.69 c 0,0,0
 824.3 753.49 824.3 753.49 758.765 851.675 c 0,0,0
 693.23 949.86 693.23 949.86 554.44 949.86 c 0,0,0
 426.03 949.86 426.03 949.86 367.345 852.33 c 0,0,0
 308.66 754.8 308.66 754.8 308.66 541.34 c 0,0,0
EndSplineSet
EndChar

StartChar: e
Encoding: 101 101 72
Width: 1139
GlyphClass: 2
Flags: W
LayerCount: 2
Fore
SplineSet
308.67 497.72 m 1,0,0
 308.67 320.96 308.67 320.96 379.565 226.725 c 0,0,0
 450.46 132.49 450.46 132.49 585.26 132.49 c 0,0,0
 688.07 132.49 688.07 132.49 750.98 174.705 c 0,0,0
 813.89 216.92 813.89 216.92 836.91 286.28 c 1,0,0
 1030.22 248.54 l 1,0,0
 927.28 -20 927.28 -20 580.64 -20 c 0,0,0
 339.32 -20 339.32 -20 212.005 123.495 c 0,0,0
 84.69 266.99 84.69 266.99 84.69 547.34 c 0,0,0
 84.69 815.34 84.69 815.34 212.665 958.67 c 0,0,0
 340.64 1102 340.64 1102 577.27 1102 c 0,0,0
 814.29 1102 814.29 1102 934.61 954.535 c 0,0,0
 1054.93 807.07 1054.93 807.07 1054.93 516.44 c 2,0,0
 1054.93 497.72 l 1,0,0
 308.67 497.72 l 1,0,0
840.55 648.26 m 1,0,0
 827.86 806.06 827.86 806.06 761.47 880.27 c 0,0,0
 695.08 954.48 695.08 954.48 573.94 954.48 c 0,0,0
 453.5 954.48 453.5 954.48 384.59 873.085 c 0,0,0
 315.68 791.69 315.68 791.69 310.67 648.26 c 1,0,0
 840.55 648.26 l 1,0,0
EndSplineSet
EndChar

StartChar: f
Encoding: 102 102 73
Width: 606
GlyphClass: 2
Flags: W
LayerCount: 2
Fore
SplineSet
397.96 931.53 m 1,0,0
 397.96 0 l 1,0,0
 184.96 0 l 1,0,0
 184.96 931.53 l 1,0,0
 30.98 931.53 l 1,0,0
 30.98 1082 l 1,0,0
 184.96 1082 l 1,0,0
 184.96 1201.03 l 2,0,0
 184.96 1348.7 184.96 1348.7 254.25 1415.68 c 0,0,0
 323.54 1482.66 323.54 1482.66 465.79 1482.66 c 0,0,0
 543.1 1482.66 543.1 1482.66 609.62 1469.34 c 1,0,0
 609.62 1317.82 l 1,0,0
 564.26 1326.15 564.26 1326.15 528.96 1326.15 c 0,0,0
 458.97 1326.15 458.97 1326.15 428.465 1293.295 c 0,0,0
 397.96 1260.44 397.96 1260.44 397.96 1175.04 c 2,0,0
 397.96 1082 l 1,0,0
 609.62 1082 l 1,0,0
 609.62 931.53 l 1,0,0
 397.96 931.53 l 1,0,0
EndSplineSet
EndChar

StartChar: g
Encoding: 103 103 74
Width: 1175
GlyphClass: 2
Flags: W
LayerCount: 2
Fore
SplineSet
563.84 -427.97 m 0,0,0
 379.91 -427.97 379.91 -427.97 269.795 -356.49 c 0,0,0
 159.68 -285.01 159.68 -285.01 130.34 -153.05 c 1,0,0
 344.34 -124.74 l 1,0,0
 361.35 -196.44 361.35 -196.44 418.89 -235.785 c 0,0,0
 476.43 -275.13 476.43 -275.13 569.83 -275.13 c 0,0,0
 698.22 -275.13 698.22 -275.13 761.265 -198.44 c 0,0,0
 824.31 -121.75 824.31 -121.75 824.31 30.3 c 2,0,0
 824.97 201 l 1,0,0
 822.97 201 l 1,0,0
 773.62 98.32 773.62 98.32 685.28 46.81 c 0,0,0
 596.94 -4.7 596.94 -4.7 474.97 -4.7 c 0,0,0
 279.27 -4.7 279.27 -4.7 182.305 130.6 c 0,0,0
 85.34 265.9 85.34 265.9 85.34 542.63 c 0,0,0
 85.34 822.37 85.34 822.37 187.985 961.345 c 0,0,0
 290.63 1100.32 290.63 1100.32 495.3 1100.32 c 0,0,0
 611.29 1100.32 611.29 1100.32 694.8 1049.14 c 0,0,0
 778.31 997.96 778.31 997.96 824.31 900.63 c 1,0,0
 827.3 900.63 l 1,0,0
 827.3 921.95 827.3 921.95 829.3 962.305 c 0,0,0
 831.3 1002.66 831.3 1002.66 834.465 1039.01 c 0,0,0
 837.63 1075.36 837.63 1075.36 839.96 1082 c 1,0,0
 1042.31 1082 l 1,0,0
 1036.31 1010.18 1036.31 1010.18 1036.31 849.42 c 2,0,0
 1036.31 31.66 l 2,0,0
 1036.31 -197.33 1036.31 -197.33 917.37 -312.65 c 0,0,0
 798.43 -427.97 798.43 -427.97 563.84 -427.97 c 0,0,0
824.97 545.95 m 0,0,0
 824.97 733.05 824.97 733.05 751.4 839.95 c 0,0,0
 677.83 946.85 677.83 946.85 557.78 946.85 c 0,0,0
 428.36 946.85 428.36 946.85 367.505 850.15 c 0,0,0
 306.65 753.45 306.65 753.45 306.65 543.97 c 0,0,0
 306.65 337.15 306.65 337.15 364.495 242.955 c 0,0,0
 422.34 148.76 422.34 148.76 555.11 148.76 c 0,0,0
 677.83 148.76 677.83 148.76 751.4 254.32 c 0,0,0
 824.97 359.88 824.97 359.88 824.97 545.95 c 0,0,0
EndSplineSet
EndChar

StartChar: h
Encoding: 104 104 75
Width: 1175
GlyphClass: 2
Flags: W
LayerCount: 2
Fore
SplineSet
350.99 886.77 m 1,0,0
 408.66 998.71 408.66 998.71 491.645 1050.355 c 0,0,0
 574.63 1102 574.63 1102 697.65 1102 c 0,0,0
 872.33 1102 872.33 1102 958.635 1005.715 c 0,0,0
 1044.94 909.43 1044.94 909.43 1044.94 709.45 c 2,0,0
 1044.94 0 l 1,0,0
 831.27 0 l 1,0,0
 831.27 659.6 l 2,0,0
 831.27 805.28 831.27 805.28 780.925 872.26 c 0,0,0
 730.58 939.24 730.58 939.24 618.17 939.24 c 0,0,0
 499.42 939.24 499.42 939.24 427.54 851.405 c 0,0,0
 355.66 763.57 355.66 763.57 355.66 618.53 c 2,0,0
 355.66 0 l 1,0,0
 142.33 0 l 1,0,0
 142.33 1484 l 1,0,0
 355.66 1484 l 1,0,0
 355.66 1091.73 l 2,0,0
 355.66 1053.05 355.66 1053.05 353.99 1011.355 c 0,0,0
 352.32 969.66 352.32 969.66 350.82 936.335 c 0,0,0
 349.32 903.01 349.32 903.01 347.66 886.77 c 1,0,0
 350.99 886.77 l 1,0,0
EndSplineSet
EndChar

StartChar: i
Encoding: 105 105 76
Width: 492
GlyphClass: 2
Flags: W
LayerCount: 2
Fore
SplineSet
352.31 1484 m 1,0,0
 352.31 1300.45 l 1,0,0
 138.98 1300.45 l 1,0,0
 138.98 1484 l 1,0,0
 352.31 1484 l 1,0,0
352.31 1082 m 1,0,0
 352.31 0 l 1,0,0
 138.98 0 l 1,0,0
 138.98 1082 l 1,0,0
 352.31 1082 l 1,0,0
EndSplineSet
Substitution2: "Single Substitution lookup 3 subtable" dotlessi
EndChar

StartChar: j
Encoding: 106 106 77
Width: 492
GlyphClass: 2
Flags: W
LayerCount: 2
Fore
SplineSet
352.64 1484 m 1,0,0
 352.64 1300.45 l 1,0,0
 139.31 1300.45 l 1,0,0
 139.31 1484 l 1,0,0
 352.64 1484 l 1,0,0
97.13 -425 m 0,0,0
 12.2 -425 12.2 -425 -44.06 -416 c 1,0,0
 -44.06 -257.53 l 1,0,0
 -29.05 -259.2 -29.05 -259.2 -14.875 -261.035 c 0,0,0
 -0.7 -262.87 -0.7 -262.87 14.31 -262.87 c 0,0,0
 84.3 -262.87 84.3 -262.87 111.805 -228.355 c 0,0,0
 139.31 -193.84 139.31 -193.84 139.31 -91.49 c 2,0,0
 139.31 1082 l 1,0,0
 352.64 1082 l 1,0,0
 352.64 -132.02 l 2,0,0
 352.64 -281.72 352.64 -281.72 288.515 -353.36 c 0,0,0
 224.39 -425 224.39 -425 97.13 -425 c 0,0,0
EndSplineSet
Substitution2: "Single Substitution lookup 3 subtable" uni0237
EndChar

StartChar: k
Encoding: 107 107 78
Width: 1061
GlyphClass: 2
Flags: W
LayerCount: 2
Fore
SplineSet
352.98 391.93 m 1,0,0
 352.98 0 l 1,0,0
 139.65 0 l 1,0,0
 139.65 1484 l 1,0,0
 352.98 1484 l 1,0,0
 352.98 582.41 l 1,0,0
 798.61 1082 l 1,0,0
 1039.64 1082 l 1,0,0
 620.11 631.19 l 1,0,0
 1064.62 0 l 1,0,0
 821.94 0 l 1,0,0
 481.35 492.68 l 1,0,0
 352.98 391.93 l 1,0,0
EndSplineSet
EndChar

StartChar: l
Encoding: 108 108 79
Width: 492
GlyphClass: 2
Flags: W
LayerCount: 2
Fore
SplineSet
352.98 1484 m 1,0,0
 352.98 0 l 1,0,0
 139.65 0 l 1,0,0
 139.65 1484 l 1,0,0
 352.98 1484 l 1,0,0
EndSplineSet
EndChar

StartChar: m
Encoding: 109 109 80
Width: 1743
GlyphClass: 2
Flags: W
LayerCount: 2
Fore
SplineSet
354.99 611.49 m 2,0,0
 354.99 0 l 1,0,0
 142.33 0 l 1,0,0
 142.33 847.37 l 2,0,0
 142.33 939.73 142.33 939.73 140.5 996.57 c 0,0,0
 138.67 1053.41 138.67 1053.41 135.67 1082 c 1,0,0
 338.01 1082 l 1,0,0
 340.01 1063.3 340.01 1063.3 342.34 1027.175 c 0,0,0
 344.67 991.05 344.67 991.05 346.165 952.59 c 0,0,0
 347.66 914.13 347.66 914.13 347.66 887.1 c 1,0,0
 350.99 887.1 l 1,0,0
 407.01 1005.07 407.01 1005.07 482.835 1053.7 c 0,0,0
 558.66 1102.33 558.66 1102.33 666.66 1102.33 c 0,0,0
 789.99 1102.33 789.99 1102.33 862.81 1050.03 c 0,0,0
 935.63 997.73 935.63 997.73 962.97 887.1 c 1,0,0
 966.96 887.1 l 1,0,0
 1022.63 1001.71 1022.63 1001.71 1101.305 1052.02 c 0,0,0
 1179.98 1102.33 1179.98 1102.33 1294.96 1102.33 c 0,0,0
 1456.98 1102.33 1456.98 1102.33 1534.285 1007.225 c 0,0,0
 1611.59 912.12 1611.59 912.12 1611.59 709.78 c 2,0,0
 1611.59 0 l 1,0,0
 1400.26 0 l 1,0,0
 1400.26 659.93 l 2,0,0
 1400.26 812.31 1400.26 812.31 1357.92 875.94 c 0,0,0
 1315.58 939.57 1315.58 939.57 1213.48 939.57 c 0,0,0
 1107.36 939.57 1107.36 939.57 1045.325 854.71 c 0,0,0
 983.29 769.85 983.29 769.85 983.29 615.78 c 2,0,0
 983.29 0 l 1,0,0
 771.96 0 l 1,0,0
 771.96 659.93 l 2,0,0
 771.96 812.31 771.96 812.31 729.62 875.94 c 0,0,0
 687.28 939.57 687.28 939.57 585.18 939.57 c 0,0,0
 480.08 939.57 480.08 939.57 417.535 851.9 c 0,0,0
 354.99 764.23 354.99 764.23 354.99 611.49 c 2,0,0
EndSplineSet
EndChar

StartChar: n
Encoding: 110 110 81
Width: 1175
GlyphClass: 2
Flags: W
LayerCount: 2
Fore
SplineSet
355.66 611.49 m 2,0,0
 355.66 0 l 1,0,0
 142.33 0 l 1,0,0
 142.33 847.37 l 2,0,0
 142.33 939.73 142.33 939.73 140.5 996.57 c 0,0,0
 138.67 1053.41 138.67 1053.41 135.67 1082 c 1,0,0
 338.01 1082 l 1,0,0
 340.01 1065.31 340.01 1065.31 342.005 1031.195 c 0,0,0
 344 997.08 344 997.08 345.495 958.285 c 0,0,0
 346.99 919.49 346.99 919.49 347.66 887.1 c 1,0,0
 350.99 887.1 l 1,0,0
 411.34 1003.06 411.34 1003.06 494.325 1052.695 c 0,0,0
 577.31 1102.33 577.31 1102.33 697.65 1102.33 c 0,0,0
 873.67 1102.33 873.67 1102.33 959.305 1006.38 c 0,0,0
 1044.94 910.43 1044.94 910.43 1044.94 709.78 c 2,0,0
 1044.94 0 l 1,0,0
 831.27 0 l 1,0,0
 831.27 659.93 l 2,0,0
 831.27 810.97 831.27 810.97 781.93 875.27 c 0,0,0
 732.59 939.57 732.59 939.57 618.17 939.57 c 0,0,0
 497.41 939.57 497.41 939.57 426.535 851.065 c 0,0,0
 355.66 762.56 355.66 762.56 355.66 611.49 c 2,0,0
EndSplineSet
EndChar

StartChar: o
Encoding: 111 111 82
Width: 1175
GlyphClass: 2
Flags: W
LayerCount: 2
Fore
SplineSet
1091.94 542 m 0,0,0
 1091.94 264.93 1091.94 264.93 960.01 122.465 c 0,0,0
 828.08 -20 828.08 -20 583.48 -20 c 0,0,0
 341.2 -20 341.2 -20 212.61 126.315 c 0,0,0
 84.02 272.63 84.02 272.63 84.02 542 c 0,0,0
 84.02 815.73 84.02 815.73 212.945 958.865 c 0,0,0
 341.87 1102 341.87 1102 589.48 1102 c 0,0,0
 843.09 1102 843.09 1102 967.515 962.86 c 0,0,0
 1091.94 823.72 1091.94 823.72 1091.94 542 c 0,0,0
868.29 542 m 0,0,0
 868.29 755.77 868.29 755.77 802.945 852.485 c 0,0,0
 737.6 949.2 737.6 949.2 592.81 949.2 c 0,0,0
 444.71 949.2 444.71 949.2 376.355 849.66 c 0,0,0
 308 750.12 308 750.12 308 542 c 0,0,0
 308 338.89 308 338.89 375.19 235.68 c 0,0,0
 442.38 132.47 442.38 132.47 581.15 132.47 c 0,0,0
 732.59 132.47 732.59 132.47 800.44 232.675 c 0,0,0
 868.29 332.88 868.29 332.88 868.29 542 c 0,0,0
EndSplineSet
EndChar

StartChar: p
Encoding: 112 112 83
Width: 1175
GlyphClass: 2
Flags: W
LayerCount: 2
Fore
SplineSet
1090.62 546 m 0,0,0
 1090.62 266.96 1090.62 266.96 988.15 123.48 c 0,0,0
 885.68 -20 885.68 -20 687.01 -20 c 0,0,0
 441.96 -20 441.96 -20 353.65 169.32 c 1,0,0
 348.32 169.32 l 1,0,0
 352.98 154.73 352.98 154.73 352.98 -4.64 c 2,0,0
 352.98 -425 l 1,0,0
 139.65 -425 l 1,0,0
 139.65 851.76 l 2,0,0
 139.65 932.78 139.65 932.78 137.985 990.425 c 0,0,0
 136.32 1048.07 136.32 1048.07 132.99 1082 c 1,0,0
 339.66 1082 l 1,0,0
 341.65 1075.36 341.65 1075.36 344.15 1042.505 c 0,0,0
 346.65 1009.65 346.65 1009.65 348.485 970.635 c 0,0,0
 350.32 931.62 350.32 931.62 350.32 907.34 c 1,0,0
 354.32 907.34 l 1,0,0
 401.99 1007.34 401.99 1007.34 483.63 1054.83 c 0,0,0
 565.27 1102.32 565.27 1102.32 692.95 1102.32 c 0,0,0
 889.32 1102.32 889.32 1102.32 989.97 964.525 c 0,0,0
 1090.62 826.73 1090.62 826.73 1090.62 546 c 0,0,0
867.3 543.32 m 0,0,0
 867.3 754.8 867.3 754.8 808.115 849.82 c 0,0,0
 748.93 944.84 748.93 944.84 622.86 944.84 c 0,0,0
 486.74 944.84 486.74 944.84 419.2 843.825 c 0,0,0
 351.66 742.81 351.66 742.81 351.66 531.3 c 0,0,0
 351.66 330.84 351.66 330.84 416.855 231.655 c 0,0,0
 482.05 132.47 482.05 132.47 620.86 132.47 c 0,0,0
 747.93 132.47 747.93 132.47 807.615 229.32 c 0,0,0
 867.3 326.17 867.3 326.17 867.3 543.32 c 0,0,0
EndSplineSet
EndChar

StartChar: q
Encoding: 113 113 84
Width: 1175
GlyphClass: 2
Flags: W
LayerCount: 2
Fore
SplineSet
85.34 537.32 m 0,0,0
 85.34 815.37 85.34 815.37 188.14 958.85 c 0,0,0
 290.94 1102.33 290.94 1102.33 489.94 1102.33 c 0,0,0
 611.29 1102.33 611.29 1102.33 692.455 1057.18 c 0,0,0
 773.62 1012.03 773.62 1012.03 824.98 912.02 c 1,0,0
 824.98 935.65 824.98 935.65 827.145 976.17 c 0,0,0
 829.31 1016.69 829.31 1016.69 832.64 1051.38 c 0,0,0
 835.97 1086.07 835.97 1086.07 837.97 1091.38 c 1,0,0
 1042.98 1091.38 l 1,0,0
 1039.31 1054.13 1039.31 1054.13 1037.81 984.09 c 0,0,0
 1036.31 914.05 1036.31 914.05 1036.31 811.56 c 2,0,0
 1036.31 -425 l 1,0,0
 823.64 -425 l 1,0,0
 823.64 17.63 l 1,0,0
 827.97 178.66 l 1,0,0
 825.97 178.66 l 1,0,0
 774.61 73.97 774.61 73.97 692.475 26.985 c 0,0,0
 610.34 -20 610.34 -20 482.35 -20 c 0,0,0
 281.96 -20 281.96 -20 183.65 121.805 c 0,0,0
 85.34 263.61 85.34 263.61 85.34 537.32 c 0,0,0
824.3 551.36 m 0,0,0
 824.3 749.82 824.3 749.82 758.93 849.675 c 0,0,0
 693.56 949.53 693.56 949.53 555.1 949.53 c 0,0,0
 426.35 949.53 426.35 949.53 367.505 850.665 c 0,0,0
 308.66 751.8 308.66 751.8 308.66 541.34 c 0,0,0
 308.66 328.53 308.66 328.53 367.51 232.51 c 0,0,0
 426.36 136.49 426.36 136.49 553.1 136.49 c 0,0,0
 691.91 136.49 691.91 136.49 758.105 241.695 c 0,0,0
 824.3 346.9 824.3 346.9 824.3 551.36 c 0,0,0
EndSplineSet
EndChar

StartChar: r
Encoding: 114 114 85
Width: 719
GlyphClass: 2
Flags: W
LayerCount: 2
Fore
SplineSet
355.66 553.11 m 2,0,0
 355.66 0 l 1,0,0
 142.33 0 l 1,0,0
 142.33 829.34 l 2,0,0
 142.33 896.9 142.33 896.9 140.5 958.745 c 0,0,0
 138.67 1020.59 138.67 1020.59 135.67 1082 c 1,0,0
 338.01 1082 l 1,0,0
 340.01 1048.21 340.01 1048.21 341.675 1013.19 c 0,0,0
 343.34 978.17 343.34 978.17 344.67 947.04 c 0,0,0
 346 915.91 346 915.91 346.83 892.295 c 0,0,0
 347.66 868.68 347.66 868.68 347.66 857.7 c 1,0,0
 351.66 857.7 l 1,0,0
 384.96 960.32 384.96 960.32 419.97 1012.67 c 0,0,0
 453.98 1061.68 453.98 1061.68 498.65 1082.005 c 0,0,0
 543.32 1102.33 543.32 1102.33 609.32 1102.33 c 0,0,0
 651.93 1102.33 651.93 1102.33 686.94 1090.68 c 1,0,0
 686.94 902.58 l 1,0,0
 642.05 914.23 642.05 914.23 583.02 914.23 c 0,0,0
 473.33 914.23 473.33 914.23 414.495 821.525 c 0,0,0
 355.66 728.82 355.66 728.82 355.66 553.11 c 2,0,0
EndSplineSet
EndChar

StartChar: s
Encoding: 115 115 86
Width: 1061
GlyphClass: 2
Flags: W
LayerCount: 2
Fore
SplineSet
984.65 304.61 m 0,0,0
 984.65 150.29 984.65 150.29 864.86 65.145 c 0,0,0
 745.07 -20 745.07 -20 530.8 -20 c 0,0,0
 321.87 -20 321.87 -20 209.4 47.82 c 0,0,0
 96.93 115.64 96.93 115.64 61.95 259.28 c 1,0,0
 249.99 292.26 l 1,0,0
 272.33 208.56 272.33 208.56 337.565 170.865 c 0,0,0
 402.8 133.17 402.8 133.17 530.8 133.17 c 0,0,0
 661.53 133.17 661.53 133.17 721.895 171.21 c 0,0,0
 782.26 209.25 782.26 209.25 782.26 286.65 c 0,0,0
 782.26 346.69 782.26 346.69 738.425 383.555 c 0,0,0
 694.59 420.42 694.59 420.42 594.61 444.77 c 0,0,0
 490.82 470.82 490.82 470.82 424.3 489.17 c 0,0,0
 357.78 507.52 357.78 507.52 318.305 522.02 c 0,0,0
 278.83 536.52 278.83 536.52 254.85 549.52 c 0,0,0
 183.24 588.51 183.24 588.51 144.095 646.48 c 0,0,0
 104.95 704.45 104.95 704.45 104.95 789.07 c 0,0,0
 104.95 939.38 104.95 939.38 215.07 1019.85 c 0,0,0
 325.19 1100.32 325.19 1100.32 532.8 1100.32 c 0,0,0
 716.42 1100.32 716.42 1100.32 825.88 1033.36 c 0,0,0
 935.34 966.4 935.34 966.4 963.67 826.41 c 1,0,0
 772.96 804.43 l 1,0,0
 758.95 874.45 758.95 874.45 699.555 910.97 c 0,0,0
 640.16 947.49 640.16 947.49 532.8 947.49 c 0,0,0
 418.06 947.49 418.06 947.49 362.7 914.285 c 0,0,0
 307.34 881.08 307.34 881.08 307.34 811.03 c 0,0,0
 307.34 758.67 307.34 758.67 342.155 725.81 c 0,0,0
 376.97 692.95 376.97 692.95 469.31 671.6 c 0,0,0
 594.97 642.92 594.97 642.92 703.185 610.06 c 0,0,0
 811.4 577.2 811.4 577.2 864.03 541.21 c 0,0,0
 921.69 501.2 921.69 501.2 953.17 444.38 c 0,0,0
 984.65 387.56 984.65 387.56 984.65 304.61 c 0,0,0
EndSplineSet
EndChar

StartChar: t
Encoding: 116 116 87
Width: 606
GlyphClass: 2
Flags: W
LayerCount: 2
Fore
SplineSet
587.99 10.64 m 1,0,0
 495.37 -16.66 495.37 -16.66 387.84 -16.66 c 0,0,0
 274.56 -16.66 274.56 -16.66 216.27 46.82 c 0,0,0
 157.98 110.3 157.98 110.3 157.98 237.25 c 2,0,0
 157.98 931.53 l 1,0,0
 29.02 931.53 l 1,0,0
 29.02 1082 l 1,0,0
 167.29 1082 l 1,0,0
 231.84 1327.96 l 1,0,0
 370.32 1327.96 l 1,0,0
 370.32 1082 l 1,0,0
 571.97 1082 l 1,0,0
 571.97 931.53 l 1,0,0
 370.32 931.53 l 1,0,0
 370.32 288.46 l 2,0,0
 370.32 210.13 370.32 210.13 397.305 176.65 c 0,0,0
 424.29 143.17 424.29 143.17 487.29 143.17 c 0,0,0
 519.97 143.17 519.97 143.17 587.99 157.17 c 1,0,0
 587.99 10.64 l 1,0,0
EndSplineSet
EndChar

StartChar: u
Encoding: 117 117 88
Width: 1175
GlyphClass: 2
Flags: W
LayerCount: 2
Fore
SplineSet
824.97 194.9 m 1,0,0
 764.95 79.27 764.95 79.27 681.8 29.635 c 0,0,0
 598.65 -20 598.65 -20 478.31 -20 c 0,0,0
 302.29 -20 302.29 -20 216.655 74.11 c 0,0,0
 131.02 168.22 131.02 168.22 131.02 372.22 c 2,0,0
 131.02 1082 l 1,0,0
 345.02 1082 l 1,0,0
 345.02 422.07 l 2,0,0
 345.02 266.67 345.02 266.67 394.695 204.55 c 0,0,0
 444.37 142.43 444.37 142.43 557.79 142.43 c 0,0,0
 678.55 142.43 678.55 142.43 749.425 230.935 c 0,0,0
 820.3 319.44 820.3 319.44 820.3 470.51 c 2,0,0
 820.3 1082 l 1,0,0
 1033.63 1082 l 1,0,0
 1033.63 234.63 l 2,0,0
 1033.63 148.88 1033.63 148.88 1035.295 90.055 c 0,0,0
 1036.96 31.23 1036.96 31.23 1040.29 0 c 1,0,0
 837.95 0 l 1,0,0
 835.3 27.11 835.3 27.11 832.635 73.07 c 0,0,0
 829.97 119.03 829.97 119.03 828.63 194.9 c 1,0,0
 824.97 194.9 l 1,0,0
EndSplineSet
EndChar

StartChar: v
Encoding: 118 118 89
Width: 1061
GlyphClass: 2
Flags: W
LayerCount: 2
Fore
SplineSet
1054.29 1082 m 1,0,0
 651.94 0 l 1,0,0
 398.35 0 l 1,0,0
 7.33 1082 l 1,0,0
 233.98 1082 l 1,0,0
 455.81 410.67 l 2,0,0
 463.14 389.02 463.14 389.02 480.305 328.53 c 0,0,0
 497.47 268.04 497.47 268.04 525.47 169.38 c 1,0,0
 535.5 200.13 535.5 200.13 548 242.465 c 0,0,0
 560.5 284.8 560.5 284.8 573.825 328.1 c 0,0,0
 587.15 371.4 587.15 371.4 598.15 403.39 c 2,0,0
 829.3 1082 l 1,0,0
 1054.29 1082 l 1,0,0
EndSplineSet
EndChar

StartChar: w
Encoding: 119 119 90
Width: 1516
GlyphClass: 2
Flags: W
LayerCount: 2
Fore
SplineSet
717.53 729.69 m 2,0,0
 528.79 0 l 1,0,0
 291.42 0 l 1,0,0
 -3.99 1082 l 1,0,0
 202.39 1082 l 1,0,0
 372.55 368.97 l 2,0,0
 381.21 332.35 381.21 332.35 391.88 284.01 c 0,0,0
 412.55 183.98 l 1,0,0
 423.22 231.31 423.22 231.31 433.565 278.64 c 0,0,0
 443.91 325.97 443.91 325.97 456.24 372.3 c 2,0,0
 644.33 1082 l 1,0,0
 872.97 1082 l 1,0,0
 1054.38 374.31 l 2,0,0
 1064.73 334.24 1064.73 334.24 1075.9 286.405 c 0,0,0
 1087.07 238.57 1087.07 238.57 1098.73 183.98 c 1,0,0
 1109.73 231.98 1109.73 231.98 1120.9 282.83 c 0,0,0
 1132.07 333.68 1132.07 333.68 1142.07 376.32 c 2,0,0
 1317.57 1082 l 1,0,0
 1521.29 1082 l 1,0,0
 1219.87 0 l 1,0,0
 981.83 0 l 1,0,0
 798.44 730.35 l 2,0,0
 789.76 766.08 789.76 766.08 780.105 812.87 c 0,0,0
 770.45 859.66 770.45 859.66 758.81 916.84 c 1,0,0
 751.84 883.62 751.84 883.62 740.845 829.965 c 0,0,0
 729.85 776.31 729.85 776.31 717.53 729.69 c 2,0,0
EndSplineSet
EndChar

StartChar: x
Encoding: 120 120 91
Width: 1061
GlyphClass: 2
Flags: W
LayerCount: 2
Fore
SplineSet
528.81 426.84 m 1,0,0
 248.68 0 l 1,0,0
 20.03 0 l 1,0,0
 408.66 556.99 l 1,0,0
 38.36 1082 l 1,0,0
 271.68 1082 l 1,0,0
 528.81 683.11 l 1,0,0
 784.27 1082 l 1,0,0
 1019.59 1082 l 1,0,0
 649.29 559.32 l 1,0,0
 1042.26 0 l 1,0,0
 806.94 0 l 1,0,0
 528.81 426.84 l 1,0,0
EndSplineSet
EndChar

StartChar: y
Encoding: 121 121 92
Width: 1061
GlyphClass: 2
Flags: W
LayerCount: 2
Fore
SplineSet
221.36 -425 m 0,0,0
 139.13 -425 139.13 -425 79.87 -413.34 c 1,0,0
 79.87 -256.89 l 1,0,0
 123.81 -263.55 123.81 -263.55 168.16 -263.55 c 0,0,0
 256.78 -263.55 256.78 -263.55 320.69 -204.185 c 0,0,0
 384.6 -144.82 384.6 -144.82 437.3 6.98 c 1,0,0
 8.63 1082 l 1,0,0
 235.28 1082 l 1,0,0
 444.14 514.03 l 2,0,0
 467.49 453 467.49 453 494.835 371.34 c 0,0,0
 522.18 289.68 522.18 289.68 543.13 210.85 c 1,0,0
 567.47 288.78 567.47 288.78 591.485 361.42 c 0,0,0
 615.5 434.06 615.5 434.06 639.83 508.02 c 2,0,0
 831.32 1082 l 1,0,0
 1055.64 1082 l 1,0,0
 635.68 -18.81 l 2,0,0
 604.32 -99.2 604.32 -99.2 573.98 -159.905 c 0,0,0
 543.64 -220.61 543.64 -220.61 514.31 -262.28 c 0,0,0
 455.32 -346.62 455.32 -346.62 384.325 -385.81 c 0,0,0
 313.33 -425 313.33 -425 221.36 -425 c 0,0,0
EndSplineSet
EndChar

StartChar: z
Encoding: 122 122 93
Width: 1024
GlyphClass: 2
Flags: W
LayerCount: 2
Fore
SplineSet
931.24 160.78 m 1,0,0
 931.24 0 l 1,0,0
 82.67 0 l 1,0,0
 82.67 157.46 l 1,0,0
 655.99 921.88 l 1,0,0
 118.98 921.88 l 1,0,0
 118.98 1082 l 1,0,0
 901 1082 l 1,0,0
 901 923.88 l 1,0,0
 328 160.78 l 1,0,0
 931.24 160.78 l 1,0,0
EndSplineSet
EndChar

StartChar: braceleft
Encoding: 123 123 94
Width: 721
GlyphClass: 2
Flags: W
LayerCount: 2
Fore
SplineSet
527.52 -425 m 2,0,0
 398.21 -425 398.21 -425 325.75 -347.505 c 0,0,0
 253.29 -270.01 253.29 -270.01 253.29 -130.02 c 2,0,0
 253.29 220.09 l 2,0,0
 253.29 336.1 253.29 336.1 199.965 393.27 c 0,0,0
 146.64 450.44 146.64 450.44 33.67 454.45 c 1,0,0
 33.67 603.89 l 1,0,0
 146.63 608.22 146.63 608.22 199.96 665.39 c 0,0,0
 253.29 722.56 253.29 722.56 253.29 838.24 c 2,0,0
 253.29 1189.02 l 2,0,0
 253.29 1331.67 253.29 1331.67 323.75 1407.835 c 0,0,0
 394.21 1484 394.21 1484 527.52 1484 c 2,0,0
 682.98 1484 l 1,0,0
 682.98 1334.87 l 1,0,0
 621.63 1334.87 l 2,0,0
 530.63 1334.87 530.63 1334.87 491.47 1281.865 c 0,0,0
 452.31 1228.86 452.31 1228.86 452.31 1121.85 c 2,0,0
 452.31 784 l 2,0,0
 452.31 689.67 452.31 689.67 397.825 621.005 c 0,0,0
 343.34 552.34 343.34 552.34 254.02 532 c 1,0,0
 254.02 529.34 l 1,0,0
 345 508.01 345 508.01 398.655 439.845 c 0,0,0
 452.31 371.68 452.31 371.68 452.31 276 c 2,0,0
 452.31 -62.52 l 2,0,0
 452.31 -168.52 452.31 -168.52 491.47 -222.03 c 0,0,0
 530.63 -275.54 530.63 -275.54 621.63 -275.54 c 2,0,0
 682.98 -275.54 l 1,0,0
 682.98 -425 l 1,0,0
 527.52 -425 l 2,0,0
EndSplineSet
EndChar

StartChar: bar
Encoding: 124 124 95
Width: 545
GlyphClass: 2
Flags: W
LayerCount: 2
Fore
SplineSet
371.77 1484 m 1,0,0
 371.77 -440.93 l 1,0,0
 174.09 -440.93 l 1,0,0
 174.09 1484 l 1,0,0
 371.77 1484 l 1,0,0
EndSplineSet
EndChar

StartChar: braceright
Encoding: 125 125 96
Width: 721
GlyphClass: 2
Flags: W
LayerCount: 2
Fore
SplineSet
36.97 -275.54 m 1,0,0
 95.98 -275.54 l 2,0,0
 187.64 -275.54 187.64 -275.54 227.14 -222.03 c 0,0,0
 266.64 -168.52 266.64 -168.52 266.64 -62.52 c 2,0,0
 266.64 276 l 2,0,0
 266.64 372.02 266.64 372.02 320.125 440.35 c 0,0,0
 373.61 508.68 373.61 508.68 464.26 529.34 c 1,0,0
 464.26 532 l 1,0,0
 376.61 551.67 376.61 551.67 321.625 619.5 c 0,0,0
 266.64 687.33 266.64 687.33 266.64 784 c 2,0,0
 266.64 1121.85 l 2,0,0
 266.64 1228.86 266.64 1228.86 227.14 1281.865 c 0,0,0
 187.64 1334.87 187.64 1334.87 95.98 1334.87 c 2,0,0
 36.97 1334.87 l 1,0,0
 36.97 1484 l 1,0,0
 190.42 1484 l 2,0,0
 323.73 1484 323.73 1484 394.19 1407.835 c 0,0,0
 464.65 1331.67 464.65 1331.67 464.65 1189.02 c 2,0,0
 464.65 838.24 l 2,0,0
 464.65 723.56 464.65 723.56 518.31 665.89 c 0,0,0
 571.97 608.22 571.97 608.22 686.27 603.89 c 1,0,0
 686.27 454.45 l 1,0,0
 571.3 451.11 571.3 451.11 517.975 393.11 c 0,0,0
 464.65 335.11 464.65 335.11 464.65 220.09 c 2,0,0
 464.65 -130.02 l 2,0,0
 464.65 -269.01 464.65 -269.01 392.355 -347.005 c 0,0,0
 320.06 -425 320.06 -425 190.42 -425 c 2,0,0
 36.97 -425 l 1,0,0
 36.97 -275.54 l 1,0,0
EndSplineSet
EndChar

StartChar: asciitilde
Encoding: 126 126 97
Width: 1196
GlyphClass: 2
Flags: W
LayerCount: 2
Fore
SplineSet
846.64 540.79 m 0,0,0
 775.66 540.79 775.66 540.79 703.16 562.46 c 0,0,0
 630.66 584.13 630.66 584.13 557 610.13 c 0,0,0
 425.69 655.79 425.69 655.79 338.68 655.79 c 0,0,0
 270.36 655.79 270.36 655.79 211.865 634.96 c 0,0,0
 153.37 614.13 153.37 614.13 88.37 567.79 c 1,0,0
 88.37 733.89 l 1,0,0
 200.03 817.89 200.03 817.89 354.01 817.89 c 0,0,0
 424.51 817.89 424.51 817.89 511.59 793.67 c 0,0,0
 554.81 781.39 554.81 781.39 601.985 766.89 c 0,0,0
 649.16 752.39 649.16 752.39 700.96 735 c 0,0,0
 729.98 724.98 729.98 724.98 778.1 712.935 c 0,0,0
 826.22 700.89 826.22 700.89 863.63 700.89 c 0,0,0
 993.95 700.89 993.95 700.89 1108.95 792.89 c 1,0,0
 1108.95 620.79 l 1,0,0
 1048.97 578.13 1048.97 578.13 990.47 559.46 c 0,0,0
 931.97 540.79 931.97 540.79 846.64 540.79 c 0,0,0
EndSplineSet
EndChar

StartChar: exclamdown
Encoding: 161 161 99
Width: 682
GlyphClass: 2
Flags: W
LayerCount: 2
Fore
SplineSet
455.84 1082 m 1,0,0
 455.84 858.23 l 1,0,0
 230.82 858.23 l 1,0,0
 230.82 1082 l 1,0,0
 455.84 1082 l 1,0,0
226.16 -327 m 1,0,0
 252.8 674.77 l 1,0,0
 427.86 674.77 l 1,0,0
 454.5 -327 l 1,0,0
 226.16 -327 l 1,0,0
EndSplineSet
EndChar

StartChar: cent
Encoding: 162 162 100
Width: 1139
GlyphClass: 2
Flags: W
LayerCount: 2
Fore
SplineSet
593.36 297.79 m 0,0,0
 686.72 297.79 686.72 297.79 749.57 350.615 c 0,0,0
 812.42 403.44 812.42 403.44 827.09 508.8 c 1,0,0
 1042.42 496.8 l 1,0,0
 1022.43 349.83 1022.43 349.83 921.82 255.365 c 0,0,0
 821.21 160.9 821.21 160.9 663.98 144.59 c 1,0,0
 663.98 -31 l 1,0,0
 527.44 -31 l 1,0,0
 527.44 143.93 l 1,0,0
 323.16 162.92 323.16 162.92 215.22 303.275 c 0,0,0
 107.28 443.63 107.28 443.63 107.28 693.37 c 0,0,0
 107.28 939.44 107.28 939.44 214.395 1082.115 c 0,0,0
 321.51 1224.79 321.51 1224.79 527.44 1244.43 c 1,0,0
 527.44 1409 l 1,0,0
 663.98 1409 l 1,0,0
 663.98 1244.43 l 1,0,0
 815.56 1228.11 815.56 1228.11 911.83 1141.645 c 0,0,0
 1008.1 1055.18 1008.1 1055.18 1035.43 912.22 c 1,0,0
 818.42 898.22 l 1,0,0
 804.09 988.55 804.09 988.55 747.42 1040.395 c 0,0,0
 690.75 1092.24 690.75 1092.24 591.36 1092.24 c 0,0,0
 454.63 1092.24 454.63 1092.24 390.63 998.23 c 0,0,0
 326.63 904.22 326.63 904.22 326.63 699.35 c 0,0,0
 326.63 497.21 326.63 497.21 394.135 397.5 c 0,0,0
 461.64 297.79 461.64 297.79 593.36 297.79 c 0,0,0
EndSplineSet
EndChar

StartChar: sterling
Encoding: 163 163 101
Width: 1139
GlyphClass: 2
Flags: W
LayerCount: 2
Fore
SplineSet
1055.28 0 m 1,0,0
 56.79 0 l 1,0,0
 56.79 170.83 l 1,0,0
 150.08 220.79 150.08 220.79 191.265 298.15 c 0,0,0
 232.45 375.51 232.45 375.51 232.45 491.23 c 2,0,0
 232.45 618.07 l 1,0,0
 45.79 618.07 l 1,0,0
 45.79 760.6 l 1,0,0
 229.15 760.6 l 1,0,0
 229.15 1030.04 l 2,0,0
 229.15 1227.02 229.15 1227.02 333.47 1328.51 c 0,0,0
 437.79 1430 437.79 1430 639.07 1430 c 0,0,0
 793.33 1430 793.33 1430 892.34 1366.695 c 0,0,0
 991.35 1303.39 991.35 1303.39 1028.65 1179.87 c 1,0,0
 835.18 1126.17 l 1,0,0
 814.18 1194.46 814.18 1194.46 763.465 1231.135 c 0,0,0
 712.75 1267.81 712.75 1267.81 643.4 1267.81 c 0,0,0
 536.99 1267.81 536.99 1267.81 486.27 1210.31 c 0,0,0
 435.55 1152.81 435.55 1152.81 435.55 1027.81 c 2,0,0
 435.55 760.6 l 1,0,0
 803.29 760.6 l 1,0,0
 803.29 618.07 l 1,0,0
 435.55 618.07 l 1,0,0
 435.55 503.95 l 2,0,0
 435.55 390.23 435.55 390.23 391.2 303.83 c 0,0,0
 346.85 217.43 346.85 217.43 262.26 171.48 c 1,0,0
 1055.28 171.48 l 1,0,0
 1055.28 0 l 1,0,0
EndSplineSet
EndChar

StartChar: currency
Encoding: 164 164 102
Width: 1139
GlyphClass: 2
Flags: W
LayerCount: 2
Fore
SplineSet
136.01 684 m 0,0,0
 136.01 816.39 136.01 816.39 208.07 925.77 c 1,0,0
 97.18 1036.66 l 1,0,0
 218.67 1157.15 l 1,0,0
 328.23 1045.59 l 1,0,0
 437.27 1120 437.27 1120 571.01 1120 c 0,0,0
 702.06 1120 702.06 1120 811.45 1046.93 c 1,0,0
 920.99 1156.47 l 1,0,0
 1042.81 1033.98 l 1,0,0
 933.61 925.11 l 1,0,0
 1007.01 813.38 1007.01 813.38 1007.01 684 c 0,0,0
 1007.01 551.6 1007.01 551.6 932.93 443.55 c 1,0,0
 1044.15 332.66 l 1,0,0
 923.67 209.51 l 1,0,0
 812.11 321.73 l 1,0,0
 702.4 250 702.4 250 571.01 250 c 0,0,0
 435.61 250 435.61 250 329.57 322.41 c 1,0,0
 214.67 206.85 l 1,0,0
 94.52 329.34 l 1,0,0
 207.41 442.89 l 1,0,0
 136.01 551.61 136.01 551.61 136.01 684 c 0,0,0
313.77 686 m 0,0,0
 313.77 614.93 313.77 614.93 348.805 556.71 c 0,0,0
 383.84 498.49 383.84 498.49 442.395 463.96 c 0,0,0
 500.95 429.43 500.95 429.43 571.01 429.43 c 0,0,0
 640.74 429.43 640.74 429.43 698.795 463.96 c 0,0,0
 756.85 498.49 756.85 498.49 792.05 556.875 c 0,0,0
 827.25 615.26 827.25 615.26 827.25 686 c 0,0,0
 827.25 757.4 827.25 757.4 792.215 815.79 c 0,0,0
 757.18 874.18 757.18 874.18 699.125 908.71 c 0,0,0
 641.07 943.24 641.07 943.24 571.01 943.24 c 0,0,0
 500.95 943.24 500.95 943.24 442.895 908.875 c 0,0,0
 384.84 874.51 384.84 874.51 349.305 816.29 c 0,0,0
 313.77 758.07 313.77 758.07 313.77 686 c 0,0,0
EndSplineSet
EndChar

StartChar: yen
Encoding: 165 165 103
Width: 1139
GlyphClass: 2
Flags: W
LayerCount: 2
Fore
SplineSet
673.18 280.89 m 1,0,0
 673.18 0 l 1,0,0
 464.16 0 l 1,0,0
 464.16 280.89 l 1,0,0
 98.01 280.89 l 1,0,0
 98.01 414.49 l 1,0,0
 464.16 414.49 l 1,0,0
 466.16 571.13 l 1,0,0
 98.01 571.13 l 1,0,0
 98.01 703.06 l 1,0,0
 403.49 703.06 l 1,0,0
 1.3 1409 l 1,0,0
 230 1409 l 1,0,0
 567.67 778.83 l 1,0,0
 909.34 1409 l 1,0,0
 1138.04 1409 l 1,0,0
 735.18 703.06 l 1,0,0
 1041.33 703.06 l 1,0,0
 1041.33 571.13 l 1,0,0
 673.18 571.13 l 1,0,0
 673.18 414.49 l 1,0,0
 1041.33 414.49 l 1,0,0
 1041.33 280.89 l 1,0,0
 673.18 280.89 l 1,0,0
EndSplineSet
EndChar

StartChar: brokenbar
Encoding: 166 166 104
Width: 545
GlyphClass: 2
Flags: W
LayerCount: 2
Fore
SplineSet
371.77 1474.1 m 1,0,0
 371.77 696.1 l 1,0,0
 174.09 696.1 l 1,0,0
 174.09 1474.1 l 1,0,0
 371.77 1474.1 l 1,0,0
371.77 338.07 m 1,0,0
 371.77 -440.93 l 1,0,0
 174.09 -440.93 l 1,0,0
 174.09 338.07 l 1,0,0
 371.77 338.07 l 1,0,0
EndSplineSet
EndChar

StartChar: section
Encoding: 167 167 105
Width: 1139
GlyphClass: 2
Flags: W
LayerCount: 2
Fore
SplineSet
583.71 1465.19 m 0,0,0
 763.64 1465.19 763.64 1465.19 873.77 1397.37 c 0,0,0
 983.9 1329.55 983.9 1329.55 1010.9 1200.57 c 1,0,0
 824.16 1178.92 l 1,0,0
 811.16 1249.63 811.16 1249.63 750.14 1285.81 c 0,0,0
 689.12 1321.99 689.12 1321.99 583.71 1321.99 c 0,0,0
 463 1321.99 463 1321.99 402.46 1285.79 c 0,0,0
 341.92 1249.59 341.92 1249.59 341.92 1180.57 c 0,0,0
 341.92 1134.88 341.92 1134.88 371.43 1102.025 c 0,0,0
 400.94 1069.17 400.94 1069.17 453.96 1044.82 c 0,0,0
 508.65 1020.14 508.65 1020.14 637.31 989.8 c 0,0,0
 787.24 954.81 787.24 954.81 870.23 912.81 c 0,0,0
 948.89 871.14 948.89 871.14 991.725 811.48 c 0,0,0
 1034.56 751.82 1034.56 751.82 1034.56 668.84 c 0,0,0
 1034.56 571.82 1034.56 571.82 976.545 497.975 c 0,0,0
 918.53 424.13 918.53 424.13 822.82 399.14 c 1,0,0
 927.89 353.78 927.89 353.78 976.575 289.61 c 0,0,0
 1025.26 225.44 1025.26 225.44 1025.26 135.1 c 0,0,0
 1025.26 -19.17 1025.26 -19.17 906.46 -104.99 c 0,0,0
 787.66 -190.81 787.66 -190.81 570.07 -190.81 c 0,0,0
 356.45 -190.81 356.45 -190.81 243.32 -123.32 c 0,0,0
 130.19 -55.83 130.19 -55.83 94.54 86.47 c 1,0,0
 280.62 119.45 l 1,0,0
 300.62 32.75 300.62 32.75 366.475 -7.095 c 0,0,0
 432.33 -46.94 432.33 -46.94 570.07 -46.94 c 0,0,0
 701.45 -46.94 701.45 -46.94 770.815 -6.735 c 0,0,0
 840.18 33.47 840.18 33.47 840.18 114.81 c 0,0,0
 840.18 168.84 840.18 168.84 810.485 204.7 c 0,0,0
 780.79 240.56 780.79 240.56 722.42 267.25 c 0,0,0
 664.39 294.27 664.39 294.27 501.5 333.25 c 0,0,0
 303.54 379.57 303.54 379.57 218.04 457.57 c 0,0,0
 132.54 535.57 132.54 535.57 132.54 647.57 c 0,0,0
 132.54 737.89 132.54 737.89 191.895 808.59 c 0,0,0
 251.25 879.29 251.25 879.29 355.59 910.94 c 1,0,0
 261.57 944.92 261.57 944.92 208.215 1012.25 c 0,0,0
 154.86 1079.58 154.86 1079.58 154.86 1164.92 c 0,0,0
 154.86 1307.22 154.86 1307.22 264.32 1386.205 c 0,0,0
 373.78 1465.19 373.78 1465.19 583.71 1465.19 c 0,0,0
850.16 642.21 m 0,0,0
 850.16 713.88 850.16 713.88 784.46 761.26 c 0,0,0
 717.43 809.31 717.43 809.31 542.75 847 c 1,0,0
 437.71 839.35 437.71 839.35 378.655 791.135 c 0,0,0
 319.6 742.92 319.6 742.92 319.6 665.19 c 0,0,0
 319.6 618.83 319.6 618.83 348.61 585.3 c 0,0,0
 377.62 551.77 377.62 551.77 430.97 526.75 c 0,0,0
 484 502.06 484 502.06 615.63 469.39 c 1,0,0
 727.7 472.38 727.7 472.38 788.93 517.93 c 0,0,0
 850.16 563.48 850.16 563.48 850.16 642.21 c 0,0,0
EndSplineSet
EndChar

StartChar: dieresis
Encoding: 168 168 106
Width: 682
GlyphClass: 2
Flags: W
LayerCount: 2
Fore
SplineSet
623.45 1407.95 m 1,0,0
 623.45 1212.4 l 1,0,0
 442.63 1212.4 l 1,0,0
 442.63 1407.95 l 1,0,0
 623.45 1407.95 l 1,0,0
216.6 1407.95 m 1,0,0
 216.6 1212.4 l 1,0,0
 35.43 1212.4 l 1,0,0
 35.43 1407.95 l 1,0,0
 216.6 1407.95 l 1,0,0
EndSplineSet
EndChar

StartChar: copyright
Encoding: 169 169 107
Width: 1509
GlyphClass: 2
Flags: W
LayerCount: 2
Fore
SplineSet
1477.33 707 m 0,0,0
 1477.33 514 1477.33 514 1381.33 346 c 0,0,0
 1284.33 177 1284.33 177 1115.83 80.5 c 0,0,0
 947.33 -16 947.33 -16 754.33 -16 c 0,0,0
 558.33 -16 558.33 -16 388.33 85 c 0,0,0
 219.33 186 219.33 186 125.33 352 c 0,0,0
 31.33 518 31.33 518 31.33 707 c 0,0,0
 31.33 901 31.33 901 128.33 1068 c 0,0,0
 225.33 1236 225.33 1236 393.33 1333 c 0,0,0
 561.33 1430 561.33 1430 754.33 1430 c 0,0,0
 948.33 1430 948.33 1430 1117.33 1333 c 0,0,0
 1285.33 1236 1285.33 1236 1381.33 1068.5 c 0,0,0
 1477.33 901 1477.33 901 1477.33 707 c 0,0,0
1378.73 707 m 0,0,0
 1378.73 874.35 1378.73 874.35 1295.39 1017.7 c 0,0,0
 1212.05 1160.38 1212.05 1160.38 1067.035 1244.39 c 0,0,0
 922.02 1328.4 922.02 1328.4 754.33 1328.4 c 0,0,0
 589.96 1328.4 589.96 1328.4 445.94 1246.38 c 0,0,0
 301.92 1163.69 301.92 1163.69 217.425 1019.175 c 0,0,0
 132.93 874.66 132.93 874.66 132.93 707 c 0,0,0
 132.93 539.31 132.93 539.31 216.94 395.3 c 0,0,0
 299.95 250.62 299.95 250.62 443.465 167.28 c 0,0,0
 586.98 83.94 586.98 83.94 754.33 83.94 c 0,0,0
 921.68 83.94 921.68 83.94 1067.03 167.28 c 0,0,0
 1212.38 250.62 1212.38 250.62 1295.555 395.3 c 0,0,0
 1378.73 539.98 1378.73 539.98 1378.73 707 c 0,0,0
513.18 709 m 0,0,0
 513.18 560.6 513.18 560.6 580.22 478.895 c 0,0,0
 647.26 397.19 647.26 397.19 765.99 397.19 c 0,0,0
 917.39 397.19 917.39 397.19 986.78 548.9 c 1,0,0
 1116.63 509.94 l 1,0,0
 1055.95 387.62 1055.95 387.62 970.625 334.3 c 0,0,0
 885.3 280.98 885.3 280.98 765.99 280.98 c 0,0,0
 576.34 280.98 576.34 280.98 471.845 393.32 c 0,0,0
 367.35 505.66 367.35 505.66 367.35 709 c 0,0,0
 367.35 912 367.35 912 468.01 1021.015 c 0,0,0
 568.67 1130.03 568.67 1130.03 758.33 1130.03 c 0,0,0
 1007.28 1130.03 1007.28 1130.03 1102.62 914.43 c 1,0,0
 974.76 878.79 l 1,0,0
 944.74 945.15 944.74 945.15 889.875 979.15 c 0,0,0
 835.01 1013.15 835.01 1013.15 761.32 1013.15 c 0,0,0
 640.26 1013.15 640.26 1013.15 576.72 936.115 c 0,0,0
 513.18 859.08 513.18 859.08 513.18 709 c 0,0,0
EndSplineSet
EndChar

StartChar: ordfeminine
Encoding: 170 170 108
Width: 758
GlyphClass: 2
Flags: W
LayerCount: 2
Fore
SplineSet
259.01 675.42 m 0,0,0
 154.64 675.42 154.64 675.42 93.455 731.605 c 0,0,0
 32.27 787.79 32.27 787.79 32.27 888.81 c 0,0,0
 32.27 1115.58 32.27 1115.58 335.03 1120.58 c 2,0,0
 502.8 1123.92 l 1,0,0
 502.8 1177.98 l 2,0,0
 502.8 1251.72 502.8 1251.72 470.77 1286.41 c 0,0,0
 438.74 1321.1 438.74 1321.1 367.31 1321.1 c 0,0,0
 305.59 1321.1 305.59 1321.1 269.215 1293.58 c 0,0,0
 232.84 1266.06 232.84 1266.06 225.16 1199.63 c 1,0,0
 62.63 1209.3 l 1,0,0
 79.29 1312.66 79.29 1312.66 158.46 1370.185 c 0,0,0
 237.63 1427.71 237.63 1427.71 365.64 1427.71 c 0,0,0
 508.33 1427.71 508.33 1427.71 583.5 1365.705 c 0,0,0
 658.67 1303.7 658.67 1303.7 658.67 1182.66 c 2,0,0
 658.67 898.09 l 2,0,0
 658.67 843.39 658.67 843.39 671.02 818.39 c 0,0,0
 683.37 793.39 683.37 793.39 717.71 793.72 c 0,0,0
 728.37 794.05 728.37 794.05 739.53 795.885 c 0,0,0
 750.69 797.72 750.69 797.72 762.69 800.73 c 1,0,0
 762.69 695.08 l 1,0,0
 709.41 680.43 709.41 680.43 667.81 680.43 c 0,0,0
 595.47 680.43 595.47 680.43 554.97 717.935 c 0,0,0
 514.47 755.44 514.47 755.44 510.14 819.12 c 1,0,0
 506.47 819.12 l 1,0,0
 433.8 675.42 433.8 675.42 259.01 675.42 c 0,0,0
308.57 793.02 m 0,0,0
 389 793.02 389 793.02 445.9 848.39 c 0,0,0
 502.8 903.76 502.8 903.76 502.8 978.14 c 2,0,0
 502.8 1030.6 l 1,0,0
 379.98 1027.26 l 2,0,0
 271.88 1022.25 271.88 1022.25 233.51 992.22 c 0,0,0
 195.14 962.19 195.14 962.19 195.14 902.14 c 0,0,0
 195.14 793.02 195.14 793.02 308.57 793.02 c 0,0,0
EndSplineSet
EndChar

StartChar: guillemotleft
Encoding: 171 171 109
Width: 1139
GlyphClass: 2
Flags: W
LayerCount: 2
Fore
SplineSet
1053.03 171.98 m 1,0,0
 1053.03 141 l 1,0,0
 859.93 141 l 1,0,0
 548.99 504.68 l 1,0,0
 548.99 570.32 l 1,0,0
 859.93 940 l 1,0,0
 1051.03 940 l 1,0,0
 1051.03 907.02 l 1,0,0
 740.75 537 l 1,0,0
 1053.03 171.98 l 1,0,0
588 171.98 m 1,0,0
 588 141 l 1,0,0
 396.23 141 l 1,0,0
 85.97 504.68 l 1,0,0
 85.97 570.32 l 1,0,0
 396.23 940 l 1,0,0
 586 940 l 1,0,0
 586 907.02 l 1,0,0
 277.73 537 l 1,0,0
 588 171.98 l 1,0,0
EndSplineSet
EndChar

StartChar: logicalnot
Encoding: 172 172 110
Width: 1196
GlyphClass: 2
Flags: W
LayerCount: 2
Fore
SplineSet
1100.28 766.87 m 1,0,0
 1100.28 167.13 l 1,0,0
 929.21 167.13 l 1,0,0
 929.21 595.13 l 1,0,0
 94.72 595.13 l 1,0,0
 94.72 766.87 l 1,0,0
 1100.28 766.87 l 1,0,0
EndSplineSet
EndChar

StartChar: registered
Encoding: 174 174 111
Width: 1509
GlyphClass: 2
Flags: W
LayerCount: 2
Fore
SplineSet
1477.33 707 m 0,0,0
 1477.33 514 1477.33 514 1381.33 346 c 0,0,0
 1284.33 177 1284.33 177 1115.83 80.5 c 0,0,0
 947.33 -16 947.33 -16 754.33 -16 c 0,0,0
 558.33 -16 558.33 -16 388.33 85 c 0,0,0
 219.33 186 219.33 186 125.33 352 c 0,0,0
 31.33 518 31.33 518 31.33 707 c 0,0,0
 31.33 901 31.33 901 128.33 1068 c 0,0,0
 225.33 1236 225.33 1236 393.33 1333 c 0,0,0
 561.33 1430 561.33 1430 754.33 1430 c 0,0,0
 948.33 1430 948.33 1430 1117.33 1333 c 0,0,0
 1285.33 1236 1285.33 1236 1381.33 1068.5 c 0,0,0
 1477.33 901 1477.33 901 1477.33 707 c 0,0,0
1378.73 707 m 0,0,0
 1378.73 874.35 1378.73 874.35 1295.39 1017.7 c 0,0,0
 1212.05 1160.38 1212.05 1160.38 1067.035 1244.39 c 0,0,0
 922.02 1328.4 922.02 1328.4 754.33 1328.4 c 0,0,0
 589.96 1328.4 589.96 1328.4 445.94 1246.38 c 0,0,0
 301.92 1163.69 301.92 1163.69 217.425 1019.175 c 0,0,0
 132.93 874.66 132.93 874.66 132.93 707 c 0,0,0
 132.93 539.31 132.93 539.31 216.94 395.3 c 0,0,0
 299.95 250.62 299.95 250.62 443.465 167.28 c 0,0,0
 586.98 83.94 586.98 83.94 754.33 83.94 c 0,0,0
 921.68 83.94 921.68 83.94 1067.03 167.28 c 0,0,0
 1212.38 250.62 1212.38 250.62 1295.555 395.3 c 0,0,0
 1378.73 539.98 1378.73 539.98 1378.73 707 c 0,0,0
605.89 620.05 m 1,0,0
 605.89 291.64 l 1,0,0
 462.06 291.64 l 1,0,0
 462.06 1117.36 l 1,0,0
 776.65 1117.36 l 2,0,0
 922.28 1117.36 922.28 1117.36 997.945 1053.865 c 0,0,0
 1073.61 990.37 1073.61 990.37 1073.61 878.71 c 0,0,0
 1073.61 779.35 1073.61 779.35 1022.93 718.675 c 0,0,0
 972.25 658 972.25 658 889.56 637.02 c 1,0,0
 1107.92 291.64 l 1,0,0
 944.44 291.64 l 1,0,0
 752.37 620.05 l 1,0,0
 605.89 620.05 l 1,0,0
929.12 876.71 m 0,0,0
 929.12 941.75 929.12 941.75 884.92 975.77 c 0,0,0
 840.72 1009.79 840.72 1009.79 763.68 1009.79 c 2,0,0
 605.89 1009.79 l 1,0,0
 605.89 726.94 l 1,0,0
 775.35 726.94 l 2,0,0
 850.73 726.94 850.73 726.94 889.925 767.13 c 0,0,0
 929.12 807.32 929.12 807.32 929.12 876.71 c 0,0,0
EndSplineSet
EndChar

StartChar: macron
Encoding: 175 175 112
Width: 1131
GlyphClass: 2
Flags: W
LayerCount: 2
Fore
SplineSet
1148 1546 m 1,0,0
 1148 1452 l 1,0,0
 -17 1452 l 1,0,0
 -17 1546 l 1,0,0
 1148 1546 l 1,0,0
EndSplineSet
EndChar

StartChar: degree
Encoding: 176 176 113
Width: 819
GlyphClass: 2
Flags: W
LayerCount: 2
Fore
SplineSet
707.55 1134.44 m 0,0,0
 707.55 1053.13 707.55 1053.13 667.23 985.655 c 0,0,0
 626.91 918.18 626.91 918.18 559.435 878.365 c 0,0,0
 491.96 838.55 491.96 838.55 409.33 838.55 c 0,0,0
 328.03 838.55 328.03 838.55 260.22 878.54 c 0,0,0
 192.41 918.53 192.41 918.53 151.925 985.34 c 0,0,0
 111.44 1052.15 111.44 1052.15 111.44 1133.45 c 0,0,0
 111.44 1214.42 111.44 1214.42 151.425 1281.565 c 0,0,0
 191.41 1348.71 191.41 1348.71 259.05 1388.53 c 0,0,0
 326.69 1428.35 326.69 1428.35 409.33 1428.35 c 0,0,0
 492.63 1428.35 492.63 1428.35 560.105 1389.03 c 0,0,0
 627.58 1349.71 627.58 1349.71 667.565 1283.23 c 0,0,0
 707.55 1216.75 707.55 1216.75 707.55 1134.44 c 0,0,0
582.38 1133.45 m 0,0,0
 582.38 1207.47 582.38 1207.47 532.53 1258.15 c 0,0,0
 482.68 1308.83 482.68 1308.83 409.33 1308.83 c 0,0,0
 335.65 1308.83 335.65 1308.83 285.47 1257.315 c 0,0,0
 235.29 1205.8 235.29 1205.8 235.29 1133.45 c 0,0,0
 235.29 1061.1 235.29 1061.1 286.635 1009.255 c 0,0,0
 337.98 957.41 337.98 957.41 409.33 957.41 c 0,0,0
 481.02 957.41 481.02 957.41 531.7 1008.755 c 0,0,0
 582.38 1060.1 582.38 1060.1 582.38 1133.45 c 0,0,0
EndSplineSet
EndChar

StartChar: plusminus
Encoding: 177 177 114
Width: 1124
GlyphClass: 2
Flags: W
LayerCount: 2
Fore
SplineSet
648.54 688.91 m 1,0,0
 648.54 311.73 l 1,0,0
 476.13 311.73 l 1,0,0
 476.13 688.91 l 1,0,0
 59.72 688.91 l 1,0,0
 59.72 859.65 l 1,0,0
 476.13 859.65 l 1,0,0
 476.13 1235.83 l 1,0,0
 648.54 1235.83 l 1,0,0
 648.54 859.65 l 1,0,0
 1065.28 859.65 l 1,0,0
 1065.28 688.91 l 1,0,0
 648.54 688.91 l 1,0,0
1065.28 170.74 m 1,0,0
 1065.28 0 l 1,0,0
 59.72 0 l 1,0,0
 59.72 170.74 l 1,0,0
 1065.28 170.74 l 1,0,0
EndSplineSet
EndChar

StartChar: uni00B2
Encoding: 178 178 115
Width: 682
GlyphClass: 2
Flags: W
LayerCount: 2
Fore
SplineSet
641.68 727.48 m 1,0,0
 641.68 606.23 l 1,0,0
 46.3 606.23 l 1,0,0
 44.3 715.17 l 1,0,0
 74.64 781.53 74.64 781.53 135.345 842.74 c 0,0,0
 196.05 903.95 196.05 903.95 297.77 973 c 0,0,0
 391.14 1037.04 391.14 1037.04 431.345 1086.44 c 0,0,0
 471.55 1135.84 471.55 1135.84 471.55 1187.9 c 0,0,0
 471.55 1244.62 471.55 1244.62 441.165 1277.17 c 0,0,0
 410.78 1309.72 410.78 1309.72 347.67 1309.72 c 0,0,0
 287.92 1309.72 287.92 1309.72 250.685 1277.18 c 0,0,0
 213.45 1244.64 213.45 1244.64 206.44 1182.91 c 1,0,0
 53.31 1189.92 l 1,0,0
 66.31 1294.28 66.31 1294.28 145.325 1358.465 c 0,0,0
 224.34 1422.65 224.34 1422.65 351.69 1422.65 c 0,0,0
 480.01 1422.65 480.01 1422.65 554.345 1363.13 c 0,0,0
 628.68 1303.61 628.68 1303.61 628.68 1197.24 c 0,0,0
 628.68 1057.5 628.68 1057.5 452.23 932.7 c 0,0,0
 394.2 891.66 394.2 891.66 353.84 860.96 c 0,0,0
 313.48 830.26 313.48 830.26 290.46 809.57 c 0,0,0
 242.75 767.18 242.75 767.18 225.41 727.48 c 1,0,0
 641.68 727.48 l 1,0,0
EndSplineSet
EndChar

StartChar: uni00B3
Encoding: 179 179 116
Width: 682
GlyphClass: 2
Flags: W
LayerCount: 2
Fore
SplineSet
640.68 828 m 0,0,0
 640.68 717.61 640.68 717.61 564.005 656.25 c 0,0,0
 487.33 594.89 487.33 594.89 346.65 594.89 c 0,0,0
 206.29 594.89 206.29 594.89 126.955 650.24 c 0,0,0
 47.62 705.59 47.62 705.59 32.61 815.62 c 1,0,0
 186.1 828.29 l 1,0,0
 201.79 706.48 201.79 706.48 345.66 706.48 c 0,0,0
 486.52 706.48 486.52 706.48 486.52 837.32 c 0,0,0
 486.52 959.8 486.52 959.8 314.02 959.8 c 2,0,0
 254.67 959.8 l 1,0,0
 254.67 1074.41 l 1,0,0
 309.69 1074.41 l 2,0,0
 384.08 1074.41 384.08 1074.41 425.46 1106.285 c 0,0,0
 466.84 1138.16 466.84 1138.16 466.84 1195.9 c 0,0,0
 466.84 1248.97 466.84 1248.97 434.46 1279.345 c 0,0,0
 402.08 1309.72 402.08 1309.72 340.32 1309.72 c 0,0,0
 280.24 1309.72 280.24 1309.72 244.015 1278.845 c 0,0,0
 207.79 1247.97 207.79 1247.97 202.12 1189.9 c 1,0,0
 50.29 1201.9 l 1,0,0
 62.63 1305.95 62.63 1305.95 140.47 1364.3 c 0,0,0
 218.31 1422.65 218.31 1422.65 344.65 1422.65 c 0,0,0
 473.99 1422.65 473.99 1422.65 547.165 1365.79 c 0,0,0
 620.34 1308.93 620.34 1308.93 620.34 1215.22 c 0,0,0
 620.34 1143.85 620.34 1143.85 579.485 1091.985 c 0,0,0
 538.63 1040.12 538.63 1040.12 452.26 1021.44 c 1,0,0
 452.26 1019.44 l 1,0,0
 540.62 1010.44 540.62 1010.44 590.65 960.085 c 0,0,0
 640.68 909.73 640.68 909.73 640.68 828 c 0,0,0
EndSplineSet
EndChar

StartChar: acute
Encoding: 180 180 117
Width: 682
GlyphClass: 2
Flags: W
LayerCount: 2
Fore
SplineSet
529.33 1472.4 m 1,0,0
 196.03 1195.06 l 1,0,0
 76.95 1195.06 l 1,0,0
 76.95 1218.69 l 1,0,0
 305.5 1506.02 l 1,0,0
 529.33 1506.02 l 1,0,0
 529.33 1472.4 l 1,0,0
EndSplineSet
EndChar

StartChar: mu
Encoding: 181 181 118
Width: 1196
GlyphClass: 2
Flags: W
LayerCount: 2
Fore
SplineSet
138.02 -425.33 m 1,0,0
 138.02 1082 l 1,0,0
 352.02 1082 l 1,0,0
 352.02 422.73 l 2,0,0
 352.02 280.77 352.02 280.77 401.89 212.095 c 0,0,0
 451.76 143.42 451.76 143.42 561.19 143.42 c 0,0,0
 676.32 143.42 676.32 143.42 739.915 226.79 c 0,0,0
 803.51 310.16 803.51 310.16 803.51 471.17 c 2,0,0
 803.51 1082 l 1,0,0
 1016.84 1082 l 1,0,0
 1016.18 283.82 l 2,0,0
 1016.18 202.87 1016.18 202.87 1035.005 168.37 c 0,0,0
 1053.83 133.87 1053.83 133.87 1097.81 133.87 c 0,0,0
 1124.45 133.87 1124.45 133.87 1154.45 141.21 c 1,0,0
 1154.45 4.62 l 1,0,0
 1115.85 -6.37 1115.85 -6.37 1084.545 -11.865 c 0,0,0
 1053.24 -17.36 1053.24 -17.36 1019.34 -17.36 c 0,0,0
 923.39 -17.36 923.39 -17.36 874.9 28.815 c 0,0,0
 826.41 74.99 826.41 74.99 819.76 175.32 c 1,0,0
 815.77 175.32 l 1,0,0
 769.37 73.37 769.37 73.37 700.975 26.685 c 0,0,0
 632.58 -20 632.58 -20 541.52 -20 c 0,0,0
 479.47 -20 479.47 -20 429.59 1.655 c 0,0,0
 379.71 23.31 379.71 23.31 351.35 62.63 c 1,0,0
 351.35 -425.33 l 1,0,0
 138.02 -425.33 l 1,0,0
EndSplineSet
EndChar

StartChar: paragraph
Encoding: 182 182 119
Width: 1112
GlyphClass: 2
Flags: W
LayerCount: 2
Fore
SplineSet
566.22 1293.47 m 1,0,0
 566.22 -264 l 1,0,0
 439.36 -264 l 1,0,0
 439.36 694 l 1,0,0
 271.03 694 271.03 694 174.03 786.5 c 0,0,0
 77.03 879 77.03 879 77.03 1049 c 0,0,0
 77.03 1218 77.03 1218 175.53 1313.5 c 0,0,0
 274.03 1409 274.03 1409 447.36 1409 c 2,0,0
 1032.14 1409 l 1,0,0
 1032.14 1293.47 l 1,0,0
 902.48 1293.47 l 1,0,0
 902.48 -264 l 1,0,0
 775.96 -264 l 1,0,0
 775.96 1293.47 l 1,0,0
 566.22 1293.47 l 1,0,0
EndSplineSet
EndChar

StartChar: periodcentered
Encoding: 183 183 120
Width: 682
GlyphClass: 2
Flags: W
LayerCount: 2
Fore
SplineSet
435.03 722.1 m 1,0,0
 435.03 474.05 l 1,0,0
 209.34 474.05 l 1,0,0
 209.34 722.1 l 1,0,0
 435.03 722.1 l 1,0,0
EndSplineSet
EndChar

StartChar: cedilla
Encoding: 184 184 121
Width: 682
GlyphClass: 2
Flags: W
LayerCount: 2
Fore
SplineSet
488.61 -247.06 m 0,0,0
 488.61 -339.05 488.61 -339.05 416.975 -385.04 c 0,0,0
 345.34 -431.03 345.34 -431.03 205.04 -431.03 c 0,0,0
 149.32 -431.03 149.32 -431.03 111.41 -426.37 c 1,0,0
 111.41 -321.77 l 1,0,0
 155.47 -328.1 155.47 -328.1 196.75 -328.1 c 0,0,0
 340.45 -328.1 340.45 -328.1 340.45 -251.06 c 0,0,0
 340.45 -214.05 340.45 -214.05 309.1 -195.375 c 0,0,0
 277.75 -176.7 277.75 -176.7 211.08 -176.7 c 0,0,0
 190.07 -176.7 190.07 -176.7 176.4 -177.2 c 0,0,0
 162.73 -177.7 162.73 -177.7 155.73 -178.7 c 1,0,0
 219.74 0 l 1,0,0
 338.62 0 l 1,0,0
 301.6 -94.06 l 1,0,0
 395.6 -97.72 395.6 -97.72 442.105 -138.385 c 0,0,0
 488.61 -179.05 488.61 -179.05 488.61 -247.06 c 0,0,0
EndSplineSet
EndChar

StartChar: uni00B9
Encoding: 185 185 122
Width: 682
GlyphClass: 2
Flags: W
LayerCount: 2
Fore
SplineSet
630.73 717.85 m 1,0,0
 630.73 606.23 l 1,0,0
 80.66 606.23 l 1,0,0
 80.66 717.85 l 1,0,0
 282.75 717.85 l 1,0,0
 282.75 1287.69 l 1,0,0
 90.32 1159.59 l 1,0,0
 90.32 1280.25 l 1,0,0
 290.42 1410.65 l 1,0,0
 430.58 1410.65 l 1,0,0
 430.58 717.85 l 1,0,0
 630.73 717.85 l 1,0,0
EndSplineSet
EndChar

StartChar: ordmasculine
Encoding: 186 186 123
Width: 748
GlyphClass: 2
Flags: W
LayerCount: 2
Fore
SplineSet
719.7 1052.23 m 0,0,0
 719.7 872.81 719.7 872.81 631.205 774.115 c 0,0,0
 542.71 675.42 542.71 675.42 372.99 675.42 c 0,0,0
 210.27 675.42 210.27 675.42 121.605 773.115 c 0,0,0
 32.94 870.81 32.94 870.81 32.94 1052.23 c 0,0,0
 32.94 1232.32 32.94 1232.32 121.61 1330.015 c 0,0,0
 210.28 1427.71 210.28 1427.71 376.99 1427.71 c 0,0,0
 545.7 1427.71 545.7 1427.71 632.7 1333.015 c 0,0,0
 719.7 1238.32 719.7 1238.32 719.7 1052.23 c 0,0,0
553.87 1052.23 m 0,0,0
 553.87 1190.39 553.87 1190.39 513.65 1250.28 c 0,0,0
 473.43 1310.17 473.43 1310.17 379.66 1310.17 c 0,0,0
 283.21 1310.17 283.21 1310.17 241.665 1248.61 c 0,0,0
 200.12 1187.05 200.12 1187.05 200.12 1052.23 c 0,0,0
 200.12 920.1 200.12 920.1 241.165 856.035 c 0,0,0
 282.21 791.97 282.21 791.97 371.99 791.97 c 0,0,0
 471.11 791.97 471.11 791.97 512.49 854.865 c 0,0,0
 553.87 917.76 553.87 917.76 553.87 1052.23 c 0,0,0
EndSplineSet
EndChar

StartChar: guillemotright
Encoding: 187 187 124
Width: 1139
GlyphClass: 2
Flags: W
LayerCount: 2
Fore
SplineSet
741.76 141 m 1,0,0
 550.66 141 l 1,0,0
 550.66 171.98 l 1,0,0
 861.6 537 l 1,0,0
 552.66 907.02 l 1,0,0
 552.66 940 l 1,0,0
 741.76 940 l 1,0,0
 1053.36 570.32 l 1,0,0
 1053.36 504.68 l 1,0,0
 741.76 141 l 1,0,0
279.4 141 m 1,0,0
 86.3 141 l 1,0,0
 86.3 171.98 l 1,0,0
 397.24 537 l 1,0,0
 88.3 907.02 l 1,0,0
 88.3 940 l 1,0,0
 279.4 940 l 1,0,0
 588.33 570.32 l 1,0,0
 588.33 504.68 l 1,0,0
 279.4 141 l 1,0,0
EndSplineSet
EndChar

StartChar: questiondown
Encoding: 191 191 128
Width: 1251
GlyphClass: 2
Flags: W
LayerCount: 2
Fore
SplineSet
773.49 1082 m 1,0,0
 773.49 858.23 l 1,0,0
 547.47 858.23 l 1,0,0
 547.47 1082 l 1,0,0
 773.49 1082 l 1,0,0
125.39 51.98 m 0,0,0
 125.39 159.7 125.39 159.7 173.245 239.045 c 0,0,0
 221.1 318.39 221.1 318.39 340.1 404.73 c 2,0,0
 419.78 462.41 l 2,0,0
 557.48 562.43 557.48 562.43 560.13 688.83 c 1,0,0
 765.49 688.83 l 1,0,0
 762.83 604.75 762.83 604.75 732.635 543.735 c 0,0,0
 702.44 482.72 702.44 482.72 654.425 436.24 c 0,0,0
 606.41 389.76 606.41 389.76 548.45 349.12 c 0,0,0
 486.83 305.15 486.83 305.15 440.145 264.985 c 0,0,0
 393.46 224.82 393.46 224.82 367.09 176.61 c 0,0,0
 340.72 128.4 340.72 128.4 340.72 61.3 c 0,0,0
 340.72 -44.12 340.72 -44.12 411.62 -105.17 c 0,0,0
 482.52 -166.22 482.52 -166.22 611.3 -166.22 c 0,0,0
 738.43 -166.22 738.43 -166.22 815.975 -99.85 c 0,0,0
 893.52 -33.48 893.52 -33.48 906.86 80.27 c 1,0,0
 1124.19 68.27 l 1,0,0
 1097.86 -131.38 1097.86 -131.38 964.56 -239.69 c 0,0,0
 831.26 -348 831.26 -348 613.96 -348 c 0,0,0
 386.34 -348 386.34 -348 255.865 -241.84 c 0,0,0
 125.39 -135.68 125.39 -135.68 125.39 51.98 c 0,0,0
EndSplineSet
EndChar

StartChar: AE
Encoding: 198 198 135
Width: 2048
GlyphClass: 2
Flags: W
LayerCount: 2
Fore
SplineSet
440.8 394.84 m 1,0,0
 251.38 0 l 1,0,0
 17.4 0 l 1,0,0
 708.02 1409 l 1,0,0
 1921.64 1409 l 1,0,0
 1921.64 1229.57 l 1,0,0
 1181.78 1229.57 l 1,0,0
 1181.78 809.58 l 1,0,0
 1860.98 809.58 l 1,0,0
 1860.98 633.47 l 1,0,0
 1181.78 633.47 l 1,0,0
 1181.78 179.43 l 1,0,0
 1962.64 179.43 l 1,0,0
 1962.64 0 l 1,0,0
 956.46 0 l 1,0,0
 956.46 394.84 l 1,0,0
 440.8 394.84 l 1,0,0
521.36 567.93 m 1,0,0
 956.46 567.93 l 1,0,0
 956.46 1238.9 l 1,0,0
 835.16 1238.9 l 1,0,0
 521.36 567.93 l 1,0,0
EndSplineSet
EndChar

StartChar: Eth
Encoding: 208 208 145
Width: 1479
GlyphClass: 2
Flags: W
LayerCount: 2
Fore
SplineSet
1384.96 717.68 m 0,0,0
 1384.96 493.35 1384.96 493.35 1298.13 332.68 c 0,0,0
 1211.3 172.01 1211.3 172.01 1056.8 86.005 c 0,0,0
 902.3 0 902.3 0 698.96 0 c 2,0,0
 157.77 0 l 1,0,0
 157.77 629.51 l 1,0,0
 12.02 629.51 l 1,0,0
 12.02 804.96 l 1,0,0
 157.77 804.96 l 1,0,0
 157.77 1409 l 1,0,0
 638.29 1409 l 2,0,0
 995.63 1409 995.63 1409 1190.295 1229.5 c 0,0,0
 1384.96 1050 1384.96 1050 1384.96 717.68 c 0,0,0
1158.31 717.68 m 0,0,0
 1158.31 967.47 1158.31 967.47 1023.555 1098.865 c 0,0,0
 888.8 1230.26 888.8 1230.26 633.63 1230.26 c 2,0,0
 383.09 1230.26 l 1,0,0
 383.09 804.96 l 1,0,0
 772.59 804.96 l 1,0,0
 772.59 629.51 l 1,0,0
 383.09 629.51 l 1,0,0
 383.09 178.74 l 1,0,0
 675.97 178.74 l 2,0,0
 824.74 178.74 824.74 178.74 932.985 244.275 c 0,0,0
 1041.23 309.81 1041.23 309.81 1099.77 430.705 c 0,0,0
 1158.31 551.6 1158.31 551.6 1158.31 717.68 c 0,0,0
EndSplineSet
EndChar

StartChar: multiply
Encoding: 215 215 152
Width: 1196
GlyphClass: 2
Flags: W
LayerCount: 2
Fore
SplineSet
600 562.18 m 1,0,0
 244 206.19 l 1,0,0
 123.52 328.68 l 1,0,0
 478.18 684 l 1,0,0
 126.18 1036 l 1,0,0
 248 1156.49 l 1,0,0
 598.66 804.48 l 1,0,0
 949.32 1155.81 l 1,0,0
 1071.81 1033.32 l 1,0,0
 721.15 683.34 l 1,0,0
 1073.15 332 l 1,0,0
 952.67 208.85 l 1,0,0
 600 562.18 l 1,0,0
EndSplineSet
EndChar

StartChar: Oslash
Encoding: 216 216 153
Width: 1593
GlyphClass: 2
Flags: W
LayerCount: 2
Fore
SplineSet
1499.29 711 m 0,0,0
 1499.29 490.67 1499.29 490.67 1412.965 326.17 c 0,0,0
 1326.64 161.67 1326.64 161.67 1168.485 70.835 c 0,0,0
 1010.33 -20 1010.33 -20 794.34 -20 c 0,0,0
 559.22 -20 559.22 -20 398.16 80.45 c 1,0,0
 287.73 -59.27 l 1,0,0
 96.08 -59.6 l 1,0,0
 280.9 173.81 l 1,0,0
 92.71 367.13 92.71 367.13 92.71 711 c 0,0,0
 92.71 937 92.71 937 176.54 1097.665 c 0,0,0
 260.37 1258.33 260.37 1258.33 417.86 1344.165 c 0,0,0
 575.35 1430 575.35 1430 796.34 1430 c 0,0,0
 1026.84 1430 1026.84 1430 1190.54 1331.88 c 1,0,0
 1298.67 1468.31 l 1,0,0
 1491 1468.31 l 1,0,0
 1309.47 1239.18 l 1,0,0
 1404.05 1144.51 1404.05 1144.51 1451.67 1011.39 c 0,0,0
 1499.29 878.27 1499.29 878.27 1499.29 711 c 0,0,0
320.7 711 m 0,0,0
 320.7 490.25 320.7 490.25 416.09 348.18 c 1,0,0
 1067.65 1173.13 l 1,0,0
 954.54 1248.92 954.54 1248.92 796.34 1248.92 c 0,0,0
 568.86 1248.92 568.86 1248.92 444.78 1107.355 c 0,0,0
 320.7 965.79 320.7 965.79 320.7 711 c 0,0,0
1269.31 711 m 0,0,0
 1269.31 927.07 1269.31 927.07 1175.27 1065.47 c 1,0,0
 521.71 239.2 l 1,0,0
 632.81 160.08 632.81 160.08 794.34 160.08 c 0,0,0
 1023.49 160.08 1023.49 160.08 1146.4 303.98 c 0,0,0
 1269.31 447.88 1269.31 447.88 1269.31 711 c 0,0,0
EndSplineSet
EndChar

StartChar: Thorn
Encoding: 222 222 159
Width: 1366
GlyphClass: 2
Flags: W
LayerCount: 2
Fore
SplineSet
1270.54 735.66 m 0,0,0
 1270.54 606.68 1270.54 606.68 1210.885 506.525 c 0,0,0
 1151.23 406.37 1151.23 406.37 1040.25 349.375 c 0,0,0
 929.27 292.38 929.27 292.38 775.97 292.38 c 2,0,0
 383.09 292.38 l 1,0,0
 383.09 0 l 1,0,0
 157.77 0 l 1,0,0
 157.77 1409 l 1,0,0
 383.09 1409 l 1,0,0
 383.09 1163.27 l 1,0,0
 763.97 1163.27 l 2,0,0
 1007.92 1163.27 1007.92 1163.27 1139.23 1051.445 c 0,0,0
 1270.54 939.62 1270.54 939.62 1270.54 735.66 c 0,0,0
1043.89 731.66 m 0,0,0
 1043.89 857.74 1043.89 857.74 967.335 928.115 c 0,0,0
 890.78 998.49 890.78 998.49 737.67 998.49 c 2,0,0
 383.09 998.49 l 1,0,0
 383.09 455.82 l 1,0,0
 745.67 455.82 l 2,0,0
 888.11 455.82 888.11 455.82 966 528.7 c 0,0,0
 1043.89 601.58 1043.89 601.58 1043.89 731.66 c 0,0,0
EndSplineSet
EndChar

StartChar: germandbls
Encoding: 223 223 160
Width: 1251
GlyphClass: 2
Flags: W
LayerCount: 2
Fore
SplineSet
1175.58 300.61 m 0,0,0
 1175.58 146.65 1175.58 146.65 1079.435 63.325 c 0,0,0
 983.29 -20 983.29 -20 808.01 -20 c 0,0,0
 643.93 -20 643.93 -20 531.94 27.02 c 1,0,0
 530.6 204.88 l 1,0,0
 581.94 177.86 581.94 177.86 657.815 158.52 c 0,0,0
 733.69 139.18 733.69 139.18 795.43 139.18 c 0,0,0
 883.8 139.18 883.8 139.18 928.84 179.375 c 0,0,0
 973.88 219.57 973.88 219.57 973.88 291.31 c 0,0,0
 973.88 351.35 973.88 351.35 932.865 400.205 c 0,0,0
 891.85 449.06 891.85 449.06 796.17 508.05 c 0,0,0
 706.48 562.38 706.48 562.38 662.135 628.215 c 0,0,0
 617.79 694.05 617.79 694.05 617.79 776.75 c 0,0,0
 617.79 835.44 617.79 835.44 645.96 884.45 c 0,0,0
 674.13 933.46 674.13 933.46 729.12 980.11 c 0,0,0
 788.11 1030.09 788.11 1030.09 814.115 1071.595 c 0,0,0
 840.12 1113.1 840.12 1113.1 840.12 1161.45 c 0,0,0
 840.12 1234.49 840.12 1234.49 779.885 1278.515 c 0,0,0
 719.65 1322.54 719.65 1322.54 617.58 1322.54 c 0,0,0
 484.43 1322.54 484.43 1322.54 420.045 1247.985 c 0,0,0
 355.66 1173.43 355.66 1173.43 355.66 1018.36 c 2,0,0
 355.66 0 l 1,0,0
 142.33 0 l 1,0,0
 142.33 1020.4 l 2,0,0
 142.33 1249.71 142.33 1249.71 263.13 1366.855 c 0,0,0
 383.93 1484 383.93 1484 618.57 1484 c 0,0,0
 813.85 1484 813.85 1484 928.495 1400.365 c 0,0,0
 1043.14 1316.73 1043.14 1316.73 1043.14 1174.46 c 0,0,0
 1043.14 1099.83 1043.14 1099.83 1012.825 1040.31 c 0,0,0
 982.51 980.79 982.51 980.79 930.47 932.42 c 0,0,0
 886.37 892.33 886.37 892.33 861.88 867.655 c 0,0,0
 837.39 842.98 837.39 842.98 827.43 825.17 c 0,0,0
 817.47 807.36 817.47 807.36 817.47 788.03 c 0,0,0
 817.47 759.3 817.47 759.3 837.205 734.41 c 0,0,0
 856.94 709.52 856.94 709.52 896.63 680.685 c 0,0,0
 936.32 651.85 936.32 651.85 996.86 609.29 c 0,0,0
 1175.58 485.29 1175.58 485.29 1175.58 300.61 c 0,0,0
EndSplineSet
EndChar

StartChar: ae
Encoding: 230 230 167
Width: 1821
GlyphClass: 2
Flags: W
LayerCount: 2
Fore
SplineSet
1707.27 248.54 m 1,0,0
 1604.33 -20 1604.33 -20 1257.69 -20 c 0,0,0
 940.32 -20 940.32 -20 831.06 227.76 c 1,0,0
 756.02 96.01 756.02 96.01 651.68 38.005 c 0,0,0
 547.34 -20 547.34 -20 403.32 -20 c 0,0,0
 238.3 -20 238.3 -20 152.15 66 c 0,0,0
 66 152 66 152 66 303.32 c 0,0,0
 66 646.36 66 646.36 532.8 654.68 c 2,0,0
 772.8 658.68 l 1,0,0
 772.8 716.36 l 2,0,0
 772.8 842.45 772.8 842.45 722.415 896.3 c 0,0,0
 672.03 950.15 672.03 950.15 561.92 950.15 c 0,0,0
 449.45 950.15 449.45 950.15 399.055 911.14 c 0,0,0
 348.66 872.13 348.66 872.13 336.98 784.42 c 1,0,0
 114.33 800.43 l 1,0,0
 138.32 950.06 138.32 950.06 251.795 1026.03 c 0,0,0
 365.27 1102 365.27 1102 567.24 1102 c 0,0,0
 806.35 1102 806.35 1102 910.96 973.56 c 1,0,0
 1033.25 1102 1033.25 1102 1254.32 1102 c 0,0,0
 1491.34 1102 1491.34 1102 1611.66 954.535 c 0,0,0
 1731.98 807.07 1731.98 807.07 1731.98 516.44 c 2,0,0
 1731.98 494.09 l 1,0,0
 992.42 494.09 l 1,0,0
 992.42 315.93 992.42 315.93 1062.81 224.21 c 0,0,0
 1133.2 132.49 1133.2 132.49 1262.31 132.49 c 0,0,0
 1365.12 132.49 1365.12 132.49 1428.03 174.705 c 0,0,0
 1490.94 216.92 1490.94 216.92 1513.96 286.28 c 1,0,0
 1707.27 248.54 l 1,0,0
1517.6 648.26 m 1,0,0
 1504.91 806.06 1504.91 806.06 1438.52 880.27 c 0,0,0
 1372.13 954.48 1372.13 954.48 1250.99 954.48 c 0,0,0
 1133.23 954.48 1133.23 954.48 1066.33 874.425 c 0,0,0
 999.43 794.37 999.43 794.37 994.42 648.26 c 1,0,0
 1517.6 648.26 l 1,0,0
286.64 308.57 m 0,0,0
 286.64 224.87 286.64 224.87 332.515 180 c 0,0,0
 378.39 135.13 378.39 135.13 461.16 135.13 c 0,0,0
 552.94 135.13 552.94 135.13 623 178.15 c 0,0,0
 693.73 220.5 693.73 220.5 733.265 293.875 c 0,0,0
 772.8 367.25 772.8 367.25 772.8 448.63 c 2,0,0
 772.8 523.11 l 1,0,0
 591.99 519.77 l 2,0,0
 470.23 516.44 470.23 516.44 407.47 493.41 c 0,0,0
 346.38 469.38 346.38 469.38 316.51 423.665 c 0,0,0
 286.64 377.95 286.64 377.95 286.64 308.57 c 0,0,0
EndSplineSet
EndChar

StartChar: eth
Encoding: 240 240 177
Width: 1175
GlyphClass: 2
Flags: W
LayerCount: 2
Fore
SplineSet
584.81 -19.34 m 0,0,0
 346.54 -19.34 346.54 -19.34 215.28 110.98 c 0,0,0
 84.02 241.3 84.02 241.3 84.02 480.34 c 0,0,0
 84.02 720.38 84.02 720.38 214.785 848.7 c 0,0,0
 345.55 977.02 345.55 977.02 590.82 977.02 c 0,0,0
 716.26 977.02 716.26 977.02 799.38 926.93 c 1,0,0
 705.23 1116.87 705.23 1116.87 593.1 1226.25 c 1,0,0
 295.07 1096.88 l 1,0,0
 295.07 1233.98 l 1,0,0
 495.91 1320.06 l 1,0,0
 444.54 1361.09 444.54 1361.09 383.055 1402.24 c 0,0,0
 321.57 1443.39 321.57 1443.39 248.63 1484 c 1,0,0
 485.35 1484 l 1,0,0
 571.63 1443.37 571.63 1443.37 652.05 1384.64 c 1,0,0
 945.51 1510.37 l 1,0,0
 944.84 1373.29 l 1,0,0
 763.54 1295.48 l 1,0,0
 930.25 1138.16 930.25 1138.16 1014.445 942.42 c 0,0,0
 1098.64 746.68 1098.64 746.68 1098.64 524.25 c 0,0,0
 1098.64 259.58 1098.64 259.58 967.54 120.12 c 0,0,0
 836.44 -19.34 836.44 -19.34 584.81 -19.34 c 0,0,0
874.99 479.68 m 0,0,0
 874.99 661.12 874.99 661.12 806.965 742.67 c 0,0,0
 738.94 824.22 738.94 824.22 594.82 824.22 c 0,0,0
 447.39 824.22 447.39 824.22 377.695 741.015 c 0,0,0
 308 657.81 308 657.81 308 479.68 c 0,0,0
 308 303.54 308 303.54 376.7 218.005 c 0,0,0
 445.4 132.47 445.4 132.47 581.82 132.47 c 0,0,0
 730.94 132.47 730.94 132.47 802.965 214.855 c 0,0,0
 874.99 297.24 874.99 297.24 874.99 479.68 c 0,0,0
EndSplineSet
EndChar

StartChar: divide
Encoding: 247 247 184
Width: 1124
GlyphClass: 2
Flags: W
LayerCount: 2
Fore
SplineSet
657.22 1158.49 m 1,0,0
 657.22 958.99 l 1,0,0
 466.12 958.99 l 1,0,0
 466.12 1158.49 l 1,0,0
 657.22 1158.49 l 1,0,0
1065.28 766.87 m 1,0,0
 1065.28 595.13 l 1,0,0
 59.72 595.13 l 1,0,0
 59.72 766.87 l 1,0,0
 1065.28 766.87 l 1,0,0
657.22 405.01 m 1,0,0
 657.22 205.51 l 1,0,0
 466.12 205.51 l 1,0,0
 466.12 405.01 l 1,0,0
 657.22 405.01 l 1,0,0
EndSplineSet
EndChar

StartChar: oslash
Encoding: 248 248 185
Width: 1251
GlyphClass: 2
Flags: W
LayerCount: 2
Fore
SplineSet
1131.47 542 m 0,0,0
 1131.47 264.93 1131.47 264.93 999.54 122.465 c 0,0,0
 867.61 -20 867.61 -20 623.01 -20 c 0,0,0
 430 -20 430 -20 306.38 75.03 c 1,0,0
 202.09 -43.61 l 1,0,0
 29.81 -43.61 l 1,0,0
 218.1 170.72 l 1,0,0
 123.55 311.7 123.55 311.7 123.55 542 c 0,0,0
 123.55 815.73 123.55 815.73 252.475 958.865 c 0,0,0
 381.4 1102 381.4 1102 629.01 1102 c 0,0,0
 829.35 1102 829.35 1102 949.63 1013.64 c 1,0,0
 1043.93 1121.61 l 1,0,0
 1216.54 1121.61 l 1,0,0
 1039.91 918.96 l 1,0,0
 1131.47 782.66 1131.47 782.66 1131.47 542 c 0,0,0
347.53 542 m 0,0,0
 347.53 425.87 347.53 425.87 369.22 344.16 c 1,0,0
 826.47 872.16 l 1,0,0
 761.78 949.2 761.78 949.2 632.34 949.2 c 0,0,0
 484.24 949.2 484.24 949.2 415.885 849.66 c 0,0,0
 347.53 750.12 347.53 750.12 347.53 542 c 0,0,0
907.82 542 m 0,0,0
 907.82 659.1 907.82 659.1 887.13 743.53 c 1,0,0
 429.21 215.19 l 1,0,0
 494.56 132.47 494.56 132.47 620.68 132.47 c 0,0,0
 772.12 132.47 772.12 132.47 839.97 232.675 c 0,0,0
 907.82 332.88 907.82 332.88 907.82 542 c 0,0,0
EndSplineSet
EndChar

StartChar: thorn
Encoding: 254 254 191
Width: 1175
GlyphClass: 2
Flags: W
LayerCount: 2
Fore
SplineSet
352.98 -4.64 m 2,0,0
 352.98 -425 l 1,0,0
 139.65 -425 l 1,0,0
 139.65 1484 l 1,0,0
 352.98 1484 l 1,0,0
 352.98 1048.13 l 2,0,0
 352.98 1012.83 352.98 1012.83 351.815 973.175 c 0,0,0
 350.65 933.52 350.65 933.52 348.98 890.18 c 1,0,0
 354.32 890.18 l 1,0,0
 401.99 990.18 401.99 990.18 483.63 1037.67 c 0,0,0
 565.27 1085.16 565.27 1085.16 692.95 1085.16 c 0,0,0
 889.98 1085.16 889.98 1085.16 990.3 949.015 c 0,0,0
 1090.62 812.87 1090.62 812.87 1090.62 537.42 c 0,0,0
 1090.62 263 1090.62 263 988.15 121.5 c 0,0,0
 885.68 -20 885.68 -20 687.01 -20 c 0,0,0
 441.96 -20 441.96 -20 353.65 169.32 c 1,0,0
 348.32 169.32 l 1,0,0
 352.98 154.73 352.98 154.73 352.98 -4.64 c 2,0,0
867.3 534.74 m 0,0,0
 867.3 742.92 867.3 742.92 808.115 835.3 c 0,0,0
 748.93 927.68 748.93 927.68 622.86 927.68 c 0,0,0
 484.4 927.68 484.4 927.68 418.03 828.81 c 0,0,0
 351.66 729.94 351.66 729.94 351.66 522.72 c 0,0,0
 351.66 326.22 351.66 326.22 416.855 229.345 c 0,0,0
 482.05 132.47 482.05 132.47 620.86 132.47 c 0,0,0
 747.93 132.47 747.93 132.47 807.615 227.175 c 0,0,0
 867.3 321.88 867.3 321.88 867.3 534.74 c 0,0,0
EndSplineSet
EndChar

StartChar: dcroat
Encoding: 273 273 210
Width: 1175
GlyphClass: 2
Flags: W
LayerCount: 2
Fore
SplineSet
822.98 1339.64 m 1,0,0
 822.98 1484 l 1,0,0
 1036.64 1484 l 1,0,0
 1036.64 1339.64 l 1,0,0
 1168.64 1339.64 l 1,0,0
 1168.64 1195.77 l 1,0,0
 1036.64 1195.77 l 1,0,0
 1036.64 227.29 l 2,0,0
 1036.64 153.84 1036.64 153.84 1038.305 97.185 c 0,0,0
 1039.97 40.53 1039.97 40.53 1043.3 0 c 1,0,0
 838.3 0 l 1,0,0
 836.3 10.67 836.3 10.67 833.305 41.665 c 0,0,0
 830.31 72.66 830.31 72.66 828.48 109.99 c 0,0,0
 826.65 147.32 826.65 147.32 826.65 174.66 c 1,0,0
 822.65 174.66 l 1,0,0
 773.97 72.64 773.97 72.64 690.15 26.32 c 0,0,0
 606.33 -20 606.33 -20 482.35 -20 c 0,0,0
 282.96 -20 282.96 -20 184.15 119.155 c 0,0,0
 85.34 258.31 85.34 258.31 85.34 531.05 c 0,0,0
 85.34 806.46 85.34 806.46 187.645 947.63 c 0,0,0
 289.95 1088.8 289.95 1088.8 489.28 1088.8 c 0,0,0
 609.64 1088.8 609.64 1088.8 692.135 1042.81 c 0,0,0
 774.63 996.82 774.63 996.82 822.98 899.81 c 1,0,0
 824.98 899.81 l 1,0,0
 822.98 1039.62 l 1,0,0
 822.98 1195.77 l 1,0,0
 527.6 1195.77 l 1,0,0
 527.6 1339.64 l 1,0,0
 822.98 1339.64 l 1,0,0
308.66 535.4 m 0,0,0
 308.66 325.56 308.66 325.56 367.175 231.025 c 0,0,0
 425.69 136.49 425.69 136.49 552.44 136.49 c 0,0,0
 692.24 136.49 692.24 136.49 758.27 238.365 c 0,0,0
 824.3 340.24 824.3 340.24 824.3 545.75 c 0,0,0
 824.3 744.91 824.3 744.91 758.93 841.28 c 0,0,0
 693.56 937.65 693.56 937.65 554.44 937.65 c 0,0,0
 426.03 937.65 426.03 937.65 367.345 842.265 c 0,0,0
 308.66 746.88 308.66 746.88 308.66 535.4 c 0,0,0
EndSplineSet
EndChar

StartChar: Hbar
Encoding: 294 294 231
Width: 1479
GlyphClass: 2
Flags: W
LayerCount: 2
Fore
SplineSet
383.09 636.83 m 1,0,0
 383.09 0 l 1,0,0
 157.77 0 l 1,0,0
 157.77 1031.6 l 1,0,0
 14 1031.6 l 1,0,0
 14 1190.88 l 1,0,0
 157.77 1190.88 l 1,0,0
 157.77 1409 l 1,0,0
 383.09 1409 l 1,0,0
 383.09 1190.88 l 1,0,0
 1103.23 1190.88 l 1,0,0
 1103.23 1409 l 1,0,0
 1321.57 1409 l 1,0,0
 1321.57 1190.88 l 1,0,0
 1465 1190.88 l 1,0,0
 1465 1031.6 l 1,0,0
 1321.57 1031.6 l 1,0,0
 1321.57 0 l 1,0,0
 1103.23 0 l 1,0,0
 1103.23 636.83 l 1,0,0
 383.09 636.83 l 1,0,0
383.09 824.55 m 1,0,0
 1103.23 824.55 l 1,0,0
 1103.23 1031.6 l 1,0,0
 383.09 1031.6 l 1,0,0
 383.09 824.55 l 1,0,0
EndSplineSet
EndChar

StartChar: hbar
Encoding: 295 295 232
Width: 1175
GlyphClass: 2
Flags: W
LayerCount: 2
Fore
SplineSet
350.99 846.77 m 1,0,0
 408.66 958.71 408.66 958.71 491.645 1010.355 c 0,0,0
 574.63 1062 574.63 1062 697.65 1062 c 0,0,0
 872.33 1062 872.33 1062 958.635 964.04 c 0,0,0
 1044.94 866.08 1044.94 866.08 1044.94 669.45 c 2,0,0
 1044.94 0 l 1,0,0
 831.27 0 l 1,0,0
 831.27 619.6 l 2,0,0
 831.27 763.94 831.27 763.94 783.605 831.59 c 0,0,0
 735.94 899.24 735.94 899.24 618.17 899.24 c 0,0,0
 499.42 899.24 499.42 899.24 427.54 811.405 c 0,0,0
 355.66 723.57 355.66 723.57 355.66 578.53 c 2,0,0
 355.66 0 l 1,0,0
 142.33 0 l 1,0,0
 142.33 1195.77 l 1,0,0
 10 1195.77 l 1,0,0
 10 1339.64 l 1,0,0
 142.33 1339.64 l 1,0,0
 142.33 1484 l 1,0,0
 355.66 1484 l 1,0,0
 355.66 1339.64 l 1,0,0
 657.64 1339.64 l 1,0,0
 657.64 1195.77 l 1,0,0
 355.66 1195.77 l 1,0,0
 355.66 1051.73 l 2,0,0
 355.66 1013.05 355.66 1013.05 353.99 971.355 c 0,0,0
 352.32 929.66 352.32 929.66 350.82 896.335 c 0,0,0
 349.32 863.01 349.32 863.01 347.66 846.77 c 1,0,0
 350.99 846.77 l 1,0,0
EndSplineSet
EndChar

StartChar: dotlessi
Encoding: 305 305 242
Width: 569
GlyphClass: 2
Flags: W
LayerCount: 2
Fore
SplineSet
391.16 1082 m 1,0,0
 391.16 0 l 1,0,0
 177.83 0 l 1,0,0
 177.83 1082 l 1,0,0
 391.16 1082 l 1,0,0
EndSplineSet
EndChar

StartChar: jcircumflex
Encoding: 309 309 246
Width: 492
GlyphClass: 2
Flags: W
LayerCount: 2
Fore
SplineSet
248.84 1371.65 m 1,0,0
 23.77 1195.06 l 1,0,0
 -98.71 1195.06 l 1,0,0
 -98.71 1217.7 l 1,0,0
 143.21 1503.54 l 1,0,0
 355.46 1503.54 l 1,0,0
 588.04 1217.7 l 1,0,0
 588.04 1195.06 l 1,0,0
 465.22 1195.06 l 1,0,0
 251.5 1371.65 l 1,0,0
 248.84 1371.65 l 1,0,0
97.13 -425 m 0,0,0
 12.2 -425 12.2 -425 -44.06 -416 c 1,0,0
 -44.06 -257.53 l 1,0,0
 14.31 -262.87 l 1,0,0
 84.3 -262.87 84.3 -262.87 111.805 -228.355 c 0,0,0
 139.31 -193.84 139.31 -193.84 139.31 -91.49 c 2,0,0
 139.31 1082 l 1,0,0
 352.64 1082 l 1,0,0
 352.64 -132.02 l 2,0,0
 352.64 -281.72 352.64 -281.72 288.515 -353.36 c 0,0,0
 224.39 -425 224.39 -425 97.13 -425 c 0,0,0
EndSplineSet
EndChar

StartChar: kgreenlandic
Encoding: 312 312 249
Width: 1061
GlyphClass: 2
Flags: W
LayerCount: 2
Fore
SplineSet
352.98 392.6 m 1,0,0
 352.98 0 l 1,0,0
 139.65 0 l 1,0,0
 139.65 1082 l 1,0,0
 352.98 1082 l 1,0,0
 352.98 582.41 l 1,0,0
 798.61 1082 l 1,0,0
 1039.64 1082 l 1,0,0
 620.11 631.19 l 1,0,0
 1064.62 0 l 1,0,0
 821.94 0 l 1,0,0
 481.35 492.68 l 1,0,0
 352.98 392.6 l 1,0,0
EndSplineSet
EndChar

StartChar: Lslash
Encoding: 321 321 258
Width: 1175
GlyphClass: 2
Flags: W
LayerCount: 2
Fore
SplineSet
157.44 0 m 1,0,0
 157.77 519.85 l 1,0,0
 13.4 441.45 l 1,0,0
 13.4 621.56 l 1,0,0
 157.77 700.29 l 1,0,0
 157.77 1409 l 1,0,0
 383.09 1409 l 1,0,0
 383.09 820.52 l 1,0,0
 656.59 968.19 l 1,0,0
 656.59 789.41 l 1,0,0
 383.09 641.07 l 1,0,0
 383.09 180.75 l 1,0,0
 1109.61 180.75 l 1,0,0
 1109.61 0 l 1,0,0
 157.44 0 l 1,0,0
EndSplineSet
EndChar

StartChar: lslash
Encoding: 322 322 259
Width: 492
GlyphClass: 2
Flags: W
LayerCount: 2
Fore
SplineSet
139.65 0 m 1,0,0
 139.65 548.27 l 1,0,0
 16.66 479.94 l 1,0,0
 16.66 656.75 l 1,0,0
 139.65 725.08 l 1,0,0
 139.65 1484 l 1,0,0
 352.98 1484 l 1,0,0
 352.98 846.24 l 1,0,0
 478.63 918.9 l 1,0,0
 478.63 742.08 l 1,0,0
 352.98 669.43 l 1,0,0
 352.98 0 l 1,0,0
 139.65 0 l 1,0,0
EndSplineSet
EndChar

StartChar: eng
Encoding: 331 331 267
Width: 1175
GlyphClass: 2
Flags: W
LayerCount: 2
Fore
SplineSet
791.44 -425 m 0,0,0
 707.18 -425 707.18 -425 650.25 -416 c 1,0,0
 650.25 -257.53 l 1,0,0
 708.62 -262.87 l 1,0,0
 779.27 -262.87 779.27 -262.87 806.61 -228.025 c 0,0,0
 833.95 -193.18 833.95 -193.18 833.95 -91.49 c 2,0,0
 833.95 659.93 l 2,0,0
 833.95 804.94 833.95 804.94 787.96 872.255 c 0,0,0
 741.97 939.57 741.97 939.57 620.85 939.57 c 0,0,0
 500.09 939.57 500.09 939.57 429.215 851.065 c 0,0,0
 358.34 762.56 358.34 762.56 358.34 611.49 c 2,0,0
 358.34 0 l 1,0,0
 145.01 0 l 1,0,0
 145.01 847.37 l 2,0,0
 145.01 939.73 145.01 939.73 143.18 996.57 c 0,0,0
 141.35 1053.41 141.35 1053.41 138.35 1082 c 1,0,0
 340.69 1082 l 1,0,0
 342.02 1076.03 342.02 1076.03 343.68 1048.28 c 0,0,0
 345.34 1020.53 345.34 1020.53 347.505 978.72 c 0,0,0
 349.67 936.91 349.67 936.91 350.34 887.1 c 1,0,0
 353.67 887.1 l 1,0,0
 414.02 1003.06 414.02 1003.06 497.005 1052.695 c 0,0,0
 579.99 1102.33 579.99 1102.33 700.33 1102.33 c 0,0,0
 876.35 1102.33 876.35 1102.33 961.985 1008.055 c 0,0,0
 1047.62 913.78 1047.62 913.78 1047.62 709.78 c 2,0,0
 1047.62 -132.02 l 2,0,0
 1047.62 -280.38 1047.62 -280.38 983.495 -352.69 c 0,0,0
 919.37 -425 919.37 -425 791.44 -425 c 0,0,0
EndSplineSet
EndChar

StartChar: OE
Encoding: 338 338 274
Width: 2048
GlyphClass: 2
Flags: W
LayerCount: 2
Fore
SplineSet
996.69 0 m 1,0,0
 961.37 -4.01 961.37 -4.01 908.375 -7.005 c 0,0,0
 855.38 -10 855.38 -10 790.32 -10 c 0,0,0
 573.01 -10 573.01 -10 416.355 76.835 c 0,0,0
 259.7 163.67 259.7 163.67 176.205 325.34 c 0,0,0
 92.71 487.01 92.71 487.01 92.71 711 c 0,0,0
 92.71 934.32 92.71 934.32 176.205 1092.655 c 0,0,0
 259.7 1250.99 259.7 1250.99 416.355 1335.495 c 0,0,0
 573.01 1420 573.01 1420 792.32 1420 c 0,0,0
 839.38 1420 839.38 1420 892.055 1417 c 0,0,0
 944.73 1414 944.73 1414 1001.35 1409 c 1,0,0
 1920.3 1409 l 1,0,0
 1920.3 1229.57 l 1,0,0
 1162.18 1229.57 l 1,0,0
 1162.18 809.58 l 1,0,0
 1859.97 809.58 l 1,0,0
 1859.97 633.47 l 1,0,0
 1162.18 633.47 l 1,0,0
 1162.18 179.43 l 1,0,0
 1961.3 179.43 l 1,0,0
 1961.3 0 l 1,0,0
 996.69 0 l 1,0,0
936.2 1229.97 m 1,0,0
 894.5 1235.95 894.5 1235.95 856.52 1237.435 c 0,0,0
 818.54 1238.92 818.54 1238.92 792.32 1238.92 c 0,0,0
 562.17 1238.92 562.17 1238.92 441.435 1102.025 c 0,0,0
 320.7 965.13 320.7 965.13 320.7 711 c 0,0,0
 320.7 455.87 320.7 455.87 444.94 313.14 c 0,0,0
 569.18 170.41 569.18 170.41 790.32 170.41 c 0,0,0
 836.93 170.41 836.93 170.41 873.4 172.73 c 0,0,0
 909.87 175.05 909.87 175.05 936.2 179.69 c 1,0,0
 936.2 1229.97 l 1,0,0
EndSplineSet
EndChar

StartChar: oe
Encoding: 339 339 275
Width: 1933
GlyphClass: 2
Flags: W
LayerCount: 2
Fore
SplineSet
1103.99 494.09 m 1,0,0
 1103.99 321.29 1103.99 321.29 1175.05 226.89 c 0,0,0
 1246.11 132.49 1246.11 132.49 1380.58 132.49 c 0,0,0
 1483.39 132.49 1483.39 132.49 1546.3 174.705 c 0,0,0
 1609.21 216.92 1609.21 216.92 1632.23 286.28 c 1,0,0
 1825.54 248.54 l 1,0,0
 1722.6 -20 1722.6 -20 1375.96 -20 c 0,0,0
 1113.84 -20 1113.84 -20 988.87 155.08 c 1,0,0
 858.27 -20 858.27 -20 590.18 -20 c 0,0,0
 347.23 -20 347.23 -20 215.625 126.315 c 0,0,0
 84.02 272.63 84.02 272.63 84.02 542 c 0,0,0
 84.02 815.06 84.02 815.06 216.295 958.53 c 0,0,0
 348.57 1102 348.57 1102 596.18 1102 c 0,0,0
 868.93 1102 868.93 1102 992.86 932.92 c 1,0,0
 1121.5 1102 1121.5 1102 1372.59 1102 c 0,0,0
 1609.61 1102 1609.61 1102 1729.93 954.535 c 0,0,0
 1850.25 807.07 1850.25 807.07 1850.25 516.44 c 2,0,0
 1850.25 494.09 l 1,0,0
 1103.99 494.09 l 1,0,0
879.68 542 m 0,0,0
 879.68 752.42 879.68 752.42 812.66 850.81 c 0,0,0
 745.64 949.2 745.64 949.2 599.51 949.2 c 0,0,0
 448.73 949.2 448.73 949.2 378.365 847.65 c 0,0,0
 308 746.1 308 746.1 308 542 c 0,0,0
 308 338.89 308 338.89 378.54 235.68 c 0,0,0
 449.08 132.47 449.08 132.47 587.85 132.47 c 0,0,0
 740.63 132.47 740.63 132.47 810.155 232.675 c 0,0,0
 879.68 332.88 879.68 332.88 879.68 542 c 0,0,0
1369.26 954.48 m 0,0,0
 1248.82 954.48 1248.82 954.48 1179.91 873.085 c 0,0,0
 1111 791.69 1111 791.69 1105.99 648.26 c 1,0,0
 1635.87 648.26 l 1,0,0
 1623.18 806.06 1623.18 806.06 1556.79 880.27 c 0,0,0
 1490.4 954.48 1490.4 954.48 1369.26 954.48 c 0,0,0
EndSplineSet
EndChar

StartChar: Tbar
Encoding: 358 358 294
Width: 1251
GlyphClass: 2
Flags: W
LayerCount: 2
Fore
SplineSet
737.49 640.07 m 1,0,0
 737.49 0 l 1,0,0
 512.84 0 l 1,0,0
 512.84 640.07 l 1,0,0
 251 640.07 l 1,0,0
 251 805.95 l 1,0,0
 512.84 805.95 l 1,0,0
 512.84 1229.24 l 1,0,0
 38.41 1229.24 l 1,0,0
 38.41 1409 l 1,0,0
 1212.25 1409 l 1,0,0
 1212.25 1229.24 l 1,0,0
 737.49 1229.24 l 1,0,0
 737.49 805.95 l 1,0,0
 1001 805.95 l 1,0,0
 1001 640.07 l 1,0,0
 737.49 640.07 l 1,0,0
EndSplineSet
EndChar

StartChar: tbar
Encoding: 359 359 295
Width: 606
GlyphClass: 2
Flags: W
LayerCount: 2
Fore
SplineSet
387.84 -16.66 m 0,0,0
 274.56 -16.66 274.56 -16.66 216.27 46.82 c 0,0,0
 157.98 110.3 157.98 110.3 157.98 237.25 c 2,0,0
 157.98 501.81 l 1,0,0
 32.32 501.81 l 1,0,0
 32.32 652.28 l 1,0,0
 157.98 652.28 l 1,0,0
 157.98 931.53 l 1,0,0
 29.02 931.53 l 1,0,0
 29.02 1082 l 1,0,0
 167.29 1082 l 1,0,0
 231.84 1327.96 l 1,0,0
 370.32 1327.96 l 1,0,0
 370.32 1082 l 1,0,0
 571.97 1082 l 1,0,0
 571.97 931.53 l 1,0,0
 370.32 931.53 l 1,0,0
 370.32 652.28 l 1,0,0
 565.37 652.28 l 1,0,0
 565.37 501.81 l 1,0,0
 370.32 501.81 l 1,0,0
 370.32 288.46 l 2,0,0
 370.32 210.13 370.32 210.13 397.305 176.65 c 0,0,0
 424.29 143.17 424.29 143.17 487.29 143.17 c 0,0,0
 519.97 143.17 519.97 143.17 587.99 157.17 c 1,0,0
 587.99 10.64 l 1,0,0
 495.37 -16.66 495.37 -16.66 387.84 -16.66 c 0,0,0
EndSplineSet
EndChar

StartChar: longs
Encoding: 383 383 319
Width: 492
GlyphClass: 2
Flags: W
LayerCount: 2
Fore
SplineSet
352.32 1175.04 m 2,0,0
 352.32 0 l 1,0,0
 139.32 0 l 1,0,0
 139.32 1201.03 l 2,0,0
 139.32 1348.7 139.32 1348.7 208.61 1415.68 c 0,0,0
 277.9 1482.66 277.9 1482.66 420.15 1482.66 c 0,0,0
 497.46 1482.66 497.46 1482.66 563.98 1469.34 c 1,0,0
 563.98 1317.82 l 1,0,0
 518.62 1326.15 518.62 1326.15 483.32 1326.15 c 0,0,0
 413.33 1326.15 413.33 1326.15 382.825 1293.295 c 0,0,0
 352.32 1260.44 352.32 1260.44 352.32 1175.04 c 2,0,0
EndSplineSet
EndChar

StartChar: uni0180
Encoding: 384 384 320
Width: 1175
GlyphClass: 2
Flags: W
LayerCount: 2
Fore
SplineSet
1090.62 539.07 m 0,0,0
 1090.62 262.34 1090.62 262.34 988.81 121.17 c 0,0,0
 887 -20 887 -20 687.01 -20 c 0,0,0
 566.32 -20 566.32 -20 483.83 26.48 c 0,0,0
 401.34 72.96 401.34 72.96 352.98 169.98 c 1,0,0
 350.98 169.98 l 1,0,0
 350.98 148.99 350.98 148.99 348.98 111.32 c 0,0,0
 346.98 73.65 346.98 73.65 344.65 41.15 c 0,0,0
 342.32 8.65 342.32 8.65 339.66 0 c 1,0,0
 132.99 0 l 1,0,0
 136.32 33.6 136.32 33.6 137.985 91.08 c 0,0,0
 139.65 148.56 139.65 148.56 139.65 230.92 c 2,0,0
 139.65 1195.77 l 1,0,0
 10.67 1195.77 l 1,0,0
 10.67 1339.64 l 1,0,0
 139.65 1339.64 l 1,0,0
 139.65 1484 l 1,0,0
 352.98 1484 l 1,0,0
 352.98 1339.64 l 1,0,0
 659.63 1339.64 l 1,0,0
 659.63 1195.77 l 1,0,0
 352.98 1195.77 l 1,0,0
 352.98 1050.77 l 2,0,0
 352.98 1014.81 352.98 1014.81 351.815 974.495 c 0,0,0
 350.65 934.18 350.65 934.18 348.98 890.18 c 1,0,0
 352.98 890.18 l 1,0,0
 401.99 994.18 401.99 994.18 485.975 1041.49 c 0,0,0
 569.96 1088.8 569.96 1088.8 692.95 1088.8 c 0,0,0
 894.32 1088.8 894.32 1088.8 992.47 950.965 c 0,0,0
 1090.62 813.13 1090.62 813.13 1090.62 539.07 c 0,0,0
867.3 535.05 m 0,0,0
 867.3 745.88 867.3 745.88 809.61 838.6 c 0,0,0
 751.92 931.32 751.92 931.32 623.52 931.32 c 0,0,0
 482.08 931.32 482.08 931.32 416.87 832.105 c 0,0,0
 351.66 732.89 351.66 732.89 351.66 524.71 c 0,0,0
 351.66 326.89 351.66 326.89 415.535 229.68 c 0,0,0
 479.41 132.47 479.41 132.47 621.52 132.47 c 0,0,0
 750.92 132.47 750.92 132.47 809.11 228.185 c 0,0,0
 867.3 323.9 867.3 323.9 867.3 535.05 c 0,0,0
EndSplineSet
EndChar

StartChar: uni0181
Encoding: 385 385 321
Width: 1605
GlyphClass: 2
Flags: W
LayerCount: 2
Fore
SplineSet
1497.71 398.65 m 0,0,0
 1497.71 209.33 1497.71 209.33 1358.4 104.665 c 0,0,0
 1219.09 0 1219.09 0 971.13 0 c 2,0,0
 355.24 0 l 1,0,0
 355.24 1239.22 l 1,0,0
 326.57 1239.22 l 2,0,0
 252.87 1239.22 252.87 1239.22 219.87 1207.365 c 0,0,0
 186.87 1175.51 186.87 1175.51 186.87 1109.79 c 0,0,0
 186.87 1059.47 186.87 1059.47 209.16 995.22 c 1,0,0
 34.69 978.22 l 1,0,0
 13.4 1063.79 13.4 1063.79 13.4 1135 c 0,0,0
 13.4 1264.01 13.4 1264.01 101.215 1336.505 c 0,0,0
 189.03 1409 189.03 1409 342.04 1409 c 2,0,0
 911.13 1409 l 2,0,0
 1416.04 1409 1416.04 1409 1416.04 1063.04 c 0,0,0
 1416.04 939.69 1416.04 939.69 1347.195 855.515 c 0,0,0
 1278.35 771.34 1278.35 771.34 1147.71 742.34 c 1,0,0
 1316.7 722.34 1316.7 722.34 1407.205 631.49 c 0,0,0
 1497.71 540.64 1497.71 540.64 1497.71 398.65 c 0,0,0
1189.39 1034.43 m 0,0,0
 1189.39 1142.16 1189.39 1142.16 1117 1188.19 c 0,0,0
 1044.61 1234.22 1044.61 1234.22 906.51 1234.22 c 2,0,0
 580.56 1234.22 l 1,0,0
 580.56 820.23 l 1,0,0
 907.17 820.23 l 2,0,0
 1050.93 820.23 1050.93 820.23 1120.16 873.11 c 0,0,0
 1189.39 925.99 1189.39 925.99 1189.39 1034.43 c 0,0,0
1270.72 416.29 m 0,0,0
 1270.72 648.46 1270.72 648.46 942.5 648.46 c 2,0,0
 580.56 648.46 l 1,0,0
 580.56 174.78 l 1,0,0
 956.18 174.78 l 2,0,0
 1119.96 174.78 1119.96 174.78 1195.34 235.325 c 0,0,0
 1270.72 295.87 1270.72 295.87 1270.72 416.29 c 0,0,0
EndSplineSet
EndChar

StartChar: uni0182
Encoding: 386 386 322
Width: 1386
GlyphClass: 2
Flags: W
LayerCount: 2
Fore
SplineSet
1304.91 418.94 m 0,0,0
 1304.91 293.95 1304.91 293.95 1245.26 199.465 c 0,0,0
 1185.61 104.98 1185.61 104.98 1074.305 52.49 c 0,0,0
 963 0 963 0 808.03 0 c 2,0,0
 157.77 0 l 1,0,0
 157.77 1409 l 1,0,0
 1145.07 1409 l 1,0,0
 1145.07 1229.57 l 1,0,0
 383.09 1229.57 l 1,0,0
 383.09 822.24 l 1,0,0
 810.55 822.24 l 2,0,0
 1046.88 822.24 1046.88 822.24 1175.895 716.415 c 0,0,0
 1304.91 610.59 1304.91 610.59 1304.91 418.94 c 0,0,0
1077.6 415.62 m 0,0,0
 1077.6 527.38 1077.6 527.38 999.89 587.92 c 0,0,0
 922.18 648.46 922.18 648.46 766.76 648.46 c 2,0,0
 383.09 648.46 l 1,0,0
 383.09 173.44 l 1,0,0
 774.1 173.44 l 2,0,0
 928.53 173.44 928.53 173.44 1003.065 235.995 c 0,0,0
 1077.6 298.55 1077.6 298.55 1077.6 415.62 c 0,0,0
EndSplineSet
EndChar

StartChar: uni0183
Encoding: 387 387 323
Width: 1175
GlyphClass: 2
Flags: W
LayerCount: 2
Fore
SplineSet
1090.62 539.07 m 0,0,0
 1090.62 264.32 1090.62 264.32 987.82 122.16 c 0,0,0
 885.02 -20 885.02 -20 687.01 -20 c 0,0,0
 566.32 -20 566.32 -20 483.83 26.48 c 0,0,0
 401.34 72.96 401.34 72.96 352.98 169.98 c 1,0,0
 350.98 169.98 l 1,0,0
 350.98 148.99 350.98 148.99 348.98 111.32 c 0,0,0
 346.98 73.65 346.98 73.65 344.65 41.15 c 0,0,0
 342.32 8.65 342.32 8.65 339.66 0 c 1,0,0
 132.99 0 l 1,0,0
 136.32 33.6 136.32 33.6 137.985 91.08 c 0,0,0
 139.65 148.56 139.65 148.56 139.65 230.92 c 2,0,0
 139.65 1484 l 1,0,0
 882.99 1484 l 1,0,0
 882.99 1307.18 l 1,0,0
 352.98 1307.18 l 1,0,0
 352.98 1050.77 l 2,0,0
 352.98 1014.81 352.98 1014.81 351.815 974.495 c 0,0,0
 350.65 934.18 350.65 934.18 348.98 890.18 c 1,0,0
 352.98 890.18 l 1,0,0
 401.99 994.18 401.99 994.18 485.975 1041.49 c 0,0,0
 569.96 1088.8 569.96 1088.8 692.95 1088.8 c 0,0,0
 892.34 1088.8 892.34 1088.8 991.48 949.975 c 0,0,0
 1090.62 811.15 1090.62 811.15 1090.62 539.07 c 0,0,0
867.3 535.05 m 0,0,0
 867.3 743.57 867.3 743.57 808.785 837.445 c 0,0,0
 750.27 931.32 750.27 931.32 623.52 931.32 c 0,0,0
 485.05 931.32 485.05 931.32 418.355 831.775 c 0,0,0
 351.66 732.23 351.66 732.23 351.66 524.71 c 0,0,0
 351.66 328.21 351.66 328.21 416.855 230.34 c 0,0,0
 482.05 132.47 482.05 132.47 621.52 132.47 c 0,0,0
 749.6 132.47 749.6 132.47 808.45 229.01 c 0,0,0
 867.3 325.55 867.3 325.55 867.3 535.05 c 0,0,0
EndSplineSet
EndChar

StartChar: uni0184
Encoding: 388 388 324
Width: 1386
GlyphClass: 2
Flags: W
LayerCount: 2
Fore
SplineSet
1304.91 422.29 m 0,0,0
 1304.91 296.97 1304.91 296.97 1245.92 201.98 c 0,0,0
 1186.93 106.32 1186.93 106.32 1073.96 53.16 c 0,0,0
 960.99 0 960.99 0 808.03 0 c 2,0,0
 157.77 0 l 1,0,0
 157.77 1008.36 l 1,0,0
 6.7 1166.1 l 1,0,0
 6.7 1200.09 l 1,0,0
 320.82 1409 l 1,0,0
 383.09 1409 l 1,0,0
 383.09 828.94 l 1,0,0
 810.55 828.94 l 2,0,0
 1047.55 828.94 1047.55 828.94 1176.23 721.44 c 0,0,0
 1304.91 613.94 1304.91 613.94 1304.91 422.29 c 0,0,0
1077.6 418.97 m 0,0,0
 1077.6 530.06 1077.6 530.06 999.555 592.61 c 0,0,0
 921.51 655.16 921.51 655.16 766.76 655.16 c 2,0,0
 383.09 655.16 l 1,0,0
 383.09 173.44 l 1,0,0
 774.1 173.44 l 2,0,0
 928.53 173.44 928.53 173.44 1003.065 237.67 c 0,0,0
 1077.6 301.9 1077.6 301.9 1077.6 418.97 c 0,0,0
EndSplineSet
EndChar

StartChar: uni0185
Encoding: 389 389 325
Width: 1175
GlyphClass: 2
Flags: W
LayerCount: 2
Fore
SplineSet
1090.62 545.67 m 0,0,0
 1090.62 267.62 1090.62 267.62 988.48 123.81 c 0,0,0
 886.34 -20 886.34 -20 687.01 -20 c 0,0,0
 566.32 -20 566.32 -20 483.83 26.48 c 0,0,0
 401.34 72.96 401.34 72.96 352.98 169.98 c 1,0,0
 350.98 169.98 l 1,0,0
 350.98 148.99 350.98 148.99 348.98 111.32 c 0,0,0
 346.98 73.65 346.98 73.65 344.65 41.15 c 0,0,0
 342.32 8.65 342.32 8.65 339.66 0 c 1,0,0
 132.99 0 l 1,0,0
 136.32 33.6 136.32 33.6 137.985 91.08 c 0,0,0
 139.65 148.56 139.65 148.56 139.65 230.92 c 2,0,0
 139.65 1089.63 l 1,0,0
 6.7 1257.42 l 1,0,0
 6.7 1291.41 l 1,0,0
 294.06 1484 l 1,0,0
 352.98 1484 l 1,0,0
 352.98 1063.97 l 2,0,0
 352.98 1028.01 352.98 1028.01 351.98 987.695 c 0,0,0
 350.98 947.38 350.98 947.38 348.98 903.38 c 1,0,0
 352.98 903.38 l 1,0,0
 401.99 1007.38 401.99 1007.38 485.975 1054.69 c 0,0,0
 569.96 1102 569.96 1102 692.95 1102 c 0,0,0
 893.66 1102 893.66 1102 992.14 961.525 c 0,0,0
 1090.62 821.05 1090.62 821.05 1090.62 545.67 c 0,0,0
867.3 541.65 m 0,0,0
 867.3 754.46 867.3 754.46 809.28 849.49 c 0,0,0
 751.26 944.52 751.26 944.52 623.52 944.52 c 0,0,0
 484.06 944.52 484.06 944.52 417.86 843.325 c 0,0,0
 351.66 742.13 351.66 742.13 351.66 531.31 c 0,0,0
 351.66 331.84 351.66 331.84 416.525 232.155 c 0,0,0
 481.39 132.47 481.39 132.47 621.52 132.47 c 0,0,0
 749.6 132.47 749.6 132.47 808.45 230.495 c 0,0,0
 867.3 328.52 867.3 328.52 867.3 541.65 c 0,0,0
EndSplineSet
EndChar

StartChar: uni0186
Encoding: 390 390 326
Width: 1479
GlyphClass: 2
Flags: W
LayerCount: 2
Fore
SplineSet
695.02 161.08 m 0,0,0
 917.13 161.08 917.13 161.08 1037.715 301.83 c 0,0,0
 1158.3 442.58 1158.3 442.58 1158.3 699 c 0,0,0
 1158.3 869.04 1158.3 869.04 1101.755 992.265 c 0,0,0
 1045.21 1115.49 1045.21 1115.49 939.98 1181.87 c 0,0,0
 834.75 1248.25 834.75 1248.25 687.35 1248.25 c 0,0,0
 404.61 1248.25 404.61 1248.25 268.78 963.5 c 1,0,0
 79.45 1047.77 l 1,0,0
 165.8 1237.03 165.8 1237.03 322.95 1333.515 c 0,0,0
 480.1 1430 480.1 1430 693.38 1430 c 0,0,0
 912.34 1430 912.34 1430 1067.155 1342.16 c 0,0,0
 1221.97 1254.32 1221.97 1254.32 1304.13 1090.485 c 0,0,0
 1386.29 926.65 1386.29 926.65 1386.29 699 c 0,0,0
 1386.29 471.02 1386.29 471.02 1305.285 310.685 c 0,0,0
 1224.28 150.35 1224.28 150.35 1070.455 65.175 c 0,0,0
 916.63 -20 916.63 -20 698.34 -20 c 0,0,0
 465.08 -20 465.08 -20 313.77 71.125 c 0,0,0
 162.46 162.25 162.46 162.25 94.1 343.19 c 1,0,0
 301.17 406.82 l 1,0,0
 342.21 291.44 342.21 291.44 446.415 226.26 c 0,0,0
 550.62 161.08 550.62 161.08 695.02 161.08 c 0,0,0
EndSplineSet
EndChar

StartChar: uni0187
Encoding: 391 391 327
Width: 1479
GlyphClass: 2
Flags: W
LayerCount: 2
Fore
SplineSet
1186.54 1003.18 m 1,0,0
 1142.82 1120.57 1142.82 1120.57 1038.28 1184.745 c 0,0,0
 933.74 1248.92 933.74 1248.92 790.68 1248.92 c 0,0,0
 567.9 1248.92 567.9 1248.92 446.645 1107.165 c 0,0,0
 325.39 965.41 325.39 965.41 325.39 711 c 0,0,0
 325.39 542.3 325.39 542.3 382.27 418.905 c 0,0,0
 439.15 295.51 439.15 295.51 545.05 228.63 c 0,0,0
 650.95 161.75 650.95 161.75 798.35 161.75 c 0,0,0
 939.42 161.75 939.42 161.75 1044.815 231.785 c 0,0,0
 1150.21 301.82 1150.21 301.82 1218.93 446.5 c 1,0,0
 1408.26 362.23 l 1,0,0
 1323.24 173.63 1323.24 173.63 1164.585 76.815 c 0,0,0
 1005.93 -20 1005.93 -20 792.32 -20 c 0,0,0
 574.36 -20 574.36 -20 418.71 68.175 c 0,0,0
 263.06 156.35 263.06 156.35 180.23 320.685 c 0,0,0
 97.4 485.02 97.4 485.02 97.4 711 c 0,0,0
 97.4 938.31 97.4 938.31 178.74 1098.98 c 0,0,0
 260.08 1259.65 260.08 1259.65 414.74 1344.825 c 0,0,0
 569.4 1430 569.4 1430 787.36 1430 c 0,0,0
 1042.24 1430 1042.24 1430 1199.97 1316.8 c 1,0,0
 1199.97 1352.01 l 2,0,0
 1199.97 1491.33 1199.97 1491.33 1273.255 1568.68 c 0,0,0
 1346.54 1646.03 1346.54 1646.03 1477.12 1646.03 c 0,0,0
 1537.39 1646.03 1537.39 1646.03 1607.68 1630.37 c 1,0,0
 1607.68 1457.86 l 1,0,0
 1551.69 1473.88 1551.69 1473.88 1519.68 1473.88 c 0,0,0
 1452.64 1473.88 1452.64 1473.88 1423.125 1438.71 c 0,0,0
 1393.61 1403.54 1393.61 1403.54 1393.61 1328.19 c 2,0,0
 1393.61 1066.81 l 1,0,0
 1186.54 1003.18 l 1,0,0
EndSplineSet
EndChar

StartChar: uni0188
Encoding: 392 392 328
Width: 1061
GlyphClass: 2
Flags: W
LayerCount: 2
Fore
SplineSet
781.97 752.46 m 1,0,0
 768.63 840.15 768.63 840.15 714.6 891.995 c 0,0,0
 660.57 943.84 660.57 943.84 561.18 943.84 c 0,0,0
 429.4 943.84 429.4 943.84 368.7 850.325 c 0,0,0
 308 756.81 308 756.81 308 546 c 0,0,0
 308 339.57 308 339.57 371.875 239.035 c 0,0,0
 435.75 138.5 435.75 138.5 563.84 138.5 c 0,0,0
 654.56 138.5 654.56 138.5 715.595 190.005 c 0,0,0
 776.63 241.51 776.63 241.51 790.97 346.87 c 1,0,0
 1005.97 334.54 l 1,0,0
 991.64 228.23 991.64 228.23 933.335 148.425 c 0,0,0
 875.03 68.62 875.03 68.62 781.415 24.31 c 0,0,0
 687.8 -20 687.8 -20 566.53 -20 c 0,0,0
 333.26 -20 333.26 -20 208.975 124.49 c 0,0,0
 84.69 268.98 84.69 268.98 84.69 539.69 c 0,0,0
 84.69 811.04 84.69 811.04 209.64 956.52 c 0,0,0
 334.59 1102 334.59 1102 566.51 1102 c 0,0,0
 704.96 1102 704.96 1102 808.65 1041.22 c 1,0,0
 817.32 1165.52 817.32 1165.52 887.11 1231.685 c 0,0,0
 956.9 1297.85 956.9 1297.85 1082.82 1297.85 c 0,0,0
 1138.4 1297.85 1138.4 1297.85 1199.31 1284.2 c 1,0,0
 1199.31 1117.37 l 1,0,0
 1156.72 1132.05 1156.72 1132.05 1117.34 1132.05 c 0,0,0
 1053.65 1132.05 1053.65 1132.05 1026.48 1096.88 c 0,0,0
 999.31 1061.71 999.31 1061.71 999.31 986.36 c 2,0,0
 999.31 766.46 l 1,0,0
 781.97 752.46 l 1,0,0
EndSplineSet
EndChar

StartChar: uni018A
Encoding: 394 394 330
Width: 1676
GlyphClass: 2
Flags: W
LayerCount: 2
Fore
SplineSet
1582.43 717.68 m 0,0,0
 1582.43 499.35 1582.43 499.35 1497.43 337.01 c 0,0,0
 1412.43 174.01 1412.43 174.01 1256.1 87.005 c 0,0,0
 1099.77 0 1099.77 0 896.43 0 c 2,0,0
 355.24 0 l 1,0,0
 355.24 1239.22 l 1,0,0
 326.57 1239.22 l 2,0,0
 252.87 1239.22 252.87 1239.22 219.87 1207.365 c 0,0,0
 186.87 1175.51 186.87 1175.51 186.87 1109.79 c 0,0,0
 186.87 1059.47 186.87 1059.47 209.16 995.22 c 1,0,0
 34.69 978.22 l 1,0,0
 13.4 1063.79 13.4 1063.79 13.4 1135 c 0,0,0
 13.4 1264.01 13.4 1264.01 101.215 1336.505 c 0,0,0
 189.03 1409 189.03 1409 342.04 1409 c 2,0,0
 835.76 1409 l 2,0,0
 1193.1 1409 1193.1 1409 1387.765 1229.17 c 0,0,0
 1582.43 1049.34 1582.43 1049.34 1582.43 717.68 c 0,0,0
1355.78 717.68 m 0,0,0
 1355.78 968.13 1355.78 968.13 1220.695 1099.69 c 0,0,0
 1085.61 1231.25 1085.61 1231.25 831.1 1231.25 c 2,0,0
 580.56 1231.25 l 1,0,0
 580.56 177.75 l 1,0,0
 873.44 177.75 l 2,0,0
 1019.2 177.75 1019.2 177.75 1127.445 243.615 c 0,0,0
 1235.69 309.48 1235.69 309.48 1295.735 430.54 c 0,0,0
 1355.78 551.6 1355.78 551.6 1355.78 717.68 c 0,0,0
EndSplineSet
EndChar

StartChar: uni018B
Encoding: 395 395 331
Width: 1386
GlyphClass: 2
Flags: W
LayerCount: 2
Fore
SplineSet
83.31 418.94 m 0,0,0
 83.31 610.59 83.31 610.59 212.49 716.415 c 0,0,0
 341.67 822.24 341.67 822.24 577.67 822.24 c 2,0,0
 1005.13 822.24 l 1,0,0
 1005.13 1229.57 l 1,0,0
 243.15 1229.57 l 1,0,0
 243.15 1409 l 1,0,0
 1230.45 1409 l 1,0,0
 1230.45 0 l 1,0,0
 580.19 0 l 2,0,0
 349.9 0 349.9 0 216.605 113.99 c 0,0,0
 83.31 227.98 83.31 227.98 83.31 418.94 c 0,0,0
310.62 415.62 m 0,0,0
 310.62 298.55 310.62 298.55 385.155 235.995 c 0,0,0
 459.69 173.44 459.69 173.44 614.12 173.44 c 2,0,0
 1005.13 173.44 l 1,0,0
 1005.13 648.46 l 1,0,0
 621.46 648.46 l 2,0,0
 466.04 648.46 466.04 648.46 388.33 587.92 c 0,0,0
 310.62 527.38 310.62 527.38 310.62 415.62 c 0,0,0
EndSplineSet
EndChar

StartChar: uni018C
Encoding: 396 396 332
Width: 1175
GlyphClass: 2
Flags: W
LayerCount: 2
Fore
SplineSet
82.66 539.07 m 0,0,0
 82.66 810.82 82.66 810.82 181.8 949.81 c 0,0,0
 280.94 1088.8 280.94 1088.8 480.33 1088.8 c 0,0,0
 603.32 1088.8 603.32 1088.8 687.305 1041.49 c 0,0,0
 771.29 994.18 771.29 994.18 820.3 890.18 c 1,0,0
 824.3 890.18 l 1,0,0
 822.63 934.18 822.63 934.18 821.465 974.495 c 0,0,0
 820.3 1014.81 820.3 1014.81 820.3 1050.77 c 2,0,0
 820.3 1307.18 l 1,0,0
 290.29 1307.18 l 1,0,0
 290.29 1484 l 1,0,0
 1033.63 1484 l 1,0,0
 1033.63 230.92 l 2,0,0
 1033.63 148.56 1033.63 148.56 1035.295 91.08 c 0,0,0
 1036.96 33.6 1036.96 33.6 1040.29 0 c 1,0,0
 833.62 0 l 1,0,0
 831.96 7.65 831.96 7.65 829.13 40.485 c 0,0,0
 826.3 73.32 826.3 73.32 824.3 110.99 c 0,0,0
 822.3 148.66 822.3 148.66 822.3 169.98 c 1,0,0
 820.3 169.98 l 1,0,0
 770.95 72.3 770.95 72.3 688.79 26.15 c 0,0,0
 606.63 -20 606.63 -20 486.27 -20 c 0,0,0
 288.59 -20 288.59 -20 185.625 122.16 c 0,0,0
 82.66 264.32 82.66 264.32 82.66 539.07 c 0,0,0
305.98 535.05 m 0,0,0
 305.98 326.22 305.98 326.22 364.83 229.345 c 0,0,0
 423.68 132.47 423.68 132.47 551.76 132.47 c 0,0,0
 689.89 132.47 689.89 132.47 755.755 230.17 c 0,0,0
 821.62 327.87 821.62 327.87 821.62 524.71 c 0,0,0
 821.62 730.56 821.62 730.56 755.425 830.94 c 0,0,0
 689.23 931.32 689.23 931.32 549.76 931.32 c 0,0,0
 423.01 931.32 423.01 931.32 364.495 837.11 c 0,0,0
 305.98 742.9 305.98 742.9 305.98 535.05 c 0,0,0
EndSplineSet
EndChar

StartChar: uni018D
Encoding: 397 397 333
Width: 1173
GlyphClass: 2
Flags: W
LayerCount: 2
Fore
SplineSet
1091.94 555.35 m 0,0,0
 1091.94 305.88 1091.94 305.88 980.775 166.23 c 0,0,0
 869.61 26.58 869.61 26.58 652.89 6.32 c 1,0,0
 1005.92 -276.83 l 1,0,0
 1005.92 -424.67 l 1,0,0
 181.41 -424.67 l 1,0,0
 181.41 -260.53 l 1,0,0
 706.35 -260.53 l 1,0,0
 283.31 73.31 l 2,0,0
 180.61 154.37 180.61 154.37 132.315 270.695 c 0,0,0
 84.02 387.02 84.02 387.02 84.02 555.35 c 0,0,0
 84.02 735.08 84.02 735.08 141.98 856.57 c 0,0,0
 199.94 978.06 199.94 978.06 312.725 1040.03 c 0,0,0
 425.51 1102 425.51 1102 589.48 1102 c 0,0,0
 844.77 1102 844.77 1102 968.355 967.535 c 0,0,0
 1091.94 833.07 1091.94 833.07 1091.94 555.35 c 0,0,0
868.29 555.35 m 0,0,0
 868.29 761.82 868.29 761.82 804.445 855.51 c 0,0,0
 740.6 949.2 740.6 949.2 592.81 949.2 c 0,0,0
 442.7 949.2 442.7 949.2 375.35 854.17 c 0,0,0
 308 759.14 308 759.14 308 555.35 c 0,0,0
 308 355.23 308 355.23 374.85 255.19 c 0,0,0
 441.7 155.15 441.7 155.15 581.15 155.15 c 0,0,0
 735.94 155.15 735.94 155.15 802.115 255.87 c 0,0,0
 868.29 356.59 868.29 356.59 868.29 555.35 c 0,0,0
EndSplineSet
EndChar

StartChar: uni018E
Encoding: 398 398 334
Width: 1366
GlyphClass: 2
Flags: W
LayerCount: 2
Fore
SplineSet
1208.9 1409 m 1,0,0
 1208.9 0 l 1,0,0
 86.03 0 l 1,0,0
 86.03 179.76 l 1,0,0
 983.58 179.76 l 1,0,0
 983.58 631.16 l 1,0,0
 187.36 631.16 l 1,0,0
 187.36 809.58 l 1,0,0
 983.58 809.58 l 1,0,0
 983.58 1229.24 l 1,0,0
 127.03 1229.24 l 1,0,0
 127.03 1409 l 1,0,0
 1208.9 1409 l 1,0,0
EndSplineSet
EndChar

StartChar: uni018F
Encoding: 399 399 335
Width: 1523
GlyphClass: 2
Flags: W
LayerCount: 2
Fore
SplineSet
1200.21 822.54 m 1,0,0
 1177.19 1024.04 1177.19 1024.04 1062.39 1137.635 c 0,0,0
 947.59 1251.23 947.59 1251.23 763.44 1251.23 c 0,0,0
 619.33 1251.23 619.33 1251.23 523.06 1189.845 c 0,0,0
 426.79 1128.46 426.79 1128.46 374.08 1012.41 c 1,0,0
 165.02 1074.69 l 1,0,0
 238.73 1246.65 238.73 1246.65 389.59 1338.325 c 0,0,0
 540.45 1430 540.45 1430 763.77 1430 c 0,0,0
 982.01 1430 982.01 1430 1135.98 1334.42 c 0,0,0
 1279.73 1246.76 1279.73 1246.76 1356.105 1086.395 c 0,0,0
 1432.48 926.03 1432.48 926.03 1432.48 711 c 0,0,0
 1432.48 490.67 1432.48 490.67 1351.14 325.34 c 0,0,0
 1269.8 159.34 1269.8 159.34 1117.79 69.67 c 0,0,0
 965.78 -20 965.78 -20 761.77 -20 c 0,0,0
 554.76 -20 554.76 -20 402.74 68.67 c 0,0,0
 251.05 157.01 251.05 157.01 170.875 323.18 c 0,0,0
 90.7 489.35 90.7 489.35 90.7 711 c 0,0,0
 90.7 736.27 90.7 736.27 92.53 763.905 c 0,0,0
 94.36 791.54 94.36 791.54 97.02 822.54 c 1,0,0
 1200.21 822.54 l 1,0,0
761.77 152.4 m 0,0,0
 966.99 152.4 966.99 152.4 1081.105 279.01 c 0,0,0
 1195.22 405.62 1195.22 405.62 1206.55 639.13 c 1,0,0
 312.3 639.13 l 1,0,0
 327.65 409.29 327.65 409.29 445.77 280.845 c 0,0,0
 563.89 152.4 563.89 152.4 761.77 152.4 c 0,0,0
EndSplineSet
EndChar

StartChar: uni0190
Encoding: 400 400 336
Width: 1252
GlyphClass: 2
Flags: W
LayerCount: 2
Fore
SplineSet
616.91 -20 m 0,0,0
 459.3 -20 459.3 -20 340.48 32.34 c 0,0,0
 221.66 84.68 221.66 84.68 155.82 178.175 c 0,0,0
 89.98 271.67 89.98 271.67 89.98 393.97 c 0,0,0
 89.98 532.67 89.98 532.67 172.64 621.015 c 0,0,0
 255.3 709.36 255.3 709.36 410 732.7 c 1,0,0
 130 792.65 130 792.65 130 1050.67 c 0,0,0
 130 1164.01 130 1164.01 190.485 1249.175 c 0,0,0
 250.97 1334.34 250.97 1334.34 359.605 1381.67 c 0,0,0
 468.24 1429 468.24 1429 612.86 1429 c 0,0,0
 818.13 1429 818.13 1429 952.115 1341.04 c 0,0,0
 1086.1 1253.08 1086.1 1253.08 1155.44 1070.84 c 1,0,0
 947.74 1009.84 l 1,0,0
 902.03 1135.54 902.03 1135.54 820.48 1194.54 c 0,0,0
 738.93 1253.54 738.93 1253.54 619.2 1253.54 c 0,0,0
 496.46 1253.54 496.46 1253.54 424.24 1198.84 c 0,0,0
 352.02 1144.14 352.02 1144.14 352.02 1046.44 c 0,0,0
 352.02 810.91 352.02 810.91 686.55 810.91 c 2,0,0
 753.59 810.91 l 1,0,0
 753.59 636.84 l 1,0,0
 686.55 636.84 l 2,0,0
 495.44 636.84 495.44 636.84 404.885 582.625 c 0,0,0
 314.33 528.41 314.33 528.41 314.33 405.97 c 0,0,0
 314.33 288.2 314.33 288.2 396.405 222.975 c 0,0,0
 478.48 157.75 478.48 157.75 624.9 157.75 c 0,0,0
 879.32 157.75 879.32 157.75 989.08 423.48 c 1,0,0
 1186.75 341.2 l 1,0,0
 1107.36 151.57 1107.36 151.57 969.245 65.785 c 0,0,0
 831.13 -20 831.13 -20 616.91 -20 c 0,0,0
EndSplineSet
EndChar

StartChar: uni0191
Encoding: 401 401 337
Width: 1251
GlyphClass: 2
Flags: W
LayerCount: 2
Fore
SplineSet
383.09 -97.66 m 2,0,0
 383.09 -258.15 383.09 -258.15 306.97 -341.575 c 0,0,0
 230.85 -425 230.85 -425 86.32 -425 c 0,0,0
 24.03 -425 24.03 -425 -63.94 -405 c 1,0,0
 -40.49 -227.88 l 1,0,0
 16.47 -243.56 16.47 -243.56 49.15 -243.56 c 0,0,0
 105.44 -243.56 105.44 -243.56 131.605 -204.725 c 0,0,0
 157.77 -165.89 157.77 -165.89 157.77 -86.89 c 2,0,0
 157.77 1409 l 1,0,0
 1171.31 1409 l 1,0,0
 1171.31 1229.24 l 1,0,0
 383.09 1229.24 l 1,0,0
 383.09 734.28 l 1,0,0
 1147.64 734.28 l 1,0,0
 1147.64 553.18 l 1,0,0
 383.09 553.18 l 1,0,0
 383.09 -97.66 l 2,0,0
EndSplineSet
EndChar

StartChar: florin
Encoding: 402 402 338
Width: 1139
GlyphClass: 2
Flags: W
LayerCount: 2
Fore
SplineSet
864.23 1300.45 m 1,0,0
 845.58 1306.11 845.58 1306.11 814.25 1311.11 c 0,0,0
 782.92 1316.11 782.92 1316.11 754.21 1316.11 c 0,0,0
 693.52 1316.11 693.52 1316.11 665.005 1281.405 c 0,0,0
 636.49 1246.7 636.49 1246.7 636.49 1161.64 c 2,0,0
 636.49 1041.8 l 1,0,0
 848.15 1041.8 l 1,0,0
 848.15 891.33 l 1,0,0
 635.15 891.33 l 1,0,0
 635.15 -445.77 l 1,0,0
 422.15 -445.77 l 1,0,0
 422.15 891.33 l 1,0,0
 268.17 891.33 l 1,0,0
 268.17 1041.8 l 1,0,0
 422.82 1041.8 l 1,0,0
 422.82 1167.53 l 2,0,0
 422.82 1324.23 422.82 1324.23 491.615 1394.065 c 0,0,0
 560.41 1463.9 560.41 1463.9 701.33 1463.9 c 0,0,0
 741.95 1463.9 741.95 1463.9 785.755 1458.24 c 0,0,0
 829.56 1452.58 829.56 1452.58 864.23 1441.59 c 1,0,0
 864.23 1300.45 l 1,0,0
EndSplineSet
EndChar

StartChar: uni0193
Encoding: 403 403 339
Width: 1593
GlyphClass: 2
Flags: W
LayerCount: 2
Fore
SplineSet
1206.21 1023.21 m 1,0,0
 1151.49 1138.92 1151.49 1138.92 1049.785 1193.92 c 0,0,0
 948.08 1248.92 948.08 1248.92 800.98 1248.92 c 0,0,0
 568.86 1248.92 568.86 1248.92 446.79 1108.515 c 0,0,0
 324.72 968.11 324.72 968.11 324.72 711 c 0,0,0
 324.72 453.24 324.72 453.24 453.305 306.66 c 0,0,0
 581.89 160.08 581.89 160.08 810.69 160.08 c 0,0,0
 941.1 160.08 941.1 160.08 1056.805 199.275 c 0,0,0
 1172.51 238.47 1172.51 238.47 1241.56 303.87 c 1,0,0
 1241.56 538.4 l 1,0,0
 845.97 538.4 l 1,0,0
 845.97 717.54 l 1,0,0
 1448.58 717.54 l 1,0,0
 1448.58 220.98 l 1,0,0
 1336.58 106.65 1336.58 106.65 1168.47 43.325 c 0,0,0
 1000.36 -20 1000.36 -20 808.05 -20 c 0,0,0
 585.08 -20 585.08 -20 425.915 67.845 c 0,0,0
 266.75 155.69 266.75 155.69 181.74 319.86 c 0,0,0
 96.73 484.03 96.73 484.03 96.73 711 c 0,0,0
 96.73 1055.65 96.73 1055.65 281.39 1242.825 c 0,0,0
 466.05 1430 466.05 1430 804.33 1430 c 0,0,0
 1070.24 1430 1070.24 1430 1224.27 1323.83 c 1,0,0
 1224.27 1363.4 l 2,0,0
 1224.27 1502.72 1224.27 1502.72 1297.555 1580.07 c 0,0,0
 1370.84 1657.42 1370.84 1657.42 1501.42 1657.42 c 0,0,0
 1561.69 1657.42 1561.69 1657.42 1631.98 1641.76 c 1,0,0
 1631.98 1469.25 l 1,0,0
 1575.99 1485.27 1575.99 1485.27 1543.98 1485.27 c 0,0,0
 1476.94 1485.27 1476.94 1485.27 1447.425 1450.1 c 0,0,0
 1417.91 1414.93 1417.91 1414.93 1417.91 1339.58 c 2,0,0
 1417.91 1086.45 l 1,0,0
 1206.21 1023.21 l 1,0,0
EndSplineSet
EndChar

StartChar: uni0194
Encoding: 404 404 340
Width: 1286
GlyphClass: 2
Flags: W
LayerCount: 2
Fore
SplineSet
11.32 1409 m 1,0,0
 247.63 1409 l 1,0,0
 645.28 452.55 l 1,0,0
 1040.6 1409 l 1,0,0
 1275.92 1409 l 1,0,0
 759.78 254.59 l 1,0,0
 806.09 169.96 806.09 169.96 837.745 104.98 c 0,0,0
 869.4 40 869.4 40 885.4 -4.67 c 0,0,0
 916.73 -94 916.73 -94 916.73 -157.03 c 0,0,0
 916.73 -281.99 916.73 -281.99 844.95 -353.495 c 0,0,0
 773.17 -425 773.17 -425 645.95 -425 c 0,0,0
 520.06 -425 520.06 -425 448.115 -353.17 c 0,0,0
 376.17 -281.34 376.17 -281.34 376.17 -156.7 c 0,0,0
 376.17 -90.35 376.17 -90.35 410.19 3.7 c 0,0,0
 425.53 47.04 425.53 47.04 455.01 109.845 c 0,0,0
 484.49 172.65 484.49 172.65 528.45 254.59 c 1,0,0
 11.32 1409 l 1,0,0
729.31 -149.14 m 0,0,0
 729.31 -98.74 729.31 -98.74 706.28 -25.975 c 0,0,0
 683.25 46.79 683.25 46.79 645.95 118.45 c 1,0,0
 610.96 49.76 610.96 49.76 586.94 -23.33 c 0,0,0
 562.92 -96.42 562.92 -96.42 562.92 -148.81 c 0,0,0
 562.92 -200.16 562.92 -200.16 585.425 -227.35 c 0,0,0
 607.93 -254.54 607.93 -254.54 645.95 -254.54 c 0,0,0
 683.97 -254.54 683.97 -254.54 706.64 -227.85 c 0,0,0
 729.31 -201.16 729.31 -201.16 729.31 -149.14 c 0,0,0
EndSplineSet
EndChar

StartChar: uni0195
Encoding: 405 405 341
Width: 1837
GlyphClass: 2
Flags: W
LayerCount: 2
Fore
SplineSet
1275.14 -20 m 0,0,0
 1062.61 -20 1062.61 -20 953.64 85.78 c 0,0,0
 844.67 191.56 844.67 191.56 844.67 392.35 c 2,0,0
 844.67 659.6 l 2,0,0
 844.67 809.3 844.67 809.3 790.305 874.27 c 0,0,0
 735.94 939.24 735.94 939.24 618.17 939.24 c 0,0,0
 499.42 939.24 499.42 939.24 427.54 851.405 c 0,0,0
 355.66 763.57 355.66 763.57 355.66 618.53 c 2,0,0
 355.66 0 l 1,0,0
 142.33 0 l 1,0,0
 142.33 1484 l 1,0,0
 355.66 1484 l 1,0,0
 355.66 1091.73 l 2,0,0
 355.66 1053.05 355.66 1053.05 353.99 1011.355 c 0,0,0
 352.32 969.66 352.32 969.66 350.82 936.335 c 0,0,0
 349.32 903.01 349.32 903.01 347.66 886.77 c 1,0,0
 350.99 886.77 l 1,0,0
 403.3 996.7 403.3 996.7 489.3 1049.35 c 0,0,0
 575.3 1102 575.3 1102 697.65 1102 c 0,0,0
 877.02 1102 877.02 1102 967.68 1004.71 c 0,0,0
 1058.34 907.42 1058.34 907.42 1058.34 709.45 c 2,0,0
 1058.34 411.82 l 2,0,0
 1058.34 263.74 1058.34 263.74 1110.865 202.58 c 0,0,0
 1163.39 141.42 1163.39 141.42 1275.81 141.42 c 0,0,0
 1388.9 141.42 1388.9 141.42 1440.92 203.24 c 0,0,0
 1492.94 265.06 1492.94 265.06 1492.94 411.82 c 2,0,0
 1492.94 1082 l 1,0,0
 1706.61 1082 l 1,0,0
 1706.61 395.03 l 2,0,0
 1706.61 195.89 1706.61 195.89 1596.48 87.945 c 0,0,0
 1486.35 -20 1486.35 -20 1275.14 -20 c 0,0,0
EndSplineSet
EndChar

StartChar: uni0196
Encoding: 406 406 342
Width: 492
GlyphClass: 2
Flags: W
LayerCount: 2
Fore
SplineSet
199 0 m 1,0,0
 170 31 170 31 153.5 98 c 0,0,0
 137 165 137 165 137 236 c 2,0,0
 137 1484 l 1,0,0
 350.66 1484 l 1,0,0
 350.66 227 l 2,0,0
 350.66 162 350.66 162 372.66 100 c 0,0,0
 394.66 38 394.66 38 430.66 0 c 1,0,0
 199 0 l 1,0,0
EndSplineSet
EndChar

StartChar: uni0197
Encoding: 407 407 343
Width: 569
GlyphClass: 2
Flags: W
LayerCount: 2
Fore
SplineSet
178.51 0 m 1,0,0
 178.51 647.91 l 1,0,0
 23.4 647.91 l 1,0,0
 23.4 817.62 l 1,0,0
 178.51 817.62 l 1,0,0
 178.51 1484 l 1,0,0
 391.84 1484 l 1,0,0
 391.84 817.62 l 1,0,0
 549.62 817.62 l 1,0,0
 549.62 647.91 l 1,0,0
 391.84 647.91 l 1,0,0
 391.84 0 l 1,0,0
 178.51 0 l 1,0,0
EndSplineSet
EndChar

StartChar: uni0198
Encoding: 408 408 344
Width: 1403
GlyphClass: 2
Flags: W
LayerCount: 2
Fore
SplineSet
383.09 531.42 m 1,0,0
 383.09 0 l 1,0,0
 157.77 0 l 1,0,0
 157.77 1409 l 1,0,0
 383.09 1409 l 1,0,0
 383.09 725.11 l 1,0,0
 872.22 1229.28 l 2,0,0
 924.15 1282.55 924.15 1282.55 975.63 1327.565 c 0,0,0
 1027.11 1372.58 1027.11 1372.58 1083.77 1399.615 c 0,0,0
 1140.43 1426.65 1140.43 1426.65 1208.08 1426.65 c 0,0,0
 1241.7 1426.65 1241.7 1426.65 1272.51 1422.325 c 0,0,0
 1303.32 1418 1303.32 1418 1336.67 1410 c 1,0,0
 1336.67 1226.85 l 1,0,0
 1311.34 1234.53 1311.34 1234.53 1283.995 1238.865 c 0,0,0
 1256.65 1243.2 1256.65 1243.2 1234.65 1243.2 c 0,0,0
 1176.95 1243.2 1176.95 1243.2 1129.95 1210.645 c 0,0,0
 1082.95 1178.09 1082.95 1178.09 1019.56 1113.69 c 2,0,0
 711.18 802.28 l 1,0,0
 1381.61 0 l 1,0,0
 1107.98 0 l 1,0,0
 563.79 669.11 l 1,0,0
 383.09 531.42 l 1,0,0
EndSplineSet
EndChar

StartChar: uni0199
Encoding: 409 409 345
Width: 1061
GlyphClass: 2
Flags: W
LayerCount: 2
Fore
SplineSet
821.94 0 m 1,0,0
 481.35 492.68 l 1,0,0
 352.98 391.93 l 1,0,0
 352.98 0 l 1,0,0
 139.65 0 l 1,0,0
 139.65 1202.33 l 2,0,0
 139.65 1343.68 139.65 1343.68 219.445 1420.015 c 0,0,0
 299.24 1496.35 299.24 1496.35 443.86 1496.35 c 0,0,0
 519.1 1496.35 519.1 1496.35 592.36 1480.69 c 1,0,0
 592.36 1303.81 l 1,0,0
 569.67 1311.49 569.67 1311.49 537.865 1315.66 c 0,0,0
 506.06 1319.83 506.06 1319.83 477.02 1319.83 c 0,0,0
 352.98 1319.83 352.98 1319.83 352.98 1174.14 c 2,0,0
 352.98 582.41 l 1,0,0
 798.61 1082 l 1,0,0
 1039.64 1082 l 1,0,0
 620.11 631.19 l 1,0,0
 1064.62 0 l 1,0,0
 821.94 0 l 1,0,0
EndSplineSet
EndChar

StartChar: uni019A
Encoding: 410 410 346
Width: 492
GlyphClass: 2
Flags: W
LayerCount: 2
Fore
SplineSet
135.63 0 m 1,0,0
 135.63 661.11 l 1,0,0
 20 661.11 l 1,0,0
 20 817.29 l 1,0,0
 135.63 817.29 l 1,0,0
 135.63 1484 l 1,0,0
 348.96 1484 l 1,0,0
 348.96 817.29 l 1,0,0
 463.24 817.29 l 1,0,0
 463.24 661.11 l 1,0,0
 348.96 661.11 l 1,0,0
 348.96 0 l 1,0,0
 135.63 0 l 1,0,0
EndSplineSet
EndChar

StartChar: uni019B
Encoding: 411 411 347
Width: 1061
GlyphClass: 2
Flags: W
LayerCount: 2
Fore
SplineSet
128.37 1193.17 m 1,0,0
 348.05 1279.33 l 1,0,0
 272.08 1484 l 1,0,0
 489.01 1484 l 1,0,0
 537.4 1353.83 l 1,0,0
 702.32 1417.76 l 1,0,0
 757.56 1280.94 l 1,0,0
 589.32 1215.68 l 1,0,0
 1046.26 0 l 1,0,0
 821.94 0 l 1,0,0
 549.57 788.96 l 1,0,0
 237.96 0 l 1,0,0
 14.66 0 l 1,0,0
 450.13 1003.33 l 1,0,0
 399.62 1141.51 l 1,0,0
 183.61 1057.02 l 1,0,0
 128.37 1193.17 l 1,0,0
EndSplineSet
EndChar

StartChar: uni019C
Encoding: 412 412 348
Width: 1892
GlyphClass: 2
Flags: W
LayerCount: 2
Fore
SplineSet
1053.79 1409 m 1,0,0
 1053.79 462.6 l 2,0,0
 1053.79 304.55 1053.79 304.55 1103.46 229.015 c 0,0,0
 1153.13 153.48 1153.13 153.48 1266.19 153.48 c 0,0,0
 1385.57 153.48 1385.57 153.48 1448.065 236.625 c 0,0,0
 1510.56 319.77 1510.56 319.77 1510.56 472.85 c 2,0,0
 1510.56 1409 l 1,0,0
 1733.87 1409 l 1,0,0
 1733.87 0 l 1,0,0
 1515.55 0 l 1,0,0
 1508.91 140.19 l 1,0,0
 1506.92 140.19 l 1,0,0
 1461.98 59.96 1461.98 59.96 1386.045 19.98 c 0,0,0
 1310.11 -20 1310.11 -20 1210.84 -20 c 0,0,0
 987.99 -20 987.99 -20 899.62 158.22 c 1,0,0
 835.99 66.31 835.99 66.31 751.36 23.155 c 0,0,0
 666.73 -20 666.73 -20 552.85 -20 c 0,0,0
 355.1 -20 355.1 -20 253.085 97.885 c 0,0,0
 151.07 215.77 151.07 215.77 151.07 446.92 c 2,0,0
 151.07 1409 l 1,0,0
 374.38 1409 l 1,0,0
 374.38 484.04 l 2,0,0
 374.38 312.93 374.38 312.93 425.72 233.205 c 0,0,0
 477.06 153.48 477.06 153.48 597.83 153.48 c 0,0,0
 712.54 153.48 712.54 153.48 771.51 232.46 c 0,0,0
 830.48 311.44 830.48 311.44 830.48 456.5 c 2,0,0
 830.48 1409 l 1,0,0
 1053.79 1409 l 1,0,0
EndSplineSet
EndChar

StartChar: uni019D
Encoding: 413 413 349
Width: 1479
GlyphClass: 2
Flags: W
LayerCount: 2
Fore
SplineSet
358.13 -104.26 m 2,0,0
 358.13 -266.41 358.13 -266.41 289.31 -345.705 c 0,0,0
 220.49 -425 220.49 -425 78.28 -425 c 0,0,0
 8.62 -425 8.62 -425 -57.24 -411.03 c 1,0,0
 -57.24 -226.59 l 1,0,0
 -5.64 -240.26 -5.64 -240.26 41.11 -240.26 c 0,0,0
 101.42 -240.26 101.42 -240.26 129.26 -201.425 c 0,0,0
 157.1 -162.59 157.1 -162.59 157.1 -83.59 c 2,0,0
 157.77 1409 l 1,0,0
 417.72 1409 l 1,0,0
 1133.85 238.62 l 1,0,0
 1119.87 420.77 1119.87 420.77 1119.87 519.65 c 2,0,0
 1119.87 1409 l 1,0,0
 1321.57 1409 l 1,0,0
 1321.57 0 l 1,0,0
 1053.29 0 l 1,0,0
 345.49 1162.05 l 1,0,0
 349.8 1091.76 349.8 1091.76 353.965 1026.585 c 0,0,0
 358.13 961.41 358.13 961.41 358.13 901.35 c 2,0,0
 358.13 -104.26 l 2,0,0
EndSplineSet
EndChar

StartChar: uni019E
Encoding: 414 414 350
Width: 1175
GlyphClass: 2
Flags: W
LayerCount: 2
Fore
SplineSet
1044.94 709.78 m 2,0,0
 1044.94 -425.34 l 1,0,0
 831.27 -425.34 l 1,0,0
 831.27 659.93 l 2,0,0
 831.27 806.95 831.27 806.95 785.28 873.26 c 0,0,0
 739.29 939.57 739.29 939.57 618.17 939.57 c 0,0,0
 497.41 939.57 497.41 939.57 426.535 851.065 c 0,0,0
 355.66 762.56 355.66 762.56 355.66 611.49 c 2,0,0
 355.66 0 l 1,0,0
 142.33 0 l 1,0,0
 142.33 847.37 l 2,0,0
 142.33 933.79 142.33 933.79 140.665 992.28 c 0,0,0
 139 1050.77 139 1050.77 135.67 1082 c 1,0,0
 338.01 1082 l 1,0,0
 339.34 1076.03 339.34 1076.03 341 1048.28 c 0,0,0
 342.66 1020.53 342.66 1020.53 344.825 978.72 c 0,0,0
 346.99 936.91 346.99 936.91 347.66 887.1 c 1,0,0
 350.99 887.1 l 1,0,0
 411.34 1003.06 411.34 1003.06 494.325 1052.695 c 0,0,0
 577.31 1102.33 577.31 1102.33 697.65 1102.33 c 0,0,0
 873.67 1102.33 873.67 1102.33 959.305 1008.055 c 0,0,0
 1044.94 913.78 1044.94 913.78 1044.94 709.78 c 2,0,0
EndSplineSet
EndChar

StartChar: Ohorn
Encoding: 416 416 352
Width: 1753
GlyphClass: 2
Flags: W
LayerCount: 2
Fore
SplineSet
1498.96 711 m 0,0,0
 1498.96 491 1498.96 491 1413.97 324 c 0,0,0
 1328.31 157.67 1328.31 157.67 1168.99 68.835 c 0,0,0
 1009.67 -20 1009.67 -20 794.34 -20 c 0,0,0
 576.69 -20 576.69 -20 419.365 69.84 c 0,0,0
 262.04 159.68 262.04 159.68 177.375 323.68 c 0,0,0
 92.71 487.68 92.71 487.68 92.71 711 c 0,0,0
 92.71 937 92.71 937 176.54 1097.665 c 0,0,0
 260.37 1258.33 260.37 1258.33 417.86 1344.165 c 0,0,0
 575.35 1430 575.35 1430 796.34 1430 c 0,0,0
 1049.91 1430 1049.91 1430 1220.53 1314.745 c 0,0,0
 1391.15 1199.49 1391.15 1199.49 1457.54 988.64 c 1,0,0
 1536.96 1028.68 1536.96 1028.68 1570.14 1082.505 c 0,0,0
 1603.32 1136.33 1603.32 1136.33 1603.32 1211.31 c 1,0,0
 1503.11 1211.31 l 1,0,0
 1503.11 1409 l 1,0,0
 1720.55 1409 l 1,0,0
 1720.55 1268.68 l 2,0,0
 1720.55 1133.47 1720.55 1133.47 1662.225 1038.505 c 0,0,0
 1603.9 943.54 1603.9 943.54 1480.22 888.15 c 1,0,0
 1489.26 846.04 1489.26 846.04 1494.11 801.585 c 0,0,0
 1498.96 757.13 1498.96 757.13 1498.96 711 c 0,0,0
1268.98 711 m 0,0,0
 1268.98 962.45 1268.98 962.45 1145.235 1105.685 c 0,0,0
 1021.49 1248.92 1021.49 1248.92 796.34 1248.92 c 0,0,0
 568.86 1248.92 568.86 1248.92 444.78 1107.355 c 0,0,0
 320.7 965.79 320.7 965.79 320.7 711 c 0,0,0
 320.7 542.26 320.7 542.26 377.4 418.535 c 0,0,0
 434.1 294.81 434.1 294.81 540.335 227.61 c 0,0,0
 646.57 160.41 646.57 160.41 794.34 160.41 c 0,0,0
 1023.16 160.41 1023.16 160.41 1146.07 304.145 c 0,0,0
 1268.98 447.88 1268.98 447.88 1268.98 711 c 0,0,0
EndSplineSet
EndChar

StartChar: ohorn
Encoding: 417 417 353
Width: 1380
GlyphClass: 2
Flags: W
LayerCount: 2
Fore
SplineSet
1088.95 560.53 m 1,0,0
 1089.36 356.26 1089.36 356.26 1028.74 228.15 c 0,0,0
 968.12 100.04 968.12 100.04 854.805 40.02 c 0,0,0
 741.49 -20 741.49 -20 583.48 -20 c 0,0,0
 341.2 -20 341.2 -20 212.61 126.315 c 0,0,0
 84.02 272.63 84.02 272.63 84.02 542 c 0,0,0
 84.02 815.73 84.02 815.73 212.945 958.865 c 0,0,0
 341.87 1102 341.87 1102 589.48 1102 c 0,0,0
 816.34 1102 816.34 1102 938.76 991.275 c 0,0,0
 1061.18 880.55 1061.18 880.55 1084.24 664.05 c 1,0,0
 1222.86 725.75 1222.86 725.75 1222.86 888.33 c 1,0,0
 1122.65 888.33 l 1,0,0
 1122.65 1086.02 l 1,0,0
 1340.09 1086.02 l 1,0,0
 1340.09 945.7 l 2,0,0
 1340.09 802.84 1340.09 802.84 1276.79 704.035 c 0,0,0
 1213.49 605.23 1213.49 605.23 1088.95 560.53 c 1,0,0
868.29 542 m 0,0,0
 868.29 755.77 868.29 755.77 802.945 852.485 c 0,0,0
 737.6 949.2 737.6 949.2 592.81 949.2 c 0,0,0
 444.71 949.2 444.71 949.2 376.355 849.66 c 0,0,0
 308 750.12 308 750.12 308 542 c 0,0,0
 308 338.89 308 338.89 375.19 235.68 c 0,0,0
 442.38 132.47 442.38 132.47 581.15 132.47 c 0,0,0
 733.25 132.47 733.25 132.47 800.77 232.345 c 0,0,0
 868.29 332.22 868.29 332.22 868.29 542 c 0,0,0
EndSplineSet
EndChar

StartChar: uni01A2
Encoding: 418 418 354
Width: 1790
GlyphClass: 2
Flags: W
LayerCount: 2
Fore
SplineSet
1416.16 -424.33 m 1,0,0
 1416.16 1207.8 l 1,0,0
 1201.38 1209.14 l 1,0,0
 1201.38 84.34 l 1,0,0
 1105.25 34.98 1105.25 34.98 1002.82 7.49 c 0,0,0
 900.39 -20 900.39 -20 783.7 -20 c 0,0,0
 567.73 -20 567.73 -20 412.73 67.84 c 0,0,0
 257.73 155.68 257.73 155.68 175.22 319.35 c 0,0,0
 92.71 483.02 92.71 483.02 92.71 711 c 0,0,0
 92.71 935.63 92.71 935.63 174.05 1096.3 c 0,0,0
 255.39 1256.97 255.39 1256.97 410.385 1343.485 c 0,0,0
 565.38 1430 565.38 1430 786.69 1430 c 0,0,0
 960.24 1430 960.24 1430 1152.36 1355.04 c 1,0,0
 1576.92 1423.66 l 1,0,0
 1629.82 1423.66 l 1,0,0
 1629.82 -424.33 l 1,0,0
 1416.16 -424.33 l 1,0,0
987.72 1214.8 m 1,0,0
 901.59 1250.57 901.59 1250.57 788.67 1250.57 c 0,0,0
 564.88 1250.57 564.88 1250.57 442.79 1108.49 c 0,0,0
 320.7 966.41 320.7 966.41 320.7 711 c 0,0,0
 320.7 539.62 320.7 539.62 376.575 415.73 c 0,0,0
 432.45 291.84 432.45 291.84 537.345 225.3 c 0,0,0
 642.24 158.76 642.24 158.76 789.64 158.76 c 0,0,0
 903.57 158.76 903.57 158.76 987.72 194.2 c 1,0,0
 987.72 1214.8 l 1,0,0
EndSplineSet
EndChar

StartChar: uni01A3
Encoding: 419 419 355
Width: 1418
GlyphClass: 2
Flags: W
LayerCount: 2
Fore
SplineSet
1272.47 1095.97 m 1,0,0
 1272.47 -425 l 1,0,0
 1071.73 -425 l 1,0,0
 1071.73 904.47 l 1,0,0
 889.66 904.47 l 1,0,0
 889.66 64.32 l 1,0,0
 830.35 24.33 830.35 24.33 749.065 2.165 c 0,0,0
 667.78 -20 667.78 -20 580.18 -20 c 0,0,0
 339.22 -20 339.22 -20 211.62 125.82 c 0,0,0
 84.02 271.64 84.02 271.64 84.02 542 c 0,0,0
 84.02 816.72 84.02 816.72 211.46 959.36 c 0,0,0
 338.9 1102 338.9 1102 586.18 1102 c 0,0,0
 672.47 1102 672.47 1102 749.28 1080.335 c 0,0,0
 826.09 1058.67 826.09 1058.67 883.36 1023.38 c 1,0,0
 1218.25 1095.97 l 1,0,0
 1272.47 1095.97 l 1,0,0
688.61 151.17 m 1,0,0
 687.94 932.5 l 1,0,0
 640.87 949.2 640.87 949.2 590.5 949.2 c 0,0,0
 442.07 949.2 442.07 949.2 375.2 850.485 c 0,0,0
 308.33 751.77 308.33 751.77 308.33 542 c 0,0,0
 308.33 338.56 308.33 338.56 374.53 235.515 c 0,0,0
 440.73 132.47 440.73 132.47 578.84 132.47 c 0,0,0
 638.57 132.47 638.57 132.47 688.61 151.17 c 1,0,0
EndSplineSet
EndChar

StartChar: uni01A4
Encoding: 420 420 356
Width: 1563
GlyphClass: 2
Flags: W
LayerCount: 2
Fore
SplineSet
956.75 1409 m 2,0,0
 1199.03 1409 1199.03 1409 1331.175 1296.185 c 0,0,0
 1463.32 1183.37 1463.32 1183.37 1463.32 977.74 c 0,0,0
 1463.32 843.09 1463.32 843.09 1403 742.78 c 0,0,0
 1342.68 642.47 1342.68 642.47 1232.035 586.99 c 0,0,0
 1121.39 531.51 1121.39 531.51 968.75 531.51 c 2,0,0
 575.87 531.51 l 1,0,0
 575.87 0 l 1,0,0
 350.55 0 l 1,0,0
 350.55 1239.22 l 1,0,0
 326.57 1239.22 l 2,0,0
 252.87 1239.22 252.87 1239.22 219.87 1207.365 c 0,0,0
 186.87 1175.51 186.87 1175.51 186.87 1109.79 c 0,0,0
 186.87 1059.47 186.87 1059.47 209.16 995.22 c 1,0,0
 34.69 978.22 l 1,0,0
 13.4 1063.79 13.4 1063.79 13.4 1135 c 0,0,0
 13.4 1264.01 13.4 1264.01 101.215 1336.505 c 0,0,0
 189.03 1409 189.03 1409 342.04 1409 c 2,0,0
 956.75 1409 l 2,0,0
1236.67 974.75 m 0,0,0
 1236.67 1230.92 1236.67 1230.92 930.45 1230.92 c 2,0,0
 575.87 1230.92 l 1,0,0
 575.87 707.59 l 1,0,0
 938.45 707.59 l 2,0,0
 1085.91 707.59 1085.91 707.59 1161.29 774.79 c 0,0,0
 1236.67 841.99 1236.67 841.99 1236.67 974.75 c 0,0,0
EndSplineSet
EndChar

StartChar: uni01A5
Encoding: 421 421 357
Width: 1175
GlyphClass: 2
Flags: W
LayerCount: 2
Fore
SplineSet
1090.62 546 m 0,0,0
 1090.62 266.96 1090.62 266.96 988.15 123.48 c 0,0,0
 885.68 -20 885.68 -20 687.01 -20 c 0,0,0
 564.98 -20 564.98 -20 480.485 28.32 c 0,0,0
 395.99 76.64 395.99 76.64 353.65 169.32 c 1,0,0
 348.32 169.32 l 1,0,0
 352.98 154.73 352.98 154.73 352.98 -4.64 c 2,0,0
 352.98 -425 l 1,0,0
 139.65 -425 l 1,0,0
 139.65 1202.33 l 2,0,0
 139.65 1344.69 139.65 1344.69 217.435 1420.52 c 0,0,0
 295.22 1496.35 295.22 1496.35 442.51 1496.35 c 0,0,0
 476.77 1496.35 476.77 1496.35 515.66 1492.695 c 0,0,0
 554.55 1489.04 554.55 1489.04 593.63 1480.02 c 1,0,0
 593.63 1299.17 l 1,0,0
 568.93 1307.52 568.93 1307.52 537.125 1312.025 c 0,0,0
 505.32 1316.53 505.32 1316.53 478.29 1316.53 c 0,0,0
 350.32 1316.53 350.32 1316.53 350.32 1173.48 c 2,0,0
 350.32 906.35 l 1,0,0
 354.32 906.35 l 1,0,0
 401.99 1006.35 401.99 1006.35 483.63 1053.84 c 0,0,0
 565.27 1101.33 565.27 1101.33 692.95 1101.33 c 0,0,0
 888.99 1101.33 888.99 1101.33 989.805 963.865 c 0,0,0
 1090.62 826.4 1090.62 826.4 1090.62 546 c 0,0,0
867.3 543.32 m 0,0,0
 867.3 754.8 867.3 754.8 808.115 849.82 c 0,0,0
 748.93 944.84 748.93 944.84 622.86 944.84 c 0,0,0
 484.06 944.84 484.06 944.84 417.86 843.825 c 0,0,0
 351.66 742.81 351.66 742.81 351.66 531.3 c 0,0,0
 351.66 330.84 351.66 330.84 416.69 231.655 c 0,0,0
 481.72 132.47 481.72 132.47 620.86 132.47 c 0,0,0
 747.93 132.47 747.93 132.47 807.615 229.32 c 0,0,0
 867.3 326.17 867.3 326.17 867.3 543.32 c 0,0,0
EndSplineSet
EndChar

StartChar: uni01A6
Encoding: 422 422 358
Width: 1366
GlyphClass: 2
Flags: W
LayerCount: 2
Fore
SplineSet
936.56 440.79 m 1,0,0
 1344.36 -322.63 l 1,0,0
 1091.69 -322.63 l 1,0,0
 723.5 407.24 l 1,0,0
 383.09 407.24 l 1,0,0
 383.09 0 l 1,0,0
 157.77 0 l 1,0,0
 157.77 1409 l 1,0,0
 380.41 1409 l 1,0,0
 380.41 1247.74 l 1,0,0
 763.1 1247.74 l 2,0,0
 1005.72 1247.74 1005.72 1247.74 1137.695 1140.58 c 0,0,0
 1269.67 1033.42 1269.67 1033.42 1269.67 839.13 c 0,0,0
 1269.67 685.1 1269.67 685.1 1180.645 577.935 c 0,0,0
 1091.62 470.77 1091.62 470.77 936.56 440.79 c 1,0,0
1043.02 833.83 m 0,0,0
 1043.02 949.57 1043.02 949.57 965.625 1009.615 c 0,0,0
 888.23 1069.66 888.23 1069.66 740.14 1069.66 c 2,0,0
 383.09 1069.66 l 1,0,0
 383.09 583.98 l 1,0,0
 748.14 583.98 l 2,0,0
 890.23 583.98 890.23 583.98 966.625 649.695 c 0,0,0
 1043.02 715.41 1043.02 715.41 1043.02 833.83 c 0,0,0
EndSplineSet
EndChar

StartChar: uni01A7
Encoding: 423 423 359
Width: 1366
GlyphClass: 2
Flags: W
LayerCount: 2
Fore
SplineSet
92.06 389.92 m 0,0,0
 92.06 490.81 92.06 490.81 128.175 562.29 c 0,0,0
 164.29 633.77 164.29 633.77 229.57 683.46 c 0,0,0
 295.18 732.48 295.18 732.48 390.015 765.855 c 0,0,0
 484.85 799.23 484.85 799.23 622.04 825.92 c 0,0,0
 787.67 858.9 787.67 858.9 855.07 886.92 c 0,0,0
 925.14 915.61 925.14 915.61 961.345 957.14 c 0,0,0
 997.55 998.67 997.55 998.67 997.55 1059.7 c 0,0,0
 997.55 1264.55 997.55 1264.55 681.31 1264.55 c 0,0,0
 535.88 1264.55 535.88 1264.55 453.64 1209.505 c 0,0,0
 371.4 1154.46 371.4 1154.46 343.37 1038 c 1,0,0
 123.03 1072.98 l 1,0,0
 169.74 1262.99 169.74 1262.99 298.55 1346.495 c 0,0,0
 427.36 1430 427.36 1430 680.3 1430 c 0,0,0
 942.59 1430 942.59 1430 1079.735 1331.34 c 0,0,0
 1216.88 1232.68 1216.88 1232.68 1216.88 1047.39 c 0,0,0
 1216.88 970.06 1216.88 970.06 1193.53 911.89 c 0,0,0
 1170.18 853.72 1170.18 853.72 1126.81 811.72 c 0,0,0
 1099.52 782.79 1099.52 782.79 1061.415 759.995 c 0,0,0
 1023.31 737.2 1023.31 737.2 974.72 718.22 c 0,0,0
 936.69 703.2 936.69 703.2 874.145 685.855 c 0,0,0
 811.6 668.51 811.6 668.51 724.54 649.5 c 0,0,0
 649.68 633.46 649.68 633.46 592.74 617.59 c 0,0,0
 535.8 601.72 535.8 601.72 497.12 587.02 c 0,0,0
 402.59 552.99 402.59 552.99 357.995 502.975 c 0,0,0
 313.4 452.96 313.4 452.96 313.4 377.61 c 0,0,0
 313.4 152.76 313.4 152.76 665.95 152.76 c 0,0,0
 776 152.76 776 152.76 856.05 178.78 c 0,0,0
 936.1 204.8 936.1 204.8 988.98 267.21 c 0,0,0
 1041.86 329.62 1041.86 329.62 1068.23 438.79 c 1,0,0
 1286.23 398.49 l 1,0,0
 1237.2 183.38 1237.2 183.38 1084.56 81.69 c 0,0,0
 931.92 -20 931.92 -20 670.64 -20 c 0,0,0
 387.7 -20 387.7 -20 239.88 85.315 c 0,0,0
 92.06 190.63 92.06 190.63 92.06 389.92 c 0,0,0
EndSplineSet
EndChar

StartChar: uni01A8
Encoding: 424 424 360
Width: 1061
GlyphClass: 2
Flags: W
LayerCount: 2
Fore
SplineSet
80.65 304.61 m 0,0,0
 80.65 385.85 80.65 385.85 112.42 442.975 c 0,0,0
 144.19 500.1 144.19 500.1 205.07 541.43 c 0,0,0
 252.76 575.83 252.76 575.83 350.49 605.86 c 0,0,0
 448.22 635.89 448.22 635.89 559.47 659.88 c 0,0,0
 665.21 683.24 665.21 683.24 710.915 718.61 c 0,0,0
 756.62 753.98 756.62 753.98 756.62 811.03 c 0,0,0
 756.62 880.41 756.62 880.41 704.275 913.95 c 0,0,0
 651.93 947.49 651.93 947.49 547.24 947.49 c 0,0,0
 439.21 947.49 439.21 947.49 380.15 907.79 c 0,0,0
 321.09 868.09 321.09 868.09 303.73 782.32 c 1,0,0
 113.02 804.3 l 1,0,0
 143.36 952 143.36 952 253.145 1026.16 c 0,0,0
 362.93 1100.32 362.93 1100.32 549.89 1100.32 c 0,0,0
 744.11 1100.32 744.11 1100.32 851.56 1019.845 c 0,0,0
 959.01 939.37 959.01 939.37 959.01 789.07 c 0,0,0
 959.01 703.12 959.01 703.12 921.38 645.155 c 0,0,0
 883.75 587.19 883.75 587.19 808.14 547.19 c 0,0,0
 773.78 528.83 773.78 528.83 717.89 511.145 c 0,0,0
 662 493.46 662 493.46 598.145 477.285 c 0,0,0
 534.29 461.11 534.29 461.11 474.37 446.11 c 0,0,0
 367.36 418.41 367.36 418.41 325.2 382.885 c 0,0,0
 283.04 347.36 283.04 347.36 283.04 286.65 c 0,0,0
 283.04 208.92 283.04 208.92 341.895 171.045 c 0,0,0
 400.75 133.17 400.75 133.17 521.1 133.17 c 0,0,0
 646.09 133.17 646.09 133.17 714.505 178.405 c 0,0,0
 782.92 223.64 782.92 223.64 809.28 319.06 c 1,0,0
 997.32 286.08 l 1,0,0
 959.32 132.05 959.32 132.05 841.665 56.025 c 0,0,0
 724.01 -20 724.01 -20 519.78 -20 c 0,0,0
 315.88 -20 315.88 -20 198.265 65.15 c 0,0,0
 80.65 150.3 80.65 150.3 80.65 304.61 c 0,0,0
EndSplineSet
EndChar

StartChar: uni01AA
Encoding: 426 426 362
Width: 765
GlyphClass: 2
Flags: W
LayerCount: 2
Fore
SplineSet
52.81 1296.72 m 0,0,0
 52.81 1388.04 52.81 1388.04 110.785 1440.025 c 0,0,0
 168.76 1492.01 168.76 1492.01 267.05 1492.01 c 0,0,0
 411.94 1492.01 411.94 1492.01 483.715 1409.08 c 0,0,0
 555.49 1326.15 555.49 1326.15 555.49 1171.66 c 2,0,0
 555.49 -105.52 l 2,0,0
 555.49 -247.86 555.49 -247.86 673.15 -247.86 c 0,0,0
 697.51 -247.86 697.51 -247.86 727.97 -244.695 c 0,0,0
 758.43 -241.53 758.43 -241.53 781.79 -235.19 c 1,0,0
 781.79 -410.68 l 1,0,0
 714.47 -425 714.47 -425 631.95 -425 c 0,0,0
 492.07 -425 492.07 -425 417.61 -346.52 c 0,0,0
 343.15 -268.04 343.15 -268.04 343.15 -118.11 c 2,0,0
 343.15 1133.81 l 1,0,0
 325.84 1122.81 325.84 1122.81 297.485 1114.965 c 0,0,0
 269.13 1107.12 269.13 1107.12 242.46 1107.12 c 0,0,0
 156.81 1107.12 156.81 1107.12 104.81 1160.105 c 0,0,0
 52.81 1213.09 52.81 1213.09 52.81 1296.72 c 0,0,0
144 1300.07 m 0,0,0
 144 1254.04 144 1254.04 172.515 1226.185 c 0,0,0
 201.03 1198.33 201.03 1198.33 245.07 1198.33 c 0,0,0
 289.78 1198.33 289.78 1198.33 318.13 1226.185 c 0,0,0
 346.48 1254.04 346.48 1254.04 346.48 1300.07 c 0,0,0
 346.48 1345.43 346.48 1345.43 318.465 1373.285 c 0,0,0
 290.45 1401.14 290.45 1401.14 245.07 1401.14 c 0,0,0
 201.03 1401.14 201.03 1401.14 172.515 1373.285 c 0,0,0
 144 1345.43 144 1345.43 144 1300.07 c 0,0,0
EndSplineSet
EndChar

StartChar: uni01AB
Encoding: 427 427 363
Width: 606
GlyphClass: 2
Flags: W
LayerCount: 2
Fore
SplineSet
587.99 -136.07 m 2,0,0
 587.99 -277.73 587.99 -277.73 520.7 -351.365 c 0,0,0
 453.41 -425 453.41 -425 316.84 -425 c 0,0,0
 249.2 -425 249.2 -425 171.28 -407.01 c 1,0,0
 171.28 -233.48 l 1,0,0
 232.56 -250.49 232.56 -250.49 278.6 -250.49 c 0,0,0
 393.92 -250.49 393.92 -250.49 393.92 -112.17 c 2,0,0
 393.92 -16.66 l 1,0,0
 269.56 -16.34 269.56 -16.34 213.77 47.475 c 0,0,0
 157.98 111.29 157.98 111.29 157.98 237.25 c 2,0,0
 157.98 931.53 l 1,0,0
 29.02 931.53 l 1,0,0
 29.02 1082 l 1,0,0
 167.29 1082 l 1,0,0
 231.84 1327.96 l 1,0,0
 370.32 1327.96 l 1,0,0
 370.32 1082 l 1,0,0
 571.97 1082 l 1,0,0
 571.97 931.53 l 1,0,0
 370.32 931.53 l 1,0,0
 370.32 288.46 l 2,0,0
 370.32 210.13 370.32 210.13 397.305 176.65 c 0,0,0
 424.29 143.17 424.29 143.17 487.29 143.17 c 0,0,0
 519.97 143.17 519.97 143.17 587.99 157.17 c 1,0,0
 587.99 -136.07 l 2,0,0
EndSplineSet
EndChar

StartChar: uni01AC
Encoding: 428 428 364
Width: 1251
GlyphClass: 2
Flags: W
LayerCount: 2
Fore
SplineSet
737.49 1229.24 m 1,0,0
 737.49 0 l 1,0,0
 512.84 0 l 1,0,0
 512.84 1229.24 l 1,0,0
 326.57 1229.24 l 2,0,0
 252.87 1229.24 252.87 1229.24 219.87 1201.22 c 0,0,0
 186.87 1173.2 186.87 1173.2 186.87 1109.79 c 0,0,0
 186.87 1059.47 186.87 1059.47 209.16 995.22 c 1,0,0
 34.69 978.22 l 1,0,0
 13.4 1063.79 13.4 1063.79 13.4 1135 c 0,0,0
 13.4 1266.36 13.4 1266.36 92.88 1337.68 c 0,0,0
 172.36 1409 172.36 1409 322.37 1409 c 2,0,0
 1212.25 1409 l 1,0,0
 1212.25 1229.24 l 1,0,0
 737.49 1229.24 l 1,0,0
EndSplineSet
EndChar

StartChar: uni01AD
Encoding: 429 429 365
Width: 606
GlyphClass: 2
Flags: W
LayerCount: 2
Fore
SplineSet
587.99 10.64 m 1,0,0
 495.37 -16.66 495.37 -16.66 387.84 -16.66 c 0,0,0
 274.56 -16.66 274.56 -16.66 216.27 46.82 c 0,0,0
 157.98 110.3 157.98 110.3 157.98 237.25 c 2,0,0
 157.98 931.53 l 1,0,0
 29.02 931.53 l 1,0,0
 29.02 1082 l 1,0,0
 161.68 1082 l 1,0,0
 161.68 1195.63 l 2,0,0
 161.68 1343.01 161.68 1343.01 237.455 1419.68 c 0,0,0
 313.23 1496.35 313.23 1496.35 453.83 1496.35 c 0,0,0
 527.73 1496.35 527.73 1496.35 594.29 1481.36 c 1,0,0
 594.29 1302.47 l 1,0,0
 569.59 1310.82 569.59 1310.82 540.13 1315.325 c 0,0,0
 510.67 1319.83 510.67 1319.83 488.33 1319.83 c 0,0,0
 425.99 1319.83 425.99 1319.83 398.155 1283.825 c 0,0,0
 370.32 1247.82 370.32 1247.82 370.32 1174.14 c 2,0,0
 370.32 1082 l 1,0,0
 571.97 1082 l 1,0,0
 571.97 931.53 l 1,0,0
 370.32 931.53 l 1,0,0
 370.32 288.46 l 2,0,0
 370.32 210.13 370.32 210.13 397.305 176.65 c 0,0,0
 424.29 143.17 424.29 143.17 487.29 143.17 c 0,0,0
 519.97 143.17 519.97 143.17 587.99 157.17 c 1,0,0
 587.99 10.64 l 1,0,0
EndSplineSet
EndChar

StartChar: uni01AE
Encoding: 430 430 366
Width: 1251
GlyphClass: 2
Flags: W
LayerCount: 2
Fore
SplineSet
948.48 -407.01 m 1,0,0
 868.55 -425 868.55 -425 805.59 -425 c 0,0,0
 662.07 -425 662.07 -425 587.455 -344.4 c 0,0,0
 512.84 -263.8 512.84 -263.8 512.84 -106.35 c 2,0,0
 512.84 1229.24 l 1,0,0
 38.41 1229.24 l 1,0,0
 38.41 1409 l 1,0,0
 1212.25 1409 l 1,0,0
 1212.25 1229.24 l 1,0,0
 737.49 1229.24 l 1,0,0
 737.49 -86.89 l 2,0,0
 737.49 -167.23 737.49 -167.23 762.48 -205.395 c 0,0,0
 787.47 -243.56 787.47 -243.56 843.43 -243.56 c 0,0,0
 894.87 -243.56 894.87 -243.56 948.48 -228.55 c 1,0,0
 948.48 -407.01 l 1,0,0
EndSplineSet
EndChar

StartChar: Uhorn
Encoding: 431 431 367
Width: 1732
GlyphClass: 2
Flags: W
LayerCount: 2
Fore
SplineSet
725.72 -20 m 0,0,0
 547.12 -20 547.12 -20 417.13 43.505 c 0,0,0
 287.14 107.01 287.14 107.01 216.795 227.165 c 0,0,0
 146.45 347.32 146.45 347.32 146.45 517.28 c 2,0,0
 146.45 1409 l 1,0,0
 371.77 1409 l 1,0,0
 371.77 535.59 l 2,0,0
 371.77 350.18 371.77 350.18 462.675 255.13 c 0,0,0
 553.58 160.08 553.58 160.08 727.69 160.08 c 0,0,0
 906.8 160.08 906.8 160.08 1004.545 259.29 c 0,0,0
 1102.29 358.5 1102.29 358.5 1102.29 547.6 c 2,0,0
 1102.29 1409 l 1,0,0
 1326.94 1409 l 1,0,0
 1326.94 970.03 l 1,0,0
 1443.32 991.4 1443.32 991.4 1500.82 1051.875 c 0,0,0
 1558.32 1112.35 1558.32 1112.35 1558.32 1211.31 c 1,0,0
 1458.11 1211.31 l 1,0,0
 1458.11 1409 l 1,0,0
 1675.55 1409 l 1,0,0
 1675.55 1268.68 l 2,0,0
 1675.55 1098.1 1675.55 1098.1 1590.555 994.635 c 0,0,0
 1505.56 891.17 1505.56 891.17 1326.94 864.18 c 1,0,0
 1326.94 534.29 l 2,0,0
 1326.94 360.65 1326.94 360.65 1254.11 236.66 c 0,0,0
 1181.28 112.67 1181.28 112.67 1046.635 46.335 c 0,0,0
 911.99 -20 911.99 -20 725.72 -20 c 0,0,0
EndSplineSet
EndChar

StartChar: uhorn
Encoding: 432 432 368
Width: 1407
GlyphClass: 2
Flags: W
LayerCount: 2
Fore
SplineSet
824.97 194.9 m 1,0,0
 765.94 80.92 765.94 80.92 682.625 30.46 c 0,0,0
 599.31 -20 599.31 -20 478.31 -20 c 0,0,0
 302.29 -20 302.29 -20 216.655 74.275 c 0,0,0
 131.02 168.55 131.02 168.55 131.02 372.22 c 2,0,0
 131.02 1082 l 1,0,0
 345.02 1082 l 1,0,0
 345.02 422.07 l 2,0,0
 345.02 280.07 345.02 280.07 391.01 211.25 c 0,0,0
 437 142.43 437 142.43 557.79 142.43 c 0,0,0
 678.55 142.43 678.55 142.43 749.425 230.935 c 0,0,0
 820.3 319.44 820.3 319.44 820.3 470.51 c 2,0,0
 820.3 1082 l 1,0,0
 1033.63 1082 l 1,0,0
 1033.63 632.69 l 1,0,0
 1146.98 660.1 1146.98 660.1 1197.75 720.22 c 0,0,0
 1248.52 780.34 1248.52 780.34 1248.52 884.31 c 1,0,0
 1148.31 884.31 l 1,0,0
 1148.31 1082 l 1,0,0
 1365.75 1082 l 1,0,0
 1365.75 941.68 l 2,0,0
 1365.75 770.47 1365.75 770.47 1286.82 669.845 c 0,0,0
 1207.89 569.22 1207.89 569.22 1033.63 529.15 c 1,0,0
 1033.63 234.63 l 2,0,0
 1033.63 142.94 1033.63 142.94 1035.46 85.765 c 0,0,0
 1037.29 28.59 1037.29 28.59 1040.29 0 c 1,0,0
 837.95 0 l 1,0,0
 837.29 8.29 837.29 8.29 835.295 34.055 c 0,0,0
 833.3 59.82 833.3 59.82 831.8 100.97 c 0,0,0
 830.3 142.12 830.3 142.12 828.63 194.9 c 1,0,0
 824.97 194.9 l 1,0,0
EndSplineSet
EndChar

StartChar: uni01B1
Encoding: 433 433 369
Width: 1567
GlyphClass: 2
Flags: W
LayerCount: 2
Fore
SplineSet
783.48 -21.33 m 0,0,0
 579.83 -21.33 579.83 -21.33 431.195 54.17 c 0,0,0
 282.56 129.67 282.56 129.67 201.75 269.515 c 0,0,0
 120.94 409.36 120.94 409.36 120.94 601.73 c 0,0,0
 120.94 803.39 120.94 803.39 227.45 966.13 c 0,0,0
 333.96 1128.87 333.96 1128.87 546.92 1239.91 c 1,0,0
 474.21 1234.91 474.21 1234.91 423.86 1231.91 c 0,0,0
 373.51 1228.91 373.51 1228.91 345.52 1228.91 c 2,0,0
 92.94 1228.91 l 1,0,0
 92.94 1408.67 l 1,0,0
 702.07 1408.67 l 1,0,0
 702.07 1156.62 l 1,0,0
 528.35 1066.57 528.35 1066.57 438.645 933.97 c 0,0,0
 348.94 801.37 348.94 801.37 348.94 625.29 c 0,0,0
 348.94 403.85 348.94 403.85 463.32 281.8 c 0,0,0
 577.7 159.75 577.7 159.75 783.14 159.75 c 0,0,0
 989.92 159.75 989.92 159.75 1104.465 281.8 c 0,0,0
 1219.01 403.85 1219.01 403.85 1219.01 625.29 c 0,0,0
 1219.01 800.04 1219.01 800.04 1130.135 932.97 c 0,0,0
 1041.26 1065.9 1041.26 1065.9 866.87 1156.62 c 1,0,0
 866.87 1408.67 l 1,0,0
 1474.02 1408.67 l 1,0,0
 1474.02 1228.91 l 1,0,0
 1222.1 1228.91 l 2,0,0
 1194.44 1228.91 1194.44 1228.91 1144.255 1231.91 c 0,0,0
 1094.07 1234.91 1094.07 1234.91 1021.36 1239.91 c 1,0,0
 1232.33 1130.21 1232.33 1130.21 1339.175 967.3 c 0,0,0
 1446.02 804.39 1446.02 804.39 1446.02 602.06 c 0,0,0
 1446.02 410.35 1446.02 410.35 1365.21 270.34 c 0,0,0
 1284.4 130.33 1284.4 130.33 1135.765 54.5 c 0,0,0
 987.13 -21.33 987.13 -21.33 783.48 -21.33 c 0,0,0
EndSplineSet
EndChar

StartChar: uni01B2
Encoding: 434 434 370
Width: 1479
GlyphClass: 2
Flags: W
LayerCount: 2
Fore
SplineSet
696.4 -20 m 0,0,0
 440.14 -20 440.14 -20 293.295 124.355 c 0,0,0
 146.45 268.71 146.45 268.71 146.45 537.38 c 2,0,0
 146.45 1409 l 1,0,0
 371.77 1409 l 1,0,0
 371.77 555.69 l 2,0,0
 371.77 367.24 371.77 367.24 458.37 263.66 c 0,0,0
 544.97 160.08 544.97 160.08 707.12 160.08 c 0,0,0
 841.78 160.08 841.78 160.08 929.645 244.135 c 0,0,0
 1017.51 328.19 1017.51 328.19 1060.545 502.26 c 0,0,0
 1103.58 676.33 1103.58 676.33 1103.58 945.04 c 0,0,0
 1103.58 1102.49 1103.58 1102.49 1063.095 1172.18 c 0,0,0
 1022.61 1241.87 1022.61 1241.87 931.28 1241.87 c 0,0,0
 875.23 1241.87 875.23 1241.87 822.29 1230.88 c 1,0,0
 817.6 1408.67 l 1,0,0
 893.52 1423.31 893.52 1423.31 991.31 1423.31 c 0,0,0
 1155.61 1423.31 1155.61 1423.31 1241.755 1308.175 c 0,0,0
 1327.9 1193.04 1327.9 1193.04 1327.9 970.76 c 0,0,0
 1327.9 560.1 1327.9 560.1 1228.56 340.56 c 0,0,0
 1083.34 -20 1083.34 -20 696.4 -20 c 0,0,0
EndSplineSet
EndChar

StartChar: uni01B3
Encoding: 435 435 371
Width: 1580
GlyphClass: 2
Flags: W
LayerCount: 2
Fore
SplineSet
685.35 762.75 m 1,0,0
 992.68 1255.75 l 2,0,0
 1048.01 1346.37 1048.01 1346.37 1108.835 1385.17 c 0,0,0
 1169.66 1423.97 1169.66 1423.97 1250.64 1423.97 c 0,0,0
 1316.91 1423.97 1316.91 1423.97 1386.05 1398.335 c 0,0,0
 1455.19 1372.7 1455.19 1372.7 1517.82 1317.08 c 1,0,0
 1425.57 1164.91 l 1,0,0
 1396.6 1191.22 1396.6 1191.22 1354.55 1211.41 c 0,0,0
 1312.5 1231.6 1312.5 1231.6 1278.14 1231.6 c 0,0,0
 1241.81 1231.6 1241.81 1231.6 1216.98 1215.285 c 0,0,0
 1192.15 1198.97 1192.15 1198.97 1161.8 1152.29 c 2,0,0
 794.82 582.02 l 1,0,0
 794.82 0 l 1,0,0
 570.5 0 l 1,0,0
 570.5 582.02 l 1,0,0
 41.7 1409 l 1,0,0
 287.05 1409 l 1,0,0
 685.35 762.75 l 1,0,0
EndSplineSet
EndChar

StartChar: uni01B4
Encoding: 436 436 372
Width: 1061
GlyphClass: 2
Flags: W
LayerCount: 2
Fore
SplineSet
221.36 -425 m 0,0,0
 139.13 -425 139.13 -425 79.87 -413.34 c 1,0,0
 79.87 -256.89 l 1,0,0
 123.81 -263.55 123.81 -263.55 168.16 -263.55 c 0,0,0
 253.48 -263.55 253.48 -263.55 314.205 -208.65 c 0,0,0
 374.93 -153.75 374.93 -153.75 419.97 -37.67 c 2,0,0
 437.3 6.98 l 1,0,0
 8.63 1082 l 1,0,0
 235.28 1082 l 1,0,0
 444.14 514.03 l 2,0,0
 448.8 501.72 448.8 501.72 463.135 458.565 c 0,0,0
 477.47 415.41 477.47 415.41 494.64 363.09 c 0,0,0
 511.81 310.77 511.81 310.77 525.81 267.625 c 0,0,0
 539.81 224.48 539.81 224.48 543.13 210.85 c 1,0,0
 619.73 451.74 l 1,0,0
 888.69 1242.07 l 2,0,0
 931.35 1370.01 931.35 1370.01 998.145 1431.17 c 0,0,0
 1064.94 1492.33 1064.94 1492.33 1180.33 1492.33 c 0,0,0
 1308.68 1492.33 1308.68 1492.33 1420.97 1405.6 c 1,0,0
 1334.68 1255.16 l 1,0,0
 1270.97 1308.58 1270.97 1308.58 1204.58 1308.58 c 0,0,0
 1157.23 1308.58 1157.23 1308.58 1124.36 1275.73 c 0,0,0
 1091.49 1242.88 1091.49 1242.88 1068.79 1181.81 c 2,0,0
 635.68 -18.81 l 2,0,0
 578.63 -170.88 578.63 -170.88 518.455 -259.755 c 0,0,0
 458.28 -348.63 458.28 -348.63 386.135 -386.815 c 0,0,0
 313.99 -425 313.99 -425 221.36 -425 c 0,0,0
EndSplineSet
EndChar

StartChar: uni01B5
Encoding: 437 437 373
Width: 1251
GlyphClass: 2
Flags: W
LayerCount: 2
Fore
SplineSet
1188.65 180.75 m 1,0,0
 1188.65 0 l 1,0,0
 63.68 0 l 1,0,0
 63.68 164.78 l 1,0,0
 453.61 666.81 l 1,0,0
 58.7 666.81 l 1,0,0
 58.7 820.93 l 1,0,0
 573.77 820.93 l 1,0,0
 890 1228.25 l 1,0,0
 137.67 1228.25 l 1,0,0
 137.67 1409 l 1,0,0
 1143.63 1409 l 1,0,0
 1143.63 1248.22 l 1,0,0
 813.09 820.93 l 1,0,0
 1177.77 820.93 l 1,0,0
 1177.77 666.81 l 1,0,0
 692.93 666.81 l 1,0,0
 317.31 180.75 l 1,0,0
 1188.65 180.75 l 1,0,0
EndSplineSet
EndChar

StartChar: uni01B6
Encoding: 438 438 374
Width: 1024
GlyphClass: 2
Flags: W
LayerCount: 2
Fore
SplineSet
955.61 160.78 m 1,0,0
 955.61 0 l 1,0,0
 55.27 0 l 1,0,0
 55.27 157.46 l 1,0,0
 316.17 474.76 l 1,0,0
 52.61 474.76 l 1,0,0
 52.61 622.28 l 1,0,0
 432.1 622.28 l 1,0,0
 676.34 921.88 l 1,0,0
 95.6 921.88 l 1,0,0
 95.6 1082 l 1,0,0
 914.65 1082 l 1,0,0
 914.65 923.88 l 1,0,0
 666.76 622.28 l 1,0,0
 944.73 622.28 l 1,0,0
 944.73 474.76 l 1,0,0
 549.18 474.76 l 1,0,0
 293.9 160.78 l 1,0,0
 955.61 160.78 l 1,0,0
EndSplineSet
EndChar

StartChar: uni01B7
Encoding: 439 439 375
Width: 1251
GlyphClass: 2
Flags: W
LayerCount: 2
Fore
SplineSet
606.4 -428.64 m 0,0,0
 396.09 -428.64 396.09 -428.64 257.59 -343 c 0,0,0
 119.09 -257.36 119.09 -257.36 38.73 -71.73 c 1,0,0
 232.41 9.84 l 1,0,0
 289.76 -124.51 289.76 -124.51 380.355 -188.38 c 0,0,0
 470.95 -252.25 470.95 -252.25 598.74 -252.25 c 0,0,0
 768.52 -252.25 768.52 -252.25 863.765 -141.515 c 0,0,0
 959.01 -30.78 959.01 -30.78 959.01 172.32 c 0,0,0
 959.01 372.47 959.01 372.47 838.75 479.725 c 0,0,0
 718.49 586.98 718.49 586.98 488.34 586.98 c 2,0,0
 398.53 586.98 l 1,0,0
 398.53 757.68 l 1,0,0
 871.14 1228.25 l 1,0,0
 104.09 1228.25 l 1,0,0
 104.09 1409 l 1,0,0
 1132.65 1409 l 1,0,0
 1132.65 1233.48 l 1,0,0
 637.88 751.07 l 1,0,0
 899.3 735.05 899.3 735.05 1039.82 586.87 c 0,0,0
 1180.34 438.69 1180.34 438.69 1180.34 175.95 c 0,0,0
 1180.34 -1.34 1180.34 -1.34 1109.34 -139.99 c 0,0,0
 1037.34 -277.64 1037.34 -277.64 905.35 -353.14 c 0,0,0
 773.36 -428.64 773.36 -428.64 606.4 -428.64 c 0,0,0
EndSplineSet
EndChar

StartChar: uni01B8
Encoding: 440 440 376
Width: 1251
GlyphClass: 2
Flags: W
LayerCount: 2
Fore
SplineSet
644.6 -428.64 m 0,0,0
 469.3 -428.64 469.3 -428.64 340.48 -355.81 c 0,0,0
 211.66 -282.98 211.66 -282.98 141.16 -148.65 c 0,0,0
 70.66 -14.32 70.66 -14.32 70.66 170.34 c 0,0,0
 70.66 338.34 70.66 338.34 136.165 463.005 c 0,0,0
 201.67 587.67 201.67 587.67 323.53 661.85 c 0,0,0
 445.39 736.03 445.39 736.03 613.12 751.07 c 1,0,0
 118.35 1233.48 l 1,0,0
 118.35 1409 l 1,0,0
 1146.91 1409 l 1,0,0
 1146.91 1228.25 l 1,0,0
 379.86 1228.25 l 1,0,0
 852.47 757.68 l 1,0,0
 852.47 586.98 l 1,0,0
 762.66 586.98 l 2,0,0
 532.85 586.98 532.85 586.98 412.42 480.06 c 0,0,0
 291.99 373.14 291.99 373.14 291.99 172.32 c 0,0,0
 291.99 38.93 291.99 38.93 336.87 -56.125 c 0,0,0
 381.75 -151.18 381.75 -151.18 462.98 -201.715 c 0,0,0
 544.21 -252.25 544.21 -252.25 652.26 -252.25 c 0,0,0
 780.05 -252.25 780.05 -252.25 870.81 -188.215 c 0,0,0
 961.57 -124.18 961.57 -124.18 1018.59 9.84 c 1,0,0
 1212.27 -71.73 l 1,0,0
 1131.91 -257.36 1131.91 -257.36 993.075 -343 c 0,0,0
 854.24 -428.64 854.24 -428.64 644.6 -428.64 c 0,0,0
EndSplineSet
EndChar

StartChar: uni01B9
Encoding: 441 441 377
Width: 1103
GlyphClass: 2
Flags: W
LayerCount: 2
Fore
SplineSet
571.68 -271.15 m 0,0,0
 693.52 -271.15 693.52 -271.15 763.415 -215.275 c 0,0,0
 833.31 -159.4 833.31 -159.4 848.67 -37.32 c 1,0,0
 1059.34 -49.65 l 1,0,0
 1036.01 -235 1036.01 -235 907.85 -332.155 c 0,0,0
 779.69 -429.31 779.69 -429.31 567 -429.31 c 0,0,0
 411.7 -429.31 411.7 -429.31 301.575 -365.455 c 0,0,0
 191.45 -301.6 191.45 -301.6 133.48 -190.255 c 0,0,0
 75.51 -78.91 75.51 -78.91 75.51 63.06 c 0,0,0
 75.51 258.37 75.51 258.37 184.5 383.055 c 0,0,0
 293.49 507.74 293.49 507.74 486.78 531.09 c 1,0,0
 119.43 899.06 l 1,0,0
 119.43 1082.67 l 1,0,0
 1008.7 1082.67 l 1,0,0
 1008.7 921.21 l 1,0,0
 357.94 921.21 l 1,0,0
 725.43 544.44 l 1,0,0
 725.43 385.59 l 1,0,0
 636.83 385.59 l 2,0,0
 471.92 385.59 471.92 385.59 381.54 300.025 c 0,0,0
 291.16 214.46 291.16 214.46 291.16 61.47 c 0,0,0
 291.16 -30.2 291.16 -30.2 324.525 -105.77 c 0,0,0
 357.89 -181.34 357.89 -181.34 420.6 -226.245 c 0,0,0
 483.31 -271.15 483.31 -271.15 571.68 -271.15 c 0,0,0
EndSplineSet
EndChar

StartChar: uni01BA
Encoding: 442 442 378
Width: 1103
GlyphClass: 2
Flags: W
LayerCount: 2
Fore
SplineSet
1049.72 -100.34 m 1,0,0
 1011.7 -255.67 1011.7 -255.67 874.56 -342.155 c 0,0,0
 737.42 -428.64 737.42 -428.64 525.11 -428.64 c 0,0,0
 457.76 -428.64 457.76 -428.64 395.57 -420.145 c 0,0,0
 333.38 -411.65 333.38 -411.65 281.04 -392.65 c 0,0,0
 174.69 -354.65 174.69 -354.65 122.55 -284.155 c 0,0,0
 70.41 -213.66 70.41 -213.66 70.41 -119.02 c 0,0,0
 70.41 -37.38 70.41 -37.38 114.39 20.59 c 0,0,0
 144.38 59.24 144.38 59.24 188.02 88.9 c 0,0,0
 231.66 118.56 231.66 118.56 304.125 145.06 c 0,0,0
 376.59 171.56 376.59 171.56 492.55 199.56 c 0,0,0
 645.09 236.29 645.09 236.29 698.77 273.32 c 0,0,0
 753.79 309.35 753.79 309.35 753.79 363.4 c 0,0,0
 753.79 440.37 753.79 440.37 654.14 466.74 c 0,0,0
 581.36 488.13 581.36 488.13 420.4 490.14 c 2,0,0
 353.91 490.81 l 1,0,0
 353.91 631.46 l 1,0,0
 692.42 921.21 l 1,0,0
 95.46 921.21 l 1,0,0
 95.46 1082 l 1,0,0
 974.68 1082 l 1,0,0
 974.68 948.48 l 1,0,0
 595.18 635.39 l 1,0,0
 783.08 625.03 783.08 625.03 873.915 556.355 c 0,0,0
 964.75 487.68 964.75 487.68 964.75 362.08 c 0,0,0
 964.75 280.41 964.75 280.41 923.6 224.595 c 0,0,0
 882.45 168.78 882.45 168.78 807.18 130.8 c 0,0,0
 732.26 93.16 732.26 93.16 545.68 47.51 c 0,0,0
 414.61 14.82 414.61 14.82 366.29 -10.15 c 0,0,0
 325.21 -30.84 325.21 -30.84 303.5 -58.555 c 0,0,0
 281.79 -86.27 281.79 -86.27 281.79 -125.03 c 0,0,0
 281.79 -192.42 281.79 -192.42 346.84 -230.78 c 0,0,0
 411.89 -269.14 411.89 -269.14 536.01 -269.14 c 0,0,0
 660.14 -269.14 660.14 -269.14 737.22 -220.125 c 0,0,0
 814.3 -171.11 814.3 -171.11 840.04 -75.07 c 1,0,0
 1049.72 -100.34 l 1,0,0
EndSplineSet
EndChar

StartChar: uni01BB
Encoding: 443 443 379
Width: 1139
GlyphClass: 2
Flags: W
LayerCount: 2
Fore
SplineSet
1042.93 178.74 m 1,0,0
 1042.93 0 l 1,0,0
 92.44 0 l 1,0,0
 92.44 149.44 l 1,0,0
 129.78 235.14 129.78 235.14 183.77 309.46 c 0,0,0
 216.14 354.51 216.14 354.51 253.005 396.71 c 0,0,0
 289.87 438.91 289.87 438.91 341.775 487.63 c 0,0,0
 393.68 536.35 393.68 536.35 471.51 600.47 c 1,0,0
 88.68 600.47 l 1,0,0
 88.68 754.62 l 1,0,0
 651.97 754.62 l 1,0,0
 802.93 892.94 802.93 892.94 802.93 1032.72 c 0,0,0
 802.93 1140.8 802.93 1140.8 742.025 1198.86 c 0,0,0
 681.12 1256.92 681.12 1256.92 569.69 1256.92 c 0,0,0
 462.94 1256.92 462.94 1256.92 397.35 1199.04 c 0,0,0
 331.76 1141.16 331.76 1141.16 318.43 1033.44 c 1,0,0
 101.76 1050.11 l 1,0,0
 123.08 1228.02 123.08 1228.02 246.25 1329.01 c 0,0,0
 369.42 1430 369.42 1430 569.03 1430 c 0,0,0
 786.98 1430 786.98 1430 903.955 1328.345 c 0,0,0
 1020.93 1226.69 1020.93 1226.69 1020.93 1040.7 c 0,0,0
 1020.93 897.68 1020.93 897.68 904.86 754.62 c 1,0,0
 1035.63 754.62 l 1,0,0
 1035.63 600.47 l 1,0,0
 751.05 600.47 l 1,0,0
 705.16 561.22 705.16 561.22 659.62 523.35 c 0,0,0
 614.08 485.48 614.08 485.48 575.145 453.23 c 0,0,0
 536.21 420.98 536.21 420.98 509.14 395.92 c 0,0,0
 448.78 341.9 448.78 341.9 403.235 288.19 c 0,0,0
 357.69 234.48 357.69 234.48 334.66 178.74 c 1,0,0
 1042.93 178.74 l 1,0,0
EndSplineSet
EndChar

StartChar: uni01BC
Encoding: 444 444 380
Width: 1139
GlyphClass: 2
Flags: W
LayerCount: 2
Fore
SplineSet
115.56 1409 m 1,0,0
 1003.43 1409 l 1,0,0
 1003.43 1229.24 l 1,0,0
 502.58 1229.24 l 1,0,0
 502.58 947.69 l 1,0,0
 566.72 947.69 l 2,0,0
 806.3 947.69 806.3 947.69 936.625 824.99 c 0,0,0
 1066.95 702.29 1066.95 702.29 1066.95 481.31 c 0,0,0
 1066.95 241.02 1066.95 241.02 934.615 110.51 c 0,0,0
 802.28 -20 802.28 -20 559.69 -20 c 0,0,0
 363.08 -20 363.08 -20 236.935 78.32 c 0,0,0
 110.79 176.64 110.79 176.64 79.76 351.27 c 1,0,0
 292.75 369.63 l 1,0,0
 322.8 256.5 322.8 256.5 390.865 202.95 c 0,0,0
 458.93 149.4 458.93 149.4 564.34 149.4 c 0,0,0
 703.1 149.4 703.1 149.4 774.86 230.655 c 0,0,0
 846.62 311.91 846.62 311.91 846.62 470.71 c 0,0,0
 846.62 619.16 846.62 619.16 768.865 692.725 c 0,0,0
 691.11 766.29 691.11 766.29 535.7 766.29 c 2,0,0
 288.22 766.29 l 1,0,0
 288.22 1229.24 l 1,0,0
 115.56 1229.24 l 1,0,0
 115.56 1409 l 1,0,0
EndSplineSet
EndChar

StartChar: uni01BD
Encoding: 445 445 381
Width: 965
GlyphClass: 2
Flags: W
LayerCount: 2
Fore
SplineSet
43.4 1082 m 1,0,0
 847.16 1082 l 1,0,0
 847.16 921.21 l 1,0,0
 400.83 921.21 l 1,0,0
 400.83 690.31 l 1,0,0
 453.51 690.31 l 2,0,0
 665.42 690.31 665.42 690.31 777.74 599.305 c 0,0,0
 890.06 508.3 890.06 508.3 890.06 340.36 c 0,0,0
 890.06 168.68 890.06 168.68 780.61 74.34 c 0,0,0
 671.16 -20 671.16 -20 472.27 -20 c 0,0,0
 292.3 -20 292.3 -20 182.025 62.48 c 0,0,0
 71.75 144.96 71.75 144.96 36.43 311.99 c 1,0,0
 242.44 325.97 l 1,0,0
 257.09 236.27 257.09 236.27 317.135 184.37 c 0,0,0
 377.18 132.47 377.18 132.47 467.86 132.47 c 0,0,0
 679.69 132.47 679.69 132.47 679.69 339.02 c 0,0,0
 679.69 439.72 679.69 439.72 612.79 488.26 c 0,0,0
 545.89 536.8 545.89 536.8 408.14 536.8 c 2,0,0
 211.11 536.8 l 1,0,0
 211.11 921.21 l 1,0,0
 43.4 921.21 l 1,0,0
 43.4 1082 l 1,0,0
EndSplineSet
EndChar

StartChar: uni01BE
Encoding: 446 446 382
Width: 1059
GlyphClass: 2
Flags: W
LayerCount: 2
Fore
SplineSet
167.33 931.53 m 1,0,0
 34.35 931.53 l 1,0,0
 34.35 1082 l 1,0,0
 172.62 1082 l 1,0,0
 201.66 1398.31 l 1,0,0
 379.67 1450.57 l 1,0,0
 379.67 1082 l 1,0,0
 571.27 1082 l 1,0,0
 571.27 931.53 l 1,0,0
 379.67 931.53 l 1,0,0
 379.67 834.43 l 2,0,0
 379.67 753.72 379.67 753.72 417.46 720.39 c 0,0,0
 435.45 694.64 435.45 694.64 477.6 675.44 c 0,0,0
 519.75 656.24 519.75 656.24 593.77 638.9 c 0,0,0
 671.87 619.87 671.87 619.87 720.545 604.36 c 0,0,0
 769.22 588.85 769.22 588.85 800.53 574.68 c 0,0,0
 831.84 560.51 831.84 560.51 855.84 544.5 c 0,0,0
 916.44 505.51 916.44 505.51 949.405 448.54 c 0,0,0
 982.37 391.57 982.37 391.57 982.37 304.61 c 0,0,0
 982.37 150.96 982.37 150.96 872.965 65.48 c 0,0,0
 763.56 -20 763.56 -20 548.62 -20 c 0,0,0
 339.69 -20 339.69 -20 227.22 47.82 c 0,0,0
 114.75 115.64 114.75 115.64 79.77 259.28 c 1,0,0
 267.81 292.26 l 1,0,0
 290.15 208.56 290.15 208.56 355.385 170.865 c 0,0,0
 420.62 133.17 420.62 133.17 548.62 133.17 c 0,0,0
 672.99 133.17 672.99 133.17 726.485 172.72 c 0,0,0
 779.98 212.27 779.98 212.27 779.98 286.65 c 0,0,0
 779.98 359.42 779.98 359.42 731.12 393.27 c 0,0,0
 682.26 427.12 682.26 427.12 580.94 452.81 c 0,0,0
 501.13 471.79 501.13 471.79 427.325 493.62 c 0,0,0
 353.52 515.45 353.52 515.45 309.51 542.14 c 0,0,0
 234.89 586.81 234.89 586.81 201.11 654.29 c 0,0,0
 167.33 721.77 167.33 721.77 167.33 820.06 c 2,0,0
 167.33 931.53 l 1,0,0
EndSplineSet
EndChar

StartChar: uni01BF
Encoding: 447 447 383
Width: 1175
GlyphClass: 2
Flags: W
LayerCount: 2
Fore
SplineSet
1088.29 638.52 m 0,0,0
 1088.29 543.65 1088.29 543.65 1067.81 459.08 c 0,0,0
 1047.33 374.51 1047.33 374.51 1005.05 299.25 c 0,0,0
 927.41 160.61 927.41 160.61 771.585 51.13 c 0,0,0
 615.76 -58.35 615.76 -58.35 352.98 -157.36 c 1,0,0
 352.98 -425.67 l 1,0,0
 139.65 -425.67 l 1,0,0
 139.65 1082 l 1,0,0
 339.66 1082 l 1,0,0
 344.33 1038.58 344.33 1038.58 346.995 995.905 c 0,0,0
 349.66 953.23 349.66 953.23 350.32 911.3 c 1,0,0
 354.32 911.3 l 1,0,0
 400.63 1006.32 400.63 1006.32 484.46 1054.32 c 0,0,0
 568.29 1102.32 568.29 1102.32 680.62 1102.32 c 0,0,0
 876.63 1102.32 876.63 1102.32 982.46 979.985 c 0,0,0
 1088.29 857.65 1088.29 857.65 1088.29 638.52 c 0,0,0
866.61 628.95 m 0,0,0
 866.61 944.84 866.61 944.84 623.15 944.84 c 0,0,0
 490.38 944.84 490.38 944.84 421.68 847.29 c 0,0,0
 352.98 749.74 352.98 749.74 352.98 561.5 c 2,0,0
 352.98 13.4 l 1,0,0
 550.34 95.99 550.34 95.99 663.37 195.88 c 0,0,0
 866.61 371.21 866.61 371.21 866.61 628.95 c 0,0,0
EndSplineSet
EndChar

StartChar: uni01C0
Encoding: 448 448 384
Width: 545
GlyphClass: 2
Flags: W
LayerCount: 2
Fore
SplineSet
379.43 1484 m 1,0,0
 379.43 0 l 1,0,0
 166.1 0 l 1,0,0
 166.1 1484 l 1,0,0
 379.43 1484 l 1,0,0
EndSplineSet
EndChar

StartChar: uni01C1
Encoding: 449 449 385
Width: 903
GlyphClass: 2
Flags: W
LayerCount: 2
Fore
SplineSet
367.1 1484 m 1,0,0
 367.1 0 l 1,0,0
 177.35 0 l 1,0,0
 177.35 1484 l 1,0,0
 367.1 1484 l 1,0,0
725.74 1484 m 1,0,0
 725.74 0 l 1,0,0
 535.99 0 l 1,0,0
 535.99 1484 l 1,0,0
 725.74 1484 l 1,0,0
EndSplineSet
EndChar

StartChar: uni01C2
Encoding: 450 450 386
Width: 1196
GlyphClass: 2
Flags: W
LayerCount: 2
Fore
SplineSet
696.21 410.39 m 1,0,0
 696.21 0 l 1,0,0
 498.78 0 l 1,0,0
 498.78 410.39 l 1,0,0
 103.44 410.39 l 1,0,0
 103.44 581.87 l 1,0,0
 498.78 581.87 l 1,0,0
 498.78 876.01 l 1,0,0
 103.44 876.01 l 1,0,0
 103.44 1047.49 l 1,0,0
 498.78 1047.49 l 1,0,0
 498.78 1484 l 1,0,0
 696.21 1484 l 1,0,0
 696.21 1047.49 l 1,0,0
 1092.89 1047.49 l 1,0,0
 1092.89 876.01 l 1,0,0
 696.21 876.01 l 1,0,0
 696.21 581.87 l 1,0,0
 1092.89 581.87 l 1,0,0
 1092.89 410.39 l 1,0,0
 696.21 410.39 l 1,0,0
EndSplineSet
EndChar

StartChar: uni01DD
Encoding: 477 477 413
Width: 1139
GlyphClass: 2
Flags: W
LayerCount: 2
Fore
SplineSet
830.28 584.28 m 1,0,0
 830.28 761.04 830.28 761.04 759.385 855.275 c 0,0,0
 688.49 949.51 688.49 949.51 553.69 949.51 c 0,0,0
 450.88 949.51 450.88 949.51 388.135 907.46 c 0,0,0
 325.39 865.41 325.39 865.41 302.04 795.72 c 1,0,0
 108.73 833.46 l 1,0,0
 212 1102 212 1102 558.31 1102 c 0,0,0
 799.63 1102 799.63 1102 926.945 958.505 c 0,0,0
 1054.26 815.01 1054.26 815.01 1054.26 534.66 c 0,0,0
 1054.26 266.66 1054.26 266.66 926.285 123.33 c 0,0,0
 798.31 -20 798.31 -20 561.68 -20 c 0,0,0
 325.33 -20 325.33 -20 204.675 127.465 c 0,0,0
 84.02 274.93 84.02 274.93 84.02 565.56 c 2,0,0
 84.02 584.28 l 1,0,0
 830.28 584.28 l 1,0,0
298.4 433.74 m 1,0,0
 311.09 275.94 311.09 275.94 377.48 201.73 c 0,0,0
 443.87 127.52 443.87 127.52 565.01 127.52 c 0,0,0
 685.45 127.52 685.45 127.52 754.36 208.915 c 0,0,0
 823.27 290.31 823.27 290.31 828.28 433.74 c 1,0,0
 298.4 433.74 l 1,0,0
EndSplineSet
EndChar

